<svg width="41" height="36" viewBox="0 0 41 36" fill="none" xmlns="http://www.w3.org/2000/svg">
<path d="M10.86 34.41L7.25586 28.1016L12.5451 18.8691L15.9061 24.7526L35.7473 24.7418L30.1172 34.4971L10.86 34.41Z" fill="#377AFB"/>
<path d="M39.2896 18.4777L35.6856 24.786L25.1289 24.7735L28.4903 18.8902L18.5605 1.53125L29.7356 1.5808L39.2896 18.4777Z" fill="#377AFB"/>
<path d="M11.4162 1.49805H18.6244L23.8919 10.7433L17.1692 10.743L7.25802 28.1127L1.71289 18.3079L11.4162 1.49805Z" fill="#377AFB"/>
<path fill-rule="evenodd" clip-rule="evenodd" d="M19.5023 0.0376819L19.4808 0H10.5638L0 18.3006L7.25148 31.1225L7.26038 31.1069L10.0017 35.9052L30.9667 36L38.3292 23.2427H38.2802L41 18.4822L30.5987 0.0868756L19.5023 0.0376819ZM26.4002 12.2419H26.4558L21.214 3.04205L28.8735 3.076L37.5802 18.4745L34.855 23.2447L27.7132 23.2485L30.2032 18.8903L26.4002 12.2419ZM17.6865 2.9967L21.2606 9.24504L16.3119 9.24493L7.83975 24.0925L7.26184 25.1013L3.42427 18.3158L12.2671 2.9967H17.6865ZM14.2501 18.8573L18.025 12.2417L22.975 12.2419L26.7785 18.8912L24.2879 23.2504L16.7621 23.2545L14.2501 18.8573ZM8.97139 28.1083L10.4075 25.5915L12.5432 21.8635L15.0503 26.2522L22.575 26.248L22.5629 26.2693L33.1423 26.282L29.2678 32.9956L11.7182 32.9162L8.97139 28.1083Z" fill="#0B0C0C"/>
</svg>
