<svg width="104" height="32" viewBox="0 0 104 32" fill="none" xmlns="http://www.w3.org/2000/svg">
<g clip-path="url(#clip0_8115_124222)">
<path d="M88.0498 14.516V22.5306H90.6115V17.1875H99.9802V22.5306H102.542V14.516H88.0498ZM90.3188 11.9176H100.2C101.59 11.6614 102.579 10.4172 102.871 9.24609H87.6472C87.94 10.4172 88.9647 11.6249 90.3188 11.9176ZM80.2548 22.5306C81.5357 21.9816 82.231 21.0301 82.5238 19.9322H70.9959V9.28269H68.3976V22.5306H80.2548ZM49.1846 11.881H58.3336C59.7243 11.4785 60.8588 10.4172 61.1515 9.28269H46.6594V17.1143H58.5166V19.859H49.2212C47.7573 20.2616 46.513 21.2497 45.8909 22.5306H61.0784V14.516H49.2212L49.1846 11.881ZM26.6413 11.9176H36.5223C37.9129 11.6614 38.9376 10.4172 39.1938 9.24609H23.9331C24.2259 10.4172 25.2506 11.6249 26.6413 11.9176ZM26.6413 17.1509H36.5223C37.9129 16.8947 38.9376 15.6504 39.1938 14.4794H23.9331C24.2259 15.6504 25.2506 16.8581 26.6413 17.1509ZM26.6413 22.5306H36.5223C37.9129 22.2744 38.9376 21.0301 39.1938 19.859H23.9331C24.2259 21.0301 25.2506 22.2744 26.6413 22.5306Z" fill="currentColor"/>
<path d="M0.914062 9.28269C1.20683 10.4538 2.23153 11.6249 3.58559 11.9176H7.75757L7.97715 11.9908V22.494H10.5755V11.9908L10.7951 11.9176H14.967C16.3577 11.5517 17.3458 10.4538 17.6386 9.28269V9.24609L0.914062 9.28269Z" fill="currentColor"/>
</g>
<defs>
<clipPath id="clip0_8115_124222">
<rect width="102.4" height="32" fill="currentColor" transform="translate(0.800781)"/>
</clipPath>
</defs>
</svg>
