<svg width="90" height="32" viewBox="0 0 90 32" fill="none" xmlns="http://www.w3.org/2000/svg">
<g clip-path="url(#clip0_8145_5817)">
<path fill-rule="evenodd" clip-rule="evenodd" d="M0.962891 4.05469H10.6952L0.962891 27.3297V4.05469ZM27.2623 4.05469H17.5428L27.2623 27.3297V4.05469ZM14.119 12.633L20.3134 27.3297H16.2494L14.398 22.6506H9.86473L14.119 12.633ZM44.2871 22.1467L43.1396 18.8561H38.4288L37.3446 22.1086C37.3002 22.2291 37.2431 22.2672 37.1227 22.2672H35.1509C35.0368 22.2672 34.9924 22.2101 35.0114 22.0706L39.0755 10.5124C39.1579 10.3158 39.215 10.1129 39.253 9.4472C39.253 9.36478 39.2974 9.30772 39.3735 9.30772H42.1124C42.2139 9.30772 42.2329 9.32674 42.2519 9.42818L46.8106 22.0896C46.8296 22.2101 46.8106 22.2672 46.6901 22.2672H44.4837C44.3822 22.2672 44.3252 22.2291 44.2871 22.1467ZM39.3029 15.9647C39.2184 16.2187 39.1357 16.4672 39.0565 16.7068H42.5119C42.3883 16.3211 42.2206 15.8106 42.0353 15.2469L42.0351 15.2462C41.593 13.9009 41.0516 12.2534 40.7747 11.2795H40.7556C40.4808 12.4228 39.8534 14.3095 39.3029 15.9645L39.3029 15.9647ZM52.6711 22.4637C53.8567 22.4637 55.1184 22.2481 56.3992 21.6965C56.5006 21.6585 56.5196 21.6141 56.5196 21.519C56.4816 21.1639 56.4372 20.6504 56.4372 20.2573V8.33764C56.4372 8.26156 56.4372 8.22352 56.3421 8.22352H54.1928C54.1103 8.22352 54.0723 8.26156 54.0723 8.36301V12.4017C53.7363 12.3637 53.5017 12.3447 53.2227 12.3447C49.7546 12.3447 47.6243 14.6335 47.6243 17.4929C47.6243 20.8089 49.8116 22.4637 52.6711 22.4637ZM54.0723 20.2573C53.7172 20.3714 53.3241 20.4158 52.9247 20.4158C51.3523 20.4158 50.0653 19.5282 50.0653 17.3725C50.0653 15.4641 51.3904 14.3355 53.1466 14.3355C53.5017 14.3355 53.8123 14.3735 54.0723 14.475V20.2573ZM58.5831 17.4169C58.5831 14.6145 60.4155 12.3447 63.3763 12.3447C66.4133 12.3447 68.0681 14.6525 68.0681 17.3535C68.0681 20.4158 66.1153 22.4637 63.332 22.4637C60.0414 22.4637 58.5831 19.9213 58.5831 17.4169ZM65.6398 17.4169C65.6398 15.7748 64.9297 14.3355 63.2559 14.3355C61.9308 14.3355 60.9861 15.5021 60.9861 17.3725C60.9861 19.1922 61.8737 20.4539 63.3763 20.4539C64.5937 20.4539 65.6398 19.4458 65.6398 17.4169ZM70.2903 8.22352C70.2079 8.22352 70.1508 8.26156 70.1508 8.36301V21.855C70.1508 21.9121 70.2079 22.0135 70.2903 22.0325C71.235 22.3242 72.2241 22.4637 73.2448 22.4637C76.1677 22.4637 79.0081 20.6504 79.0081 16.9984C79.0081 14.3545 77.1948 12.3447 74.3544 12.3447C73.7013 12.3447 73.0927 12.4461 72.5601 12.6236L72.5347 8.38202C72.5347 8.24254 72.4967 8.22352 72.3572 8.22352H70.2903ZM76.5798 17.2393C76.5798 19.4267 75.0835 20.4538 73.4668 20.4538C73.1307 20.4538 72.8327 20.4348 72.5601 20.3524V14.5955C72.8708 14.475 73.2448 14.3735 73.9359 14.3735C75.4956 14.3735 76.5798 15.3626 76.5798 17.2393ZM89.0582 17.867C88.7856 17.9304 87.993 17.9495 87.0293 17.9495H83.0223C83.0794 19.3253 83.9924 20.4348 86.0022 20.4348C86.8899 20.4348 87.7014 20.2763 88.4495 19.9593C88.5066 19.9213 88.5637 19.9403 88.5637 20.0354V21.6775C88.5637 21.7917 88.5256 21.855 88.4495 21.8931C87.7014 22.2481 86.8328 22.4637 85.4887 22.4637C81.9001 22.4637 80.6194 19.9403 80.6194 17.512C80.6194 14.773 82.2742 12.3447 85.2541 12.3447C88.1706 12.3447 89.2991 14.6335 89.2991 16.5102C89.2991 17.0618 89.2738 17.512 89.2167 17.7276C89.1977 17.81 89.1596 17.848 89.0582 17.867ZM85.1526 14.2404C83.7895 14.2404 83.1808 15.2866 83.0223 16.2503H85.9642H85.9643C86.7124 16.2503 86.9659 16.2503 87.0484 16.2313V16.0728C87.0484 15.5021 86.6553 14.2404 85.1526 14.2404Z" fill="white"/>
</g>
<defs>
<clipPath id="clip0_8145_5817">
<rect width="88.8" height="32" fill="white" transform="translate(0.599609)"/>
</clipPath>
</defs>
</svg>
