<svg width="86" height="32" viewBox="0 0 86 32" fill="none" xmlns="http://www.w3.org/2000/svg">
<path d="M16.6523 4.71875H2.05754C0.03429 4.71875 -1.60547 6.35851 -1.60547 8.38176V22.9765C-1.60547 24.9997 0.03429 26.6395 2.05754 26.6395H16.6523C18.6755 26.6395 20.3153 24.9997 20.3153 22.9765V8.38176C20.3153 6.35851 18.6755 4.71875 16.6523 4.71875ZM16.3305 21.4976C16.3305 22.1368 15.8126 22.6547 15.1734 22.6547H3.53641C2.89726 22.6547 2.37932 22.1368 2.37932 21.4976V9.86063C2.37932 9.22148 2.89726 8.70354 3.53641 8.70354H15.1734C15.8126 8.70354 16.3305 9.22148 16.3305 9.86063V21.4976ZM7.02971 18.6545C6.66165 18.6545 6.36632 18.357 6.36632 17.9889V13.3429C6.36632 12.9748 6.66165 12.6751 7.02971 12.6751H11.6823C12.0482 12.6751 12.3457 12.9726 12.3457 13.3429V17.9867C12.3457 18.3548 12.0482 18.6523 11.6823 18.6523H7.02971V18.6545ZM26.1272 18.3371H28.5207C28.6397 19.6926 29.5588 20.7505 31.4123 20.7505C33.0675 20.7505 34.0857 19.9328 34.0857 18.6964C34.0857 17.5393 33.2879 17.0213 31.8509 16.6819L29.9952 16.283C27.9807 15.8444 26.4644 14.5485 26.4644 12.4327C26.4644 10.0987 28.5383 8.50298 31.2316 8.50298C34.0835 8.50298 35.9194 9.99948 36.0781 12.2123H33.764C33.4885 11.1764 32.6289 10.5593 31.2338 10.5593C29.7571 10.5593 28.7411 11.3571 28.7411 12.3754C28.7411 13.3936 29.6183 14.0107 31.1346 14.3501L32.9705 14.749C34.985 15.1876 36.3602 16.4042 36.3602 18.5377C36.3602 21.2508 34.326 22.8663 31.4145 22.8663C28.1416 22.8641 26.3277 21.0899 26.1272 18.3371ZM44.9227 26.6395V22.6701L45.0792 20.929H44.9227C44.3739 22.1809 43.2212 22.8663 41.6564 22.8663C39.1328 22.8663 37.2551 20.8122 37.2551 17.6627C37.2551 14.5132 39.1328 12.4591 41.6564 12.4591C43.2014 12.4591 44.2968 13.182 44.9227 14.3171H45.0792V12.6531H47.1531V26.6395H44.9227ZM44.9998 17.6605C44.9998 15.6461 43.7678 14.4713 42.2603 14.4713C40.7528 14.4713 39.5207 15.6461 39.5207 17.6605C39.5207 19.6749 40.7528 20.8497 42.2603 20.8497C43.7678 20.8497 44.9998 19.6771 44.9998 17.6605ZM48.8083 18.6986V12.6531H51.0387V18.5024C51.0387 20.0871 51.8013 20.8497 53.073 20.8497C54.6378 20.8497 55.6561 19.7344 55.6561 17.9933V12.6531H57.8865V22.6679H55.8125V20.594H55.6561C55.1668 21.9252 54.0912 22.8641 52.4294 22.8641C50.0403 22.8641 48.8083 21.3389 48.8083 18.6986ZM59.2441 19.8711C59.2441 17.9933 60.5555 16.8979 62.8829 16.7613L65.6401 16.585V15.8025C65.6401 14.8637 64.9546 14.2972 63.7424 14.2972C62.6272 14.2972 61.9616 14.8637 61.7853 15.6659H59.5549C59.7907 13.6316 61.4723 12.4569 63.7402 12.4569C66.3035 12.4569 67.8683 13.5523 67.8683 15.6659V22.6679H65.7943V20.81H65.6379C65.1684 22.042 64.1899 22.8641 62.3121 22.8641C60.5158 22.8641 59.2441 21.6519 59.2441 19.8711ZM65.6423 18.6391V18.1101L63.392 18.2666C62.1798 18.3437 61.631 18.7956 61.631 19.6948C61.631 20.4573 62.257 21.0061 63.1364 21.0061C64.7232 21.0061 65.6423 19.9901 65.6423 18.6391ZM69.5323 22.6701V12.6531H71.6062V14.5705H71.7627C72.0558 13.2592 73.0542 12.6531 74.5397 12.6531H75.558V14.6675H74.2863C72.8383 14.6675 71.7627 15.6064 71.7627 17.3872V22.6679H69.5323V22.6701ZM85.7624 18.0726H78.152C78.2689 19.9108 79.5604 20.9488 80.9886 20.9488C82.2008 20.9488 82.9633 20.4596 83.3953 19.6375H85.6059C84.9998 21.6717 83.219 22.8641 80.9687 22.8641C78.0154 22.8641 75.9415 20.6535 75.9415 17.6605C75.9415 14.6675 78.0727 12.4569 80.9886 12.4569C83.9221 12.4569 85.8395 14.4713 85.8395 16.9751C85.8417 17.4666 85.8021 17.72 85.7624 18.0726ZM83.6311 16.5277C83.554 15.1392 82.3991 14.2003 80.9908 14.2003C79.6596 14.2003 78.5466 15.0422 78.2711 16.5277H83.6311Z" fill="currentColor"/>
</svg>
