<svg width="100" height="32" viewBox="0 0 100 32" fill="none" xmlns="http://www.w3.org/2000/svg">
<g clip-path="url(#clip0_8115_124228)">
<path d="M59.5423 9.2385C57.5271 9.2385 55.5572 11.0634 55.3306 13.7002V9.45588H52.4366V22.2535H55.3661V16.0589C55.3661 14.3237 56.596 11.8759 59.5423 11.8759V9.2385Z" fill="white"/>
<path d="M90.2706 20.2047V11.4368H91.9675C94.2301 11.4368 96.0688 12.851 96.0688 15.7501C96.0688 18.6491 94.2301 20.2047 91.9675 20.2047H90.2706ZM87.3713 22.2553H92.3213C95.3616 22.2553 99.1091 20.2754 99.1091 15.7501C99.1091 11.2954 95.3616 9.45697 92.3213 9.45697H87.3713V22.2553Z" fill="white"/>
<path d="M76.2788 15.8916C76.2788 13.5582 77.4808 11.6491 79.4605 11.6491C81.3697 11.6491 82.4303 13.5582 82.4303 15.8916C82.4303 18.225 81.3697 20.1342 79.4605 20.1342C77.4808 20.1342 76.2788 18.225 76.2788 15.8916ZM73.309 16.033C73.309 19.8513 75.2887 22.5383 78.3999 22.5383C80.6625 22.5383 82.006 21.0534 82.7132 18.6493V22.2554H85.6116V9.45712H82.7132V12.8512C82.0769 10.5885 80.7335 9.245 78.6123 9.245C75.4302 9.245 73.309 12.1441 73.309 16.033Z" fill="white"/>
<path d="M7.29188 22.5383C3.68572 22.5383 1.56445 19.6392 1.56445 16.033C1.56445 12.2855 3.89785 9.245 8.3525 9.245C12.9486 9.245 14.5042 12.3562 14.5749 14.1239H11.2516C11.1809 13.134 10.3323 11.6491 8.28178 11.6491C6.08982 11.6491 4.67565 13.5582 4.67565 15.8916C4.67565 18.225 6.08982 20.1342 8.28178 20.1342C10.2616 20.1342 11.1101 18.5786 11.4637 17.023H8.28178V15.7502H14.9585V22.2554H12.0294V18.1543C11.8172 19.6392 10.898 22.5383 7.29188 22.5383Z" fill="white"/>
<path d="M20.8974 22.5381C18.1398 22.5381 16.4428 20.6997 16.4428 17.0228V9.45697H19.4125V17.0228C19.4125 18.9319 20.3318 19.8512 21.8873 19.8512C24.9278 19.8512 26.0592 16.1036 26.0592 13.4874V9.45697H29.0289V22.2553H26.1299V17.5178C25.5642 20.134 24.0086 22.5381 20.8974 22.5381Z" fill="white"/>
<path d="M46.7755 9.23828C44.2417 9.23828 42.6433 11.6859 42.1216 13.9489C42.0324 10.9161 40.541 9.23828 38.1547 9.23828C36.093 9.23828 34.1802 11.0769 33.6834 13.9856V9.45599H30.7884V22.2546H33.7205V17.6664C33.7205 16.5289 34.1947 11.8609 37.1464 11.8609C39.0585 11.8609 39.2579 13.5856 39.2579 15.9433V22.2546H42.1887V17.6664C42.1887 16.5289 42.6825 11.8609 45.6342 11.8609C47.5447 11.8609 47.7421 13.5856 47.7421 15.9433V22.2546H50.6768V14.6843C50.6901 11.0525 49.4078 9.23828 46.7755 9.23828Z" fill="white"/>
<path d="M65.833 9.23828C62.0372 9.23828 59.4651 12.2146 59.4651 15.8883C59.4651 19.9361 61.9113 22.5382 65.833 22.5382C69.6288 22.5382 72.2466 19.5619 72.2466 15.8883C72.2466 11.8405 69.753 9.23828 65.833 9.23828ZM65.833 20.2728C63.6232 20.2728 62.1919 18.402 62.1919 15.8883C62.1919 13.3745 63.6281 11.5037 65.833 11.5037C68.0375 11.5037 69.4164 13.3745 69.4164 15.8883C69.4164 18.402 68.0362 20.2728 65.833 20.2728Z" fill="white"/>
</g>
<defs>
<clipPath id="clip0_8115_124228">
<rect width="98.4" height="32" fill="white" transform="translate(0.800781)"/>
</clipPath>
</defs>
</svg>
