<svg width="116" height="32" viewBox="0 0 116 32" fill="none" xmlns="http://www.w3.org/2000/svg">
<path d="M25.3425 6.46094C23.5075 5.60234 21.5453 4.97835 19.4939 4.62305C19.242 5.07854 18.9476 5.69118 18.7447 6.17853C16.564 5.85059 14.4034 5.85059 12.2628 6.17853C12.0599 5.69118 11.7589 5.07854 11.5047 4.62305C9.45111 4.97835 7.48669 5.60463 5.6516 6.46548C1.9502 12.0588 0.946816 17.5131 1.44851 22.8901C3.90347 24.7234 6.28262 25.837 8.62162 26.5658C9.19913 25.771 9.7142 24.9261 10.1579 24.0356C9.31284 23.7145 8.50345 23.3182 7.73866 22.8582C7.94156 22.7079 8.14002 22.5507 8.33176 22.389C12.9964 24.5708 18.0646 24.5708 22.6735 22.389C22.8675 22.5507 23.066 22.7079 23.2666 22.8582C22.4996 23.3205 21.688 23.7167 20.8429 24.0379C21.2866 24.9261 21.7995 25.7733 22.3792 26.568C24.7205 25.8393 27.1018 24.7256 29.5568 22.8901C30.1454 16.6568 28.5512 11.2526 25.3425 6.46094ZM10.7934 19.5833C9.39313 19.5833 8.24479 18.2761 8.24479 16.6842C8.24479 15.0923 9.36861 13.7828 10.7934 13.7828C12.2182 13.7828 13.3665 15.09 13.342 16.6842C13.3442 18.2761 12.2182 19.5833 10.7934 19.5833ZM20.2119 19.5833C18.8116 19.5833 17.6633 18.2761 17.6633 16.6842C17.6633 15.0923 18.7871 13.7828 20.2119 13.7828C21.6367 13.7828 22.785 15.09 22.7605 16.6842C22.7605 18.2761 21.6367 19.5833 20.2119 19.5833Z" fill="currentColor"/>
<path d="M39.4231 10.2214H45.5102C46.9776 10.2214 48.2173 10.456 49.2342 10.9228C50.2485 11.3897 51.009 12.041 51.513 12.8745C52.0167 13.7081 52.2708 14.6623 52.2708 15.7372C52.2708 16.7894 52.0078 17.7436 51.4816 18.5976C50.9554 19.4539 50.1549 20.1303 49.078 20.6291C48.0012 21.1278 46.6675 21.3783 45.0734 21.3783H39.4231V10.2214ZM45.0108 18.543C45.9987 18.543 46.7592 18.2902 47.2896 17.7869C47.8205 17.2813 48.0859 16.5935 48.0859 15.7213C48.0859 14.9128 47.8492 14.2683 47.3767 13.7855C46.9041 13.3027 46.1883 13.059 45.2316 13.059H43.3274V18.543H45.0108Z" fill="currentColor"/>
<path d="M61.384 21.3647C60.5411 21.1416 59.7806 20.8182 59.1052 20.3923V17.746C59.6158 18.149 60.3002 18.4816 61.1586 18.7434C62.017 19.0031 62.8467 19.1329 63.6492 19.1329C64.0238 19.1329 64.3071 19.0828 64.4987 18.9826C64.6907 18.8824 64.7867 18.7617 64.7867 18.6227C64.7867 18.4633 64.7354 18.3312 64.6304 18.2242C64.5255 18.1172 64.3227 18.0283 64.0219 17.9532L62.1488 17.5227C61.0762 17.2677 60.3157 16.9147 59.8634 16.4615C59.4106 16.0105 59.1852 15.4184 59.1852 14.6851C59.1852 14.0679 59.3815 13.5328 59.7787 13.075C60.1731 12.6173 60.735 12.2642 61.464 12.016C62.1935 11.7655 63.0449 11.6402 64.0238 11.6402C64.8978 11.6402 65.6983 11.7359 66.4278 11.9272C67.1568 12.1185 67.7588 12.3622 68.2383 12.6605V15.1634C67.7475 14.865 67.1855 14.6305 66.5436 14.4528C65.9035 14.2775 65.246 14.1909 64.5679 14.1909C63.589 14.1909 63.1009 14.3617 63.1009 14.7011C63.1009 14.8605 63.1767 14.9789 63.3282 15.0586C63.4798 15.1383 63.7584 15.2203 64.1622 15.3069L65.7228 15.5938C66.7421 15.7737 67.5023 16.0903 68.0016 16.5412C68.5014 16.9921 68.7509 17.6594 68.7509 18.543C68.7509 19.5109 68.3386 20.2784 67.5112 20.8478C66.6839 21.4171 65.511 21.7018 63.9904 21.7018C63.0962 21.6995 62.2269 21.5879 61.384 21.3647Z" fill="currentColor"/>
<path d="M72.4351 21.0298C71.5413 20.5834 70.8655 19.9777 70.4151 19.2125C69.9647 18.4473 69.7374 17.5864 69.7374 16.6299C69.7374 15.6734 69.9713 14.8171 70.4396 14.0633C70.9079 13.3095 71.5946 12.7173 72.5 12.2869C73.4051 11.8565 74.4866 11.6424 75.7465 11.6424C77.3071 11.6424 78.6027 11.9772 79.6329 12.6467V15.5641C79.2696 15.309 78.8456 15.1018 78.3618 14.9424C77.878 14.7829 77.3607 14.7032 76.8078 14.7032C75.8401 14.7032 75.0843 14.8831 74.5379 15.2452C73.9915 15.6073 73.7175 16.0788 73.7175 16.664C73.7175 17.2379 73.9826 17.7071 74.5134 18.0761C75.0443 18.4427 75.8133 18.6272 76.8233 18.6272C77.3429 18.6272 77.8558 18.5497 78.3618 18.3972C78.8658 18.2423 79.3007 18.0533 79.664 17.8301V20.6518C78.5204 21.3532 77.1936 21.7039 75.6839 21.7039C74.4131 21.6994 73.3293 21.4762 72.4351 21.0298Z" fill="currentColor"/>
<path d="M83.5259 21.03C82.6252 20.5836 81.9385 19.9733 81.4655 19.1967C80.993 18.4201 80.7544 17.5547 80.7544 16.5982C80.7544 15.6417 80.9907 14.7877 81.4655 14.0384C81.9404 13.2891 82.6228 12.7016 83.5193 12.2757C84.4131 11.8498 85.4814 11.638 86.7188 11.638C87.9565 11.638 89.0244 11.8498 89.9186 12.2757C90.8127 12.7016 91.4951 13.2846 91.9634 14.0293C92.4317 14.774 92.6656 15.628 92.6656 16.5959C92.6656 17.5524 92.4317 18.4179 91.9634 19.1944C91.4951 19.971 90.8104 20.5814 89.9096 21.0278C89.0088 21.4741 87.9452 21.6973 86.7168 21.6973C85.488 21.6973 84.4244 21.4764 83.5259 21.03ZM88.2685 18.2015C88.6478 17.8143 88.8394 17.3019 88.8394 16.6643C88.8394 16.0266 88.6498 15.5187 88.2685 15.1429C87.8896 14.7649 87.372 14.5759 86.7168 14.5759C86.05 14.5759 85.5281 14.7649 85.1468 15.1429C84.7679 15.521 84.5783 16.0266 84.5783 16.6643C84.5783 17.3019 84.7679 17.8143 85.1468 18.2015C85.5261 18.5886 86.05 18.7845 86.7168 18.7845C87.372 18.7822 87.8896 18.5886 88.2685 18.2015Z" fill="currentColor"/>
<path d="M102.044 12.2301V15.6735C101.647 15.4071 101.134 15.275 100.499 15.275C99.6667 15.275 99.0248 15.5324 98.5786 16.047C98.1306 16.5618 97.9075 17.3634 97.9075 18.4474V21.3807H94.0836V12.0548H97.8298V15.0199C98.0369 13.9359 98.3738 13.1366 98.8375 12.6195C99.2991 12.1049 99.8964 11.8475 100.624 11.8475C101.174 11.8475 101.647 11.9751 102.044 12.2301Z" fill="currentColor"/>
<path d="M114.749 9.90252V21.3806H110.925V19.2923C110.602 20.0779 110.111 20.6769 109.451 21.0868C108.791 21.4945 107.975 21.6995 107.007 21.6995C106.142 21.6995 105.389 21.4854 104.744 21.055C104.1 20.6245 103.603 20.0347 103.253 19.2854C102.905 18.5361 102.728 17.689 102.728 16.7416C102.718 15.7646 102.903 14.8878 103.284 14.1112C103.663 13.3346 104.2 12.7288 104.891 12.2938C105.583 11.8588 106.372 11.6402 107.257 11.6402C109.079 11.6402 110.301 12.4487 110.925 14.0633V9.90252H114.749ZM110.354 18.1376C110.745 17.7505 110.939 17.2472 110.939 16.6323C110.939 16.0379 110.749 15.5527 110.37 15.1815C109.991 14.8103 109.471 14.6236 108.818 14.6236C108.174 14.6236 107.659 14.8126 107.273 15.1906C106.887 15.5687 106.695 16.0583 106.695 16.6641C106.695 17.2699 106.887 17.7641 107.273 18.1467C107.659 18.5293 108.167 18.7206 108.802 18.7206C109.447 18.7184 109.964 18.5248 110.354 18.1376Z" fill="currentColor"/>
<path d="M55.4933 13.0475C56.5461 13.0475 57.3998 12.2644 57.3998 11.2984C57.3998 10.3325 56.5461 9.54942 55.4933 9.54942C54.4402 9.54942 53.5868 10.3325 53.5868 11.2984C53.5868 12.2644 54.4402 13.0475 55.4933 13.0475Z" fill="currentColor"/>
<path d="M53.5851 14.2524C54.7533 14.767 56.2028 14.7898 57.3978 14.2524V21.4307H53.5851V14.2524Z" fill="currentColor"/>
</svg>
