<svg width="85" height="32" viewBox="0 0 85 32" fill="none" xmlns="http://www.w3.org/2000/svg">
<g clip-path="url(#clip0_8115_124217)">
<path fill-rule="evenodd" clip-rule="evenodd" d="M11.4822 20.5762C11.4822 18.4234 13.2274 16.6783 15.38 16.6783C17.5327 16.6783 19.2778 18.4234 19.2778 20.5762C19.2778 22.7289 17.5327 24.474 15.38 24.474C13.2274 24.474 11.4822 22.7289 11.4822 20.5762ZM1.35547 20.5762C1.35547 18.4234 3.10059 16.6786 5.25326 16.6786C7.40603 16.6786 9.15124 18.4234 9.15124 20.5762C9.15124 22.7289 7.40603 24.474 5.25326 24.474C3.10059 24.474 1.35547 22.7289 1.35547 20.5762ZM10.3166 15.704C12.4694 15.704 14.2144 13.9588 14.2144 11.8059C14.2144 9.6535 12.4694 7.9082 10.3166 7.9082C8.1639 7.9082 6.41887 9.6535 6.41887 11.8059C6.41887 13.9588 8.1639 15.704 10.3166 15.704ZM38.5781 19.0533C39.5479 19.7257 40.6066 20.0523 41.6239 20.0523C42.593 20.0523 43.595 19.5495 43.595 18.6743C43.595 17.7881 42.3391 17.4694 41.1339 17.1636C40.7501 17.0662 40.3714 16.9701 40.04 16.8574C38.668 16.3909 37.4864 15.4264 37.4864 13.8645C37.4864 11.4745 39.6143 10.4874 41.6004 10.4874C42.8587 10.4874 44.1571 10.9026 44.9988 11.4975C45.2887 11.7173 45.1122 11.9697 45.1122 11.9697L44.3087 13.1182C44.2184 13.2476 44.0604 13.3593 43.8338 13.2193C43.8181 13.2096 43.7996 13.1979 43.7784 13.1844C43.4947 13.0039 42.7279 12.5162 41.6004 12.5162C40.3886 12.5162 39.6586 13.0762 39.6586 13.7704C39.6586 14.6028 40.6073 14.8646 41.7185 15.1483C43.6549 15.6706 45.7673 16.2985 45.7673 18.6743C45.7673 20.78 43.7991 22.0814 41.6239 22.0814C39.9755 22.0814 38.5721 21.6111 37.395 20.7467C37.1498 20.5011 37.321 20.2731 37.321 20.2731L38.1206 19.1304C38.2833 18.9168 38.4884 18.9913 38.5781 19.0533ZM57.9767 21.8444C57.1754 21.8444 56.7129 21.1083 56.6621 20.5301L56.6619 20.5288C55.9022 21.5348 54.3685 22.081 52.9612 22.081C49.7624 22.081 47.1694 19.4857 47.1694 16.2841C47.1694 13.0826 49.7624 10.4875 52.9612 10.4875C54.3685 10.4875 55.7719 10.9429 56.6621 12.0401V11.2023H56.6637C56.6736 11.0285 56.8171 10.8894 56.9928 10.8894H58.4456C58.621 10.8894 58.7648 11.0285 58.7742 11.2023H58.7761V21.5135C58.7761 21.6954 58.6273 21.8444 58.4456 21.8444H57.9767ZM49.2832 16.2841C49.2832 18.3654 50.9326 20.0522 52.9669 20.0522C55.0014 20.0522 56.6504 18.3654 56.6504 16.2841C56.6504 14.2033 55.0014 12.5163 52.9669 12.5163C50.9326 12.5163 49.2832 14.2033 49.2832 16.2841ZM83.1217 20.5301C83.1723 21.1084 83.6348 21.8444 84.4365 21.8444H84.9051C85.0872 21.8444 85.2361 21.6954 85.2361 21.5136V11.2023H85.2338C85.2247 11.0285 85.0811 10.8894 84.9051 10.8894H83.4527C83.2766 10.8894 83.133 11.0285 83.1239 11.2023H83.1217V12.0401C82.2315 10.9429 80.8282 10.4875 79.4211 10.4875C76.2221 10.4875 73.6291 13.0826 73.6291 16.2841C73.6291 19.4858 76.2221 22.0809 79.4211 22.0809C80.8282 22.0809 82.3622 21.5348 83.1217 20.5288V20.5301ZM79.4264 20.0522C77.3921 20.0522 75.7429 18.3653 75.7429 16.2841C75.7429 14.2033 77.3921 12.5163 79.4264 12.5163C81.4614 12.5163 83.1103 14.2033 83.1103 16.2841C83.1103 18.3653 81.4614 20.0522 79.4264 20.0522ZM71.7918 15.5491C71.7918 12.5414 69.896 10.5124 66.8726 10.5124C65.4293 10.5124 64.2462 11.3476 63.8283 12.065C63.738 11.504 63.4404 10.9143 62.5175 10.9143H62.0471C61.8651 10.9143 61.7166 11.0634 61.7166 11.2453V20.5559V20.5573V21.5575H61.7184C61.7279 21.7309 61.8716 21.8702 62.0472 21.8702H63.5C63.5223 21.8702 63.5441 21.8675 63.5652 21.8635C63.5748 21.8616 63.5837 21.8578 63.5931 21.8552L63.6033 21.8522C63.6108 21.8501 63.6184 21.8479 63.6254 21.845C63.6383 21.8397 63.65 21.8325 63.6621 21.8258C63.668 21.8221 63.6742 21.8196 63.6798 21.8159C63.6943 21.8065 63.7076 21.7952 63.7205 21.7837C63.7226 21.7816 63.7251 21.7802 63.7272 21.7782C63.7416 21.7642 63.7549 21.7488 63.7665 21.7328C63.8029 21.6829 63.8251 21.6224 63.8287 21.5575H63.8306V15.4663C63.8306 13.851 65.1392 12.5414 66.7534 12.5414C68.3676 12.5414 69.6762 13.851 69.6762 15.4663L69.6775 20.5577L69.6779 20.5559C69.6779 20.5581 69.6781 20.5604 69.6782 20.5627C69.6784 20.565 69.6786 20.5674 69.6786 20.5699V21.5575H69.6805C69.6901 21.7309 69.8337 21.8702 70.0093 21.8702H71.4622C71.4845 21.8702 71.5062 21.8675 71.5272 21.8635C71.5358 21.8619 71.5438 21.8584 71.5522 21.8561L71.5612 21.8535C71.5654 21.8523 71.5696 21.8511 71.5738 21.8499C71.5785 21.8484 71.5832 21.8469 71.5877 21.845C71.5996 21.8401 71.6104 21.8332 71.6217 21.8269L71.6252 21.825L71.6298 21.8227L71.6335 21.8209L71.6372 21.8189L71.6398 21.8174L71.6423 21.8159C71.6557 21.807 71.668 21.7964 71.6801 21.7859C71.6831 21.783 71.6866 21.7809 71.6895 21.778C71.7033 21.7647 71.7155 21.7503 71.7267 21.7353L71.728 21.7337L71.7293 21.7321C71.7651 21.6826 71.787 21.6229 71.7908 21.5583C71.7908 21.5579 71.7909 21.5575 71.7909 21.5575H71.7929L71.7918 15.5491ZM34.3076 21.8444C33.5063 21.8444 33.0437 21.1083 32.993 20.5301L32.9927 20.5288C32.2331 21.5348 30.6995 22.081 29.2922 22.081C26.0934 22.081 23.5002 19.4857 23.5002 16.2841C23.5002 13.0826 26.0934 10.4875 29.2922 10.4875C30.6995 10.4875 32.1028 10.9429 32.993 12.0401V11.2023H32.9947C33.0045 11.0285 33.148 10.8894 33.3237 10.8894H34.7765C34.9521 10.8894 35.0956 11.0285 35.1051 11.2023H35.1071V21.5135C35.1071 21.6954 34.9582 21.8444 34.7765 21.8444H34.3076ZM25.6141 16.2841C25.6141 18.3654 27.2634 20.0522 29.2978 20.0522C31.3322 20.0522 32.9813 18.3654 32.9813 16.2841C32.9813 14.2033 31.3322 12.5163 29.2978 12.5163C27.2634 12.5163 25.6141 14.2033 25.6141 16.2841Z" fill="white"/>
</g>
<defs>
<clipPath id="clip0_8115_124217">
<rect width="84.8" height="32" fill="white" transform="translate(0.599609)"/>
</clipPath>
</defs>
</svg>
