<svg width="88" height="32" viewBox="0 0 88 32" fill="none" xmlns="http://www.w3.org/2000/svg">
<path d="M19.329 11.9694C16.0833 11.9694 13.5473 14.4333 13.5473 17.7317C13.5473 21.0301 16.0192 23.4728 19.329 23.4728C22.6388 23.4728 25.1537 20.9879 25.1537 17.7106C25.1537 14.4544 22.6818 11.9694 19.329 11.9694ZM19.3509 21.0958C17.5026 21.0958 16.1482 19.6603 16.1482 17.7325C16.1482 15.7828 17.4807 14.3481 19.329 14.3481C21.1992 14.3481 22.5528 15.8047 22.5528 17.7325C22.5528 19.6603 21.1992 21.0958 19.3509 21.0958ZM25.8626 14.4762H27.4748V23.2596H30.0538V12.1835H25.8626V14.4762ZM7.05671 14.3473C8.41112 14.3473 9.4857 15.1827 9.89365 16.4251H12.6235C12.1288 13.769 9.93664 11.9694 7.07861 11.9694C3.83292 11.9694 1.29688 14.4333 1.29688 17.7325C1.29688 21.0317 3.76885 23.4737 7.07861 23.4737C9.87255 23.4737 12.1077 21.674 12.6024 18.996H9.89365C9.5068 20.2385 8.43219 21.0958 7.07781 21.0958C5.2076 21.0958 3.89698 19.6603 3.89698 17.7325C3.89781 15.7828 5.18732 14.3473 7.05671 14.3473ZM74.8657 16.6611L72.9745 16.3829C72.072 16.2548 71.4271 15.9547 71.4271 15.2475C71.4271 14.4762 72.2657 14.091 73.4044 14.091C74.651 14.091 75.4465 14.6263 75.6183 15.5046H78.1116C77.8318 13.2768 76.1124 11.9702 73.4692 11.9702C70.7393 11.9702 68.9341 13.3627 68.9341 15.3335C68.9341 17.2183 70.1164 18.3116 72.5016 18.6538L74.3929 18.932C75.3176 19.0601 75.8333 19.4251 75.8333 20.1104C75.8333 20.9887 74.9308 21.3529 73.6842 21.3529C72.1578 21.3529 71.2982 20.7316 71.1692 19.7892H68.6331C68.87 21.953 70.5675 23.4737 73.6622 23.4737C76.4782 23.4737 78.3475 22.1882 78.3475 19.9814C78.3475 18.0107 76.9939 16.9823 74.8657 16.6611ZM28.7643 7.62073C27.8186 7.62073 27.1092 8.30604 27.1092 9.24844C27.1092 10.1908 27.8179 10.8761 28.7643 10.8761C29.7099 10.8761 30.4196 10.1908 30.4196 9.24844C30.4196 8.30604 29.7099 7.62073 28.7643 7.62073ZM66.6129 15.9758C66.6129 13.5768 65.1516 11.9702 62.0566 11.9702C59.1337 11.9702 57.5002 13.4487 57.1776 15.7195H59.7354C59.8643 14.8412 60.5521 14.1129 62.0137 14.1129C63.3251 14.1129 63.9698 14.6912 63.9698 15.3984C63.9698 16.3197 62.7873 16.5549 61.3259 16.7049C59.3486 16.919 56.8985 17.6043 56.8985 20.1753C56.8985 22.1679 58.3818 23.4526 60.7461 23.4526C62.5942 23.4526 63.7548 22.6813 64.3356 21.4599C64.4217 22.5524 65.2384 23.2596 66.3778 23.2596H67.8822V20.9676H66.6137V15.9758H66.6129ZM64.0768 18.7609C64.0768 20.2393 62.7873 21.3318 61.2179 21.3318C60.2506 21.3318 59.4339 20.9246 59.4339 20.0682C59.4339 18.9758 60.7451 18.6757 61.9489 18.5476C63.1094 18.4405 63.7541 18.1834 64.0768 17.6903V18.7609ZM50.3861 11.9694C48.9457 11.9694 47.7422 12.5696 46.8826 13.576V7.51367H44.3036V23.2596H46.8395V21.803C47.6991 22.8524 48.9247 23.4737 50.3861 23.4737C53.4808 23.4737 55.824 21.0317 55.824 17.7325C55.824 14.4333 53.4379 11.9694 50.3861 11.9694ZM49.9993 21.0958C48.1509 21.0958 46.7966 19.6603 46.7966 17.7325C46.7966 15.8047 48.1721 14.3481 50.0203 14.3481C51.8906 14.3481 53.201 15.7836 53.201 17.7325C53.201 19.6603 51.8474 21.0958 49.9993 21.0958ZM38.1348 11.9694C36.4585 11.9694 35.362 12.6547 34.7174 13.619V12.1835H32.1593V23.2588H34.7383V17.2394C34.7383 15.5468 35.8129 14.3473 37.4034 14.3473C38.8867 14.3473 39.8103 15.3968 39.8103 16.9182V23.2596H42.3894V16.726C42.3904 13.9402 40.9507 11.9694 38.1348 11.9694ZM90.6417 17.3683C90.6417 14.1981 88.3205 11.9702 85.2038 11.9702C81.8941 11.9702 79.4652 14.4552 79.4652 17.7325C79.4652 21.1817 82.0659 23.4737 85.247 23.4737C87.9337 23.4737 90.0399 21.8881 90.5769 19.6392H87.8898C87.503 20.6246 86.5574 21.1817 85.2891 21.1817C83.6338 21.1817 82.3871 20.1534 82.1081 18.3537H90.6409V17.3683H90.6417ZM82.2589 16.5111C82.6679 14.9685 83.8283 14.2192 85.1609 14.2192C86.6223 14.2192 87.74 15.0545 87.9978 16.5111H82.2589Z" fill="currentColor"/>
</svg>
