<svg width="112" height="32" viewBox="0 0 112 32" fill="none" xmlns="http://www.w3.org/2000/svg">
<g clip-path="url(#clip0_8145_9601)">
<path fill-rule="evenodd" clip-rule="evenodd" d="M39.3613 20.1252C39.3613 20.5987 39.0143 20.9879 38.5205 20.9879C38.0401 20.9879 37.693 20.5978 37.693 20.1252V11.8996C37.693 11.4261 38.0401 11.0369 38.5339 11.0369C39.0142 11.0369 39.3613 11.427 39.3613 11.8996V20.1252Z" fill="#717784"/>
<path fill-rule="evenodd" clip-rule="evenodd" d="M50.1448 11.8996V19.4158C50.1448 20.432 49.6245 21.003 48.7971 21.003H48.7308C47.9435 21.003 47.5693 20.5295 47.236 19.8334L45.5542 16.4234L44.0594 12.9024L44.0996 16.3125L44.113 20.1119C44.113 20.5854 43.7663 20.9746 43.2722 20.9746C42.7918 20.9746 42.4451 20.5845 42.4451 20.1119V12.5956C42.4451 11.6629 42.9653 11.0085 43.8732 11.0085H43.9399C44.7807 11.0085 45.1274 11.482 45.4615 12.178L47.1161 15.5606L48.5308 18.8457L48.491 15.6998L48.4775 11.9005C48.4775 11.427 48.8242 11.0378 49.3184 11.0378C49.7977 11.0369 50.1448 11.4261 50.1448 11.8996Z" fill="#717784"/>
<path fill-rule="evenodd" clip-rule="evenodd" d="M56.8318 20.1119C56.8318 20.5854 56.4851 20.9746 55.9909 20.9746C55.5109 20.9746 55.1638 20.5845 55.1638 20.1119V12.6657H53.0952C52.6684 12.6657 52.3217 12.3314 52.3217 11.8446C52.3217 11.3712 52.6684 11.0378 53.0952 11.0378H58.9005C59.3273 11.0378 59.6743 11.3721 59.6743 11.8588C59.6743 12.3323 59.3273 12.6657 58.9005 12.6657H56.8318V20.1119Z" fill="#717784"/>
<path fill-rule="evenodd" clip-rule="evenodd" d="M61.8498 19.8336V12.109C61.8498 11.3854 62.2367 10.982 62.9443 11.0095H67.749C68.1758 11.0095 68.5225 11.357 68.5225 11.8306C68.5225 12.304 68.1758 12.6374 67.749 12.6374H63.5044V15.0314H67.2548C67.6689 15.0314 68.0022 15.3515 68.0022 15.8108C68.0022 16.2701 67.6689 16.5901 67.2548 16.5901H63.5044V19.3459H67.749C68.1758 19.3459 68.5225 19.6935 68.5225 20.167C68.5225 20.6404 68.1758 20.9738 67.749 20.9738H62.9041C62.2103 20.9747 61.8238 20.5713 61.8498 19.8336Z" fill="#717784"/>
<path fill-rule="evenodd" clip-rule="evenodd" d="M77.6122 21.0164C78.0792 20.7654 78.2263 20.2503 77.9991 19.8469L76.3308 16.7577C77.7057 16.4793 78.5067 15.4215 78.5067 13.9878C78.5067 12.4849 77.5995 11.0095 75.4236 11.0095H72.2608C71.5536 10.982 71.1667 11.3854 71.1667 12.109V20.1262C71.1667 20.5987 71.5134 20.9889 71.9938 20.9889C72.488 20.9889 72.8347 20.5996 72.8347 20.1262L72.8213 17.092H74.5827L76.438 20.6688C76.6641 21.0722 77.1582 21.2531 77.6122 21.0164ZM75.4627 15.5182H72.8202V12.6365H75.4493C76.33 12.6365 76.8242 13.2208 76.8242 14.0703C76.8242 14.9197 76.3572 15.5182 75.4627 15.5182Z" fill="#717784"/>
<path fill-rule="evenodd" clip-rule="evenodd" d="M81.9492 20.2369C80.9485 19.3042 80.4946 17.8429 80.4946 16.0058C80.4946 14.1544 80.9351 12.7074 81.9231 11.7888C82.5368 11.232 83.3639 10.856 84.5656 10.856C85.6199 10.856 86.4343 11.107 87.048 11.6496C87.5821 12.0947 87.969 12.7216 88.1958 13.5985C88.3157 14.0578 88.0088 14.5171 87.502 14.6146C87.0216 14.698 86.635 14.3779 86.488 13.9186C86.3278 13.4735 86.1137 13.1534 85.8605 12.9299C85.5134 12.6099 85.0866 12.4707 84.5254 12.4707C83.9251 12.4707 83.4041 12.6515 83.0172 13.0549C82.4567 13.6393 82.2162 14.6838 82.2162 16.0058C82.2162 17.3145 82.4433 18.3581 83.0306 18.9424C83.4175 19.3458 83.9251 19.5267 84.512 19.5267C85.1257 19.5267 85.5927 19.36 85.9804 18.9841C86.18 18.789 86.3543 18.539 86.4742 18.2464C86.6477 17.8146 87.0082 17.4945 87.4748 17.6062C87.9418 17.7179 88.236 18.1905 88.0889 18.6498C87.8483 19.415 87.435 20.0277 86.8745 20.4453C86.2608 20.9046 85.5 21.1413 84.5392 21.1413C83.3114 21.1413 82.5368 20.7654 81.9492 20.2369Z" fill="#717784"/>
<path fill-rule="evenodd" clip-rule="evenodd" d="M94.2016 10.856C91.3051 10.856 90.0773 12.8883 90.0773 16.0058C90.0773 19.2208 91.2925 21.1555 94.2016 21.1555C97.0576 21.1555 98.3125 19.2208 98.3125 16.0058C98.3125 12.8324 97.0713 10.856 94.2016 10.856ZM94.1882 12.4848C95.7765 12.4848 96.6036 13.6393 96.6036 16.0058C96.6036 18.3714 95.7627 19.5267 94.1882 19.5267C92.5999 19.5267 91.7989 18.3723 91.7989 16.0058C91.7989 13.6402 92.6264 12.4848 94.1882 12.4848Z" fill="#717784"/>
<path fill-rule="evenodd" clip-rule="evenodd" d="M111.259 20.1119C111.259 20.5854 110.911 20.9746 110.418 20.9746C109.937 20.9746 109.59 20.5845 109.59 20.1119V16.3817L109.63 12.749L108.469 16.4375L107.295 20.0702C107.095 20.7104 106.681 20.9613 106.16 20.9613C105.613 20.9613 105.213 20.6971 104.999 20.0569L103.798 16.4384L102.69 12.8058L102.73 16.3826V20.1127C102.73 20.5863 102.383 20.9755 101.889 20.9755C101.409 20.9755 101.062 20.5854 101.062 20.1127V12.6666C101.062 11.6363 101.596 11.0378 102.53 11.0378C103.411 11.0378 103.905 11.5245 104.184 12.4156L105.412 16.215L106.16 18.804L106.92 16.215L108.148 12.4156C108.429 11.5245 108.909 11.0378 109.79 11.0378C110.725 11.0378 111.245 11.6221 111.245 12.6666L111.259 20.1119Z" fill="#717784"/>
<path d="M24.2225 17.4279C24.2225 17.6768 24.1271 17.9156 23.9574 18.0917C23.7876 18.2677 23.5574 18.3666 23.3173 18.3666C23.0772 18.3666 22.8469 18.2677 22.6772 18.0917C22.5074 17.9156 22.412 17.6768 22.412 17.4279V9.04115C22.412 8.79216 22.5074 8.55338 22.6772 8.37734C22.8469 8.20127 23.0772 8.10237 23.3173 8.10237C23.5574 8.10237 23.7876 8.20127 23.9574 8.37734C24.1271 8.55338 24.2225 8.79216 24.2225 9.04115V17.4279ZM23.9083 23.2388C23.7886 23.363 20.422 26.2723 14.2499 26.2723C8.07774 26.2723 4.7336 23.3785 4.59146 23.2543C4.50186 23.176 4.42809 23.0801 4.37431 22.9722C4.32054 22.8642 4.28788 22.7463 4.27812 22.6252C4.2684 22.5041 4.28181 22.3822 4.31759 22.2665C4.35338 22.1508 4.41084 22.0436 4.4867 21.9509C4.64296 21.7635 4.86431 21.6477 5.10257 21.6288C5.34083 21.6099 5.57664 21.6894 5.75851 21.8501C5.81091 21.8889 8.8184 24.4181 14.2424 24.4181C19.6664 24.4181 22.6963 21.8734 22.7262 21.8501C22.9102 21.6909 23.1468 21.6124 23.3856 21.6312C23.6245 21.65 23.8469 21.7647 24.0055 21.9509C24.1582 22.1356 24.2344 22.3753 24.2175 22.6179C24.2008 22.8605 24.0923 23.0864 23.9158 23.2466L23.9083 23.2388ZM4.26974 9.04115C4.28326 8.79138 4.39159 8.55733 4.57105 8.39012C4.75047 8.22295 4.98646 8.13622 5.22736 8.14891C5.45069 8.16206 5.66143 8.26052 5.81892 8.42527C5.97641 8.59002 6.0695 8.8094 6.08023 9.04115V17.4123C6.08023 17.6613 5.98486 17.9001 5.81508 18.0761C5.64534 18.2522 5.41509 18.3511 5.175 18.3511C4.93492 18.3511 4.70466 18.2522 4.53489 18.0761C4.36511 17.9001 4.26974 17.6613 4.26974 17.4123V9.04115ZM8.81091 7.17915C8.82447 6.92938 8.93276 6.69533 9.11222 6.52813C9.29164 6.36096 9.52763 6.27422 9.76854 6.28692C9.99186 6.30007 10.2026 6.39853 10.3601 6.56328C10.5176 6.72803 10.6107 6.94741 10.6214 7.17915V19.5924C10.6214 19.8414 10.526 20.0802 10.3563 20.2562C10.1865 20.4323 9.95626 20.5312 9.71618 20.5312C9.47609 20.5312 9.24584 20.4323 9.07606 20.2562C8.90628 20.0802 8.81091 19.8414 8.81091 19.5924V7.17915ZM13.3745 6.71365C13.3745 6.46467 13.4699 6.22589 13.6397 6.04985C13.8095 5.87378 14.0397 5.77487 14.2798 5.77487C14.5199 5.77487 14.7501 5.87378 14.9199 6.04985C15.0897 6.22589 15.185 6.46467 15.185 6.71365V20.2131C15.185 20.462 15.0897 20.7008 14.9199 20.8769C14.7501 21.0529 14.5199 21.1518 14.2798 21.1518C14.0397 21.1518 13.8095 21.0529 13.6397 20.8769C13.4699 20.7008 13.3745 20.462 13.3745 20.2131V6.71365ZM17.8634 7.17915C17.8634 6.93017 17.9587 6.69138 18.1285 6.51535C18.2983 6.33928 18.5285 6.24037 18.7686 6.24037C19.0087 6.24037 19.239 6.33928 19.4087 6.51535C19.5785 6.69138 19.6738 6.93017 19.6738 7.17915V19.5924C19.6738 19.8414 19.5785 20.0802 19.4087 20.2562C19.239 20.4323 19.0087 20.5312 18.7686 20.5312C18.5285 20.5312 18.2983 20.4323 18.1285 20.2562C17.9587 20.0802 17.8634 19.8414 17.8634 19.5924V7.17915ZM24.4694 2.05867H4.06027C3.61555 2.05558 3.17463 2.14351 2.76276 2.31742C2.35085 2.49129 1.9761 2.74772 1.6599 3.07201C1.3437 3.39633 1.09229 3.7821 0.920094 4.2073C0.74786 4.63247 0.658224 5.08873 0.65625 5.54991V26.4973C0.658224 26.9585 0.74786 27.4147 0.920094 27.8399C1.09229 28.2651 1.3437 28.6509 1.6599 28.9752C1.9761 29.2995 2.35085 29.5559 2.76276 29.7298C3.17463 29.9037 3.61555 29.9915 4.06027 29.9885H24.4694C24.9135 29.9915 25.3538 29.904 25.7652 29.7305C26.1766 29.5571 26.551 29.3014 26.8671 28.9779C27.1832 28.6544 27.4348 28.2696 27.6075 27.8453C27.7801 27.421 27.8705 26.9656 27.8734 26.5051V5.54991C27.8714 5.08936 27.782 4.63377 27.6103 4.20909C27.4385 3.7844 27.1878 3.39897 26.8724 3.07476C26.557 2.75059 26.1831 2.49401 25.7721 2.31965C25.3611 2.14529 24.921 2.05662 24.4769 2.05867" fill="#717784"/>
</g>
<defs>
<clipPath id="clip0_8145_9601">
<rect width="111.2" height="32" fill="currentColor" transform="translate(0.400391)"/>
</clipPath>
</defs>
</svg>
