<svg width="68" height="32" viewBox="0 0 68 32" fill="none" xmlns="http://www.w3.org/2000/svg">
<path fill-rule="evenodd" clip-rule="evenodd" d="M62.5395 21.001L64.689 7.32613C64.7219 7.11401 64.9057 6.9578 65.1193 6.95703H67.5391C67.8064 6.95703 68.0116 7.19671 67.9695 7.46167L65.8499 20.89C65.7947 21.2445 65.49 21.5049 65.1308 21.5049H62.9699C62.7026 21.5049 62.4974 21.266 62.5395 21.001ZM46.0788 6.95784H40.841C40.4834 6.95784 40.1786 7.2182 40.1227 7.57198L38.0047 21.0011C37.9625 21.266 38.1678 21.5049 38.435 21.5049H41.1228C41.3725 21.5049 41.5861 21.3227 41.6252 21.0746L42.2263 17.268C42.2814 16.9135 42.5869 16.6531 42.9446 16.6531H44.6017C48.0522 16.6531 50.0424 14.9837 50.5631 11.6757C50.7982 10.2284 50.5723 9.09124 49.8946 8.29486C49.151 7.42036 47.8316 6.95784 46.0788 6.95784ZM46.683 11.8625C46.3974 13.7417 44.9616 13.7417 43.5725 13.7417H42.783L43.3382 10.2322C43.3711 10.0201 43.5533 9.86389 43.7685 9.86389H44.1307C45.0757 9.86389 45.9685 9.86389 46.4295 10.403C46.7044 10.7246 46.7879 11.2024 46.683 11.8625ZM61.7325 11.802H59.2261C59.011 11.802 58.8279 11.9582 58.7958 12.1703L58.6847 12.8718L58.5086 12.6176C57.9657 11.8296 56.7558 11.5662 55.5474 11.5662C52.7762 11.5662 50.41 13.6651 49.949 16.6094C49.7101 18.0782 50.0493 19.4826 50.8824 20.462C51.6482 21.3625 52.7402 21.7377 54.0412 21.7377C56.2741 21.7377 57.5124 20.3019 57.5124 20.3019L57.4006 20.9988C57.3585 21.2653 57.5637 21.5042 57.8325 21.5042H60.0907C60.4483 21.5042 60.7531 21.2438 60.809 20.8893L62.1651 12.3059C62.2065 12.0417 62.0012 11.802 61.7325 11.802ZM58.2368 16.683C57.9963 18.1157 56.8576 19.0775 55.4073 19.0775C54.6806 19.0775 54.0971 18.8439 53.7234 18.4013C53.3528 17.9618 53.2134 17.3362 53.3298 16.6393C53.5572 15.2188 54.712 14.2256 56.1401 14.2256C56.8523 14.2256 57.4312 14.4623 57.8125 14.9087C58.1962 15.3597 58.3478 15.9892 58.2368 16.683ZM8.72417 6.95784H3.48716C3.12879 6.95784 2.82401 7.2182 2.76811 7.57198L0.650029 21.0011C0.607912 21.266 0.813135 21.5049 1.08192 21.5049H3.58211C3.94049 21.5049 4.24526 21.2446 4.30116 20.89L4.87241 17.268C4.92755 16.9135 5.23309 16.6531 5.59069 16.6531H7.24856C10.6983 16.6531 12.6893 14.9837 13.2092 11.6757C13.4435 10.2284 13.2192 9.09124 12.5415 8.29486C11.7972 7.42036 10.477 6.95784 8.72417 6.95784ZM9.32836 11.8625C9.04196 13.7417 7.60617 13.7417 6.21785 13.7417H5.42759L5.982 10.2322C6.01493 10.0201 6.19871 9.86389 6.41312 9.86389H6.77532C7.72103 9.86389 8.61314 9.86389 9.07412 10.403C9.34903 10.7246 9.43326 11.2024 9.32836 11.8625ZM24.3787 11.802H21.8708C21.6572 11.802 21.4726 11.9582 21.4397 12.1703L21.3287 12.8718L21.1533 12.6176C20.6104 11.8296 19.3997 11.5662 18.1914 11.5662C15.4201 11.5662 13.0531 13.6651 12.5921 16.6094C12.3525 18.0782 12.6932 19.4826 13.5264 20.462C14.2906 21.3625 15.3841 21.7377 16.6851 21.7377C18.9181 21.7377 20.1563 20.3019 20.1563 20.3019L20.0445 20.9988C20.0024 21.2653 20.2076 21.5042 20.4748 21.5042H22.7338C23.093 21.5042 23.3962 21.2438 23.4529 20.8893L24.8083 12.3059C24.8511 12.0417 24.6467 11.802 24.3787 11.802ZM20.883 16.683C20.641 18.1157 19.5039 19.0775 18.0535 19.0775C17.3253 19.0775 16.7433 18.8439 16.3696 18.4013C15.999 17.9618 15.8581 17.3362 15.976 16.6393C16.2019 15.2188 17.3582 14.2256 18.7864 14.2256C19.4985 14.2256 20.0774 14.4623 20.4588 14.9087C20.8409 15.3597 20.9925 15.9892 20.883 16.683ZM35.2149 11.802H37.735C38.088 11.802 38.294 12.1979 38.0934 12.4873L29.7114 24.5863C29.5758 24.7823 29.3522 24.8987 29.1133 24.8987H26.5963C26.2417 24.8987 26.035 24.4998 26.2402 24.2096L28.8499 20.5255L26.074 12.3794C25.9783 12.096 26.1874 11.802 26.4883 11.802H28.9648C29.2864 11.802 29.5705 12.0133 29.6631 12.3212L31.1365 17.2412L34.6122 12.1213C34.7485 11.9214 34.9744 11.802 35.2149 11.802Z" fill="currentColor"/>
</svg>
