<svg width="87" height="32" viewBox="0 0 87 32" fill="none" xmlns="http://www.w3.org/2000/svg">
<g clip-path="url(#clip0_8115_124207)">
<path fill-rule="evenodd" clip-rule="evenodd" d="M-2.03711 4.05469H7.69515L-2.03711 27.3297V4.05469ZM24.2623 4.05469H14.5428L24.2623 27.3297V4.05469ZM11.119 12.633L17.3134 27.3297H13.2494L11.398 22.6506H6.86473L11.119 12.633ZM41.2871 22.1467L40.1396 18.8561H35.4288L34.3446 22.1086C34.3002 22.2291 34.2431 22.2672 34.1227 22.2672H32.1509C32.0368 22.2672 31.9924 22.2101 32.0114 22.0706L36.0755 10.5124C36.1579 10.3158 36.215 10.1129 36.253 9.4472C36.253 9.36478 36.2974 9.30772 36.3735 9.30772H39.1124C39.2139 9.30772 39.2329 9.32674 39.2519 9.42818L43.8106 22.0896C43.8296 22.2101 43.8106 22.2672 43.6901 22.2672H41.4837C41.3822 22.2672 41.3252 22.2291 41.2871 22.1467ZM36.3029 15.9647C36.2184 16.2187 36.1357 16.4672 36.0565 16.7068H39.5119C39.3883 16.3211 39.2206 15.8106 39.0353 15.2469L39.0351 15.2462C38.593 13.9009 38.0516 12.2534 37.7747 11.2795H37.7556C37.4808 12.4228 36.8534 14.3095 36.3029 15.9645L36.3029 15.9647ZM49.6711 22.4637C50.8567 22.4637 52.1184 22.2481 53.3992 21.6965C53.5006 21.6585 53.5196 21.6141 53.5196 21.519C53.4816 21.1639 53.4372 20.6504 53.4372 20.2573V8.33764C53.4372 8.26156 53.4372 8.22352 53.3421 8.22352H51.1928C51.1103 8.22352 51.0723 8.26156 51.0723 8.36301V12.4017C50.7363 12.3637 50.5017 12.3447 50.2227 12.3447C46.7546 12.3447 44.6243 14.6335 44.6243 17.4929C44.6243 20.8089 46.8116 22.4637 49.6711 22.4637ZM51.0723 20.2573C50.7172 20.3714 50.3241 20.4158 49.9247 20.4158C48.3523 20.4158 47.0653 19.5282 47.0653 17.3725C47.0653 15.4641 48.3904 14.3355 50.1466 14.3355C50.5017 14.3355 50.8123 14.3735 51.0723 14.475V20.2573ZM55.5831 17.4169C55.5831 14.6145 57.4155 12.3447 60.3763 12.3447C63.4133 12.3447 65.0681 14.6525 65.0681 17.3535C65.0681 20.4158 63.1153 22.4637 60.332 22.4637C57.0414 22.4637 55.5831 19.9213 55.5831 17.4169ZM62.6398 17.4169C62.6398 15.7748 61.9297 14.3355 60.2559 14.3355C58.9308 14.3355 57.9861 15.5021 57.9861 17.3725C57.9861 19.1922 58.8737 20.4539 60.3763 20.4539C61.5937 20.4539 62.6398 19.4458 62.6398 17.4169ZM67.2903 8.22352C67.2079 8.22352 67.1508 8.26156 67.1508 8.36301V21.855C67.1508 21.9121 67.2079 22.0135 67.2903 22.0325C68.235 22.3242 69.2241 22.4637 70.2448 22.4637C73.1677 22.4637 76.0081 20.6504 76.0081 16.9984C76.0081 14.3545 74.1948 12.3447 71.3544 12.3447C70.7013 12.3447 70.0927 12.4461 69.5601 12.6236L69.5347 8.38202C69.5347 8.24254 69.4967 8.22352 69.3572 8.22352H67.2903ZM73.5798 17.2393C73.5798 19.4267 72.0835 20.4538 70.4668 20.4538C70.1307 20.4538 69.8327 20.4348 69.5601 20.3524V14.5955C69.8708 14.475 70.2448 14.3735 70.9359 14.3735C72.4956 14.3735 73.5798 15.3626 73.5798 17.2393ZM86.0582 17.867C85.7856 17.9304 84.993 17.9495 84.0293 17.9495H80.0223C80.0794 19.3253 80.9924 20.4348 83.0022 20.4348C83.8899 20.4348 84.7014 20.2763 85.4495 19.9593C85.5066 19.9213 85.5637 19.9403 85.5637 20.0354V21.6775C85.5637 21.7917 85.5256 21.855 85.4495 21.8931C84.7014 22.2481 83.8328 22.4637 82.4887 22.4637C78.9001 22.4637 77.6194 19.9403 77.6194 17.512C77.6194 14.773 79.2742 12.3447 82.2541 12.3447C85.1706 12.3447 86.2991 14.6335 86.2991 16.5102C86.2991 17.0618 86.2738 17.512 86.2167 17.7276C86.1977 17.81 86.1596 17.848 86.0582 17.867ZM82.1526 14.2404C80.7895 14.2404 80.1808 15.2866 80.0223 16.2503H82.9642H82.9643C83.7124 16.2503 83.9659 16.2503 84.0484 16.2313V16.0728C84.0484 15.5021 83.6553 14.2404 82.1526 14.2404Z" fill="white"/>
</g>
<defs>
<clipPath id="clip0_8115_124207">
<rect width="88.8" height="32" fill="white" transform="translate(-2.40039)"/>
</clipPath>
</defs>
</svg>
