<svg width="92" height="32" viewBox="0 0 92 32" fill="none" xmlns="http://www.w3.org/2000/svg">
<path d="M1.29688 1.39453H20.6767V11.0845H10.9868L1.29688 1.39453ZM1.29688 11.0845H10.9868L20.6767 20.7744H1.29688V11.0845ZM1.29688 20.7744H10.9868V30.4643L1.29688 20.7744Z" fill="currentColor"/>
<path d="M31.6115 9.03895H39.4452V11.5283H34.5765V14.9876H39.4452V17.4219H34.5765V21.8513H31.6115V9.03895ZM41.0559 13.0289H43.8564V14.8776C44.0027 14.2424 44.3019 13.7547 44.7533 13.4133C45.2161 13.0591 45.7299 12.8826 46.2907 12.8826C46.5838 12.8826 46.8281 12.9075 47.0227 12.9558V15.5551C46.7434 15.5214 46.4623 15.5032 46.1808 15.5001C45.412 15.5001 44.833 15.7497 44.442 16.2502C44.0523 16.7383 43.8564 17.4703 43.8564 18.4469V21.8513H41.0572V13.0289H41.0559ZM51.4436 22.0894C50.5897 22.0894 49.8449 21.8876 49.2105 21.4851C48.5881 21.0825 48.0933 20.5111 47.783 19.8377C47.4536 19.1305 47.2878 18.3303 47.2878 17.4401C47.2878 16.5614 47.4598 15.7679 47.8012 15.0607C48.1213 14.3776 48.6293 13.7999 49.2655 13.3951C49.9114 12.9926 50.65 12.7909 51.4804 12.7909C52.1024 12.7909 52.6583 12.9257 53.146 13.1939C53.6337 13.463 53.9999 13.8292 54.2441 14.292V13.0289H57.026V21.8513H54.2441V20.6064C53.9999 21.0457 53.6217 21.4053 53.1092 21.6864C52.5967 21.9581 52.0239 22.0964 51.4436 22.0894ZM52.2491 19.7645C52.9199 19.7645 53.4386 19.5451 53.8048 19.1057C54.171 18.6664 54.3541 18.1109 54.3541 17.4401C54.3541 16.7813 54.171 16.232 53.8048 15.7927C53.4386 15.3533 52.9199 15.1339 52.2491 15.1339C51.6138 15.1339 51.1022 15.3471 50.7116 15.7745C50.3335 16.2019 50.1442 16.7565 50.1442 17.4401C50.1442 18.1237 50.3335 18.6846 50.7116 19.1239C51.1022 19.5513 51.6147 19.7645 52.2491 19.7645ZM58.9847 13.0289H61.7852V14.3102C61.9812 13.858 62.2977 13.4918 62.7366 13.212C63.1888 12.9323 63.7133 12.7909 64.3109 12.7909C65.7021 12.7909 66.6238 13.3335 67.0746 14.4201C67.3229 13.9276 67.7113 13.5202 68.1914 13.2488C68.7048 12.9398 69.2944 12.7816 69.8933 12.7909C71.9801 12.7909 73.0233 13.9861 73.0233 16.3783V21.8513H70.2046V16.8908C70.2046 16.2937 70.0946 15.8543 69.8752 15.5732C69.6553 15.2931 69.3259 15.1521 68.8865 15.1521C68.4108 15.1521 68.0446 15.317 67.7884 15.6464C67.5322 15.9638 67.404 16.5184 67.404 17.312V21.8513H64.5853V16.8726C64.5853 16.275 64.4758 15.8415 64.2559 15.5732C64.0493 15.2931 63.7253 15.1521 63.2868 15.1521C62.7982 15.1521 62.4258 15.317 62.1696 15.6464C61.9133 15.9638 61.7852 16.5184 61.7852 17.312V21.8513H58.9856V13.0289H58.9847ZM83.5436 16.9826C83.5436 17.3603 83.5188 17.7695 83.4691 18.2089H76.9543C76.9791 18.7825 77.1738 19.221 77.54 19.5269C77.9062 19.8315 78.4014 19.9844 79.0225 19.9844C79.8892 19.9844 80.4385 19.7215 80.6699 19.197H83.4155C83.2807 20.0638 82.805 20.7647 81.9875 21.302C81.1824 21.8265 80.1937 22.0894 79.0225 22.0894C77.5098 22.0894 76.3199 21.6802 75.4532 20.8626C74.5993 20.0447 74.172 18.9044 74.172 17.4401C74.172 16.4883 74.367 15.6646 74.7576 14.969C75.1349 14.2743 75.7165 13.7121 76.4232 13.3583C77.1436 12.9806 77.9793 12.7909 78.932 12.7909C79.8342 12.7909 80.6331 12.9678 81.3287 13.322C82.0362 13.6762 82.5798 14.1701 82.9575 14.8045C83.3485 15.4398 83.5436 16.1655 83.5436 16.9826ZM80.7785 16.4701C80.7665 15.8845 80.6021 15.4385 80.2842 15.1339C79.9677 14.8293 79.5092 14.6764 78.9116 14.6764C78.314 14.6764 77.8383 14.8409 77.4841 15.1707C77.1427 15.4881 76.9658 15.9208 76.953 16.4701H80.7785ZM84.7783 13.0289H87.5788V14.8776C87.7251 14.2424 88.0243 13.7547 88.4757 13.4133C88.9137 13.0684 89.4554 12.8813 90.0131 12.8826C90.3057 12.8826 90.5505 12.9075 90.7451 12.9558V15.5551C90.4658 15.5214 90.1847 15.5032 89.9032 15.5001C89.1344 15.5001 88.5555 15.7497 88.1644 16.2502C87.7734 16.7383 87.5788 17.4703 87.5788 18.4469V21.8513H84.7783V13.0289Z" fill="currentColor"/>
</svg>
