<svg width="110" height="32" viewBox="0 0 110 32" fill="none" xmlns="http://www.w3.org/2000/svg">
<g clip-path="url(#clip0_8115_124209)">
<path fill-rule="evenodd" clip-rule="evenodd" d="M6.79773 10.3074C7.03585 10.0495 7.05569 9.65261 7.05569 9.41449V6.77541C7.05569 6.04123 7.05569 5.60469 7.09537 5.30705C7.11522 5.1483 7.19459 4.94988 7.23427 4.85066C7.25412 4.81098 7.23427 4.81098 7.21443 4.83082L1.42035 10.7241C1.40051 10.744 1.40051 10.7638 1.44019 10.744C1.53941 10.7043 1.73784 10.6249 1.89658 10.6051C2.19422 10.5654 2.63076 10.5654 3.36494 10.5654H5.90481C6.14292 10.5654 6.53978 10.5455 6.79773 10.3074ZM11.2822 25.8641C11.4211 26.2213 11.7783 26.7967 12.4529 27.2333C12.9887 27.6103 13.8022 27.9675 14.8936 27.9675C14.8936 27.9675 19.9733 28.2651 20.8265 22.1535C20.8861 22.1535 21.6203 15.8832 20.4099 9.41449C19.939 6.93353 17.6502 6.56804 16.4243 6.37228C16.3069 6.35354 16.1993 6.33636 16.104 6.31903C14.9531 6.1206 12.6712 5.72374 12.6712 5.72374C12.6712 5.72374 12.4132 4.49349 11.2028 4.19585C11.1606 4.18531 11.1216 4.17539 11.085 4.16609C10.9149 4.12289 10.7977 4.09312 10.6671 4.07679C10.4488 4.05695 10.2107 4.03711 10.0123 4.03711H9.53603C8.56374 4.03711 7.90893 4.65223 7.80971 5.38642V5.50547V9.57324C7.80971 10.109 7.73034 10.5654 7.39302 10.8829C7.13506 11.121 6.7382 11.2996 6.04371 11.2996H2.11485H1.99579C1.24177 11.3988 0.646484 12.0536 0.646484 13.0259C0.647425 13.0372 0.648366 13.0485 0.649311 13.0599C0.668298 13.2886 0.688992 13.5379 0.745698 13.8593C0.856305 14.6019 1.02982 15.3823 1.15604 15.95C1.18833 16.0952 1.21752 16.2264 1.24177 16.3396C1.75768 18.6215 2.74981 19.4351 2.74981 19.4351C4.21818 20.9431 6.34135 21.5781 8.34547 21.459C8.40499 21.459 8.60342 21.4392 8.78201 21.3995C8.96059 21.3598 9.11933 21.3003 9.23839 21.2408C10.4686 20.4867 11.0838 17.7088 11.0838 17.7088C11.2227 19.5541 13.3062 20.2089 14.1395 20.3082C14.1594 20.3082 14.4372 20.3478 14.7348 20.4074C14.7586 20.4133 14.7825 20.4192 14.8065 20.4252C15.0234 20.479 15.2467 20.5343 15.3896 20.6058C16.4611 21.082 17.2747 22.1535 17.2747 23.3639C17.2747 24.7133 16.1833 25.8046 14.834 25.8046C14.3181 25.8046 13.8419 25.6062 13.4847 25.249C13.2863 25.0506 13.1673 24.7728 13.1673 24.4751C13.1673 24.1973 13.326 23.9394 13.5244 23.7806C13.6773 23.6447 13.9756 23.5961 14.1205 23.5725C14.1449 23.5685 14.165 23.5652 14.1792 23.5624C14.2784 23.5425 14.4173 23.5028 14.5166 23.4433C14.7944 23.2846 14.9729 23.0068 14.9729 22.6694C14.9729 22.1734 14.5761 21.7765 14.08 21.7765C12.4132 21.7765 11.0639 23.1258 11.0639 24.7728C11.0639 25.1498 11.1433 25.5268 11.2822 25.8641ZM15.6079 14.9308C15.8063 14.4347 16.3619 14.1768 17.0167 14.2363C17.6716 14.3157 18.1478 14.6927 18.2271 15.2483C18.2271 15.2731 18.2284 15.2991 18.2296 15.3251C18.2334 15.4033 18.2371 15.4814 18.2073 15.5261C18.1676 15.5856 18.1279 15.6054 18.0882 15.6054C17.8303 15.6451 17.4334 15.6054 16.858 15.5459C16.2826 15.4864 15.8857 15.4268 15.6476 15.3078C15.6079 15.2879 15.5682 15.2681 15.5484 15.2086C15.5285 15.149 15.5682 15.03 15.6079 14.9308ZM27.6123 20.7846L26.9377 20.9235L26.9575 21.4791H38.0893L38.3671 16.8161H37.7321C37.2162 18.0662 36.8392 18.8996 36.482 19.4353C35.8272 20.4076 35.5098 20.606 33.9223 20.606C31.9976 20.606 31.9381 20.4076 31.9381 18.6416V14.8318H32.4738C33.9223 14.8318 34.1803 14.931 34.4184 15.4271C34.6962 16.0025 34.8549 16.3994 35.0335 17.0145H35.6288V11.8951H35.0335C34.8549 12.53 34.6962 12.9071 34.4184 13.4031C34.1803 13.8397 33.8628 13.9984 32.4738 13.9984H31.9381V8.9385C32.2357 8.85913 32.7318 8.74007 33.7437 8.74007C35.1129 8.74007 35.5296 8.81945 36.1646 9.73221C36.4622 10.1688 36.7797 10.7442 37.2758 11.8355H37.8909L37.6925 7.88684H26.9377V8.44243L27.6123 8.58133C28.1878 8.72023 28.3664 8.81945 28.3664 10.01V19.3559C28.3664 20.5465 28.2076 20.6259 27.6123 20.7846ZM38.8632 11.9348C39.3592 12.0935 39.5775 12.3713 40.0339 13.4825L43.2683 21.4791H44.9351L47.971 13.7008C48.4472 12.411 48.6655 12.1133 49.1814 11.9348L49.5584 11.8157V11.2998H45.9272V11.8157L46.4629 11.9546C46.8796 12.0538 47.0781 12.2721 47.0781 12.7086C47.0781 12.9864 46.9987 13.3237 46.8201 13.8L45.2327 18.3241H45.1335L43.4865 13.8C43.3278 13.3634 43.2286 13.0261 43.2286 12.7483C43.2286 12.2721 43.427 12.0737 43.8437 11.9546L44.3795 11.8157V11.2998H38.4862V11.8157L38.8632 11.9348ZM54.2215 11.0418C51.6221 11.0418 49.102 12.9269 49.102 16.3398C49.102 19.6734 50.7887 21.6974 54.2016 21.7371C56.166 21.7371 57.6543 20.7052 58.3487 19.9512V19.2964C57.6146 19.6734 56.682 20.0306 55.4715 20.0306C53.4476 20.0306 52.2372 19.1575 52.1777 15.943H58.6662C58.6067 12.3911 56.9201 11.0418 54.2215 11.0418ZM55.5311 15.0104L52.1777 15.189C52.257 12.7285 53.0507 11.776 54.0429 11.776C55.2136 11.776 55.5311 12.6491 55.5311 15.0104ZM66.8216 10.9823C65.512 10.9823 64.3809 11.9546 63.8253 12.5499L63.7658 12.53L63.8055 11.1807L63.5872 11.022L59.4599 11.4982V11.8951L60.1148 12.3316L60.1301 12.342C60.6722 12.7098 60.7696 12.7759 60.7696 13.6015V19.6933C60.7696 20.5267 60.6902 20.6259 60.0354 20.8045L59.5195 20.9434V21.4791H65.1746V20.9434L64.5198 20.8045C63.9246 20.7052 63.8452 20.606 63.8452 19.6933V13.3436C64.1031 13.1055 64.5198 12.8475 64.877 12.8475C65.0556 12.8475 65.3136 12.9071 65.4326 13.1253C65.6509 13.6611 66.2065 14.0381 66.8216 14.0381C67.6748 14.0381 68.3495 13.3634 68.3495 12.5102C68.3495 11.657 67.655 10.9823 66.8216 10.9823ZM69.4607 20.8045L68.9448 20.9434H68.9845V21.4791H74.4412V20.9434L73.965 20.8243C73.3697 20.6656 73.3102 20.6259 73.3102 19.6933V13.1055L73.3176 13.1038C73.7545 13.0045 74.4451 12.8475 75.1357 12.8475C76.0485 12.8475 76.485 13.2245 76.485 14.4151V19.6734C76.485 20.5862 76.4255 20.6457 75.8302 20.8045L75.354 20.9235V21.4593H80.8107V20.9235L80.2948 20.7846C79.6599 20.6259 79.5805 20.5267 79.5805 19.6734V13.6412C79.5805 11.8752 78.6876 11.022 77.0208 11.022C75.5921 11.022 74.3023 11.6768 73.2705 12.411H73.1911L73.2308 11.1609L73.0125 11.022L68.8852 11.4982V11.8951L69.5401 12.3316L69.5554 12.342C70.0975 12.7098 70.1949 12.7759 70.1949 13.6015V19.6933C70.1949 20.5267 70.1155 20.6259 69.4607 20.8045ZM86.4858 11.0418C83.8467 11.0418 81.1877 12.6491 81.1877 16.3994C81.1877 19.9909 83.6482 21.6974 86.4858 21.6974C89.1844 21.6974 91.8036 20.0504 91.8036 16.3002C91.8036 12.7483 89.3233 11.0418 86.4858 11.0418ZM86.4064 11.7959C87.7557 11.7959 88.5097 12.5499 88.5097 16.4986C88.5097 20.2489 87.6962 20.9434 86.5254 20.9434C85.0968 20.9434 84.4419 20.0703 84.4419 16.062C84.4419 12.6888 85.1761 11.7959 86.4064 11.7959ZM93.4902 12.4507V18.9988C93.4902 20.9235 94.4427 21.6974 96.2087 21.6974C97.8556 21.6974 98.8279 20.983 99.3042 20.5465V19.9909C98.947 20.0703 98.3716 20.1695 97.8953 20.1695C96.923 20.1695 96.6254 19.7726 96.6254 18.8003V12.4507H98.9668L99.2248 11.2998H96.6254V8.68055H95.5142C94.9586 10.2481 93.7879 11.3792 92.26 11.9744V12.4507H93.4902ZM104.82 11.0418C102.221 11.0418 99.701 12.9269 99.701 16.3398C99.701 19.6734 101.388 21.6974 104.82 21.7371C106.785 21.7371 108.273 20.7052 108.968 19.9512V19.2964C108.233 19.6734 107.301 20.0306 106.09 20.0306C104.066 20.0306 102.856 19.1575 102.796 15.943H109.265C109.206 12.3911 107.519 11.0418 104.82 11.0418ZM106.13 15.0104L102.777 15.189C102.856 12.7285 103.65 11.776 104.642 11.776C105.813 11.776 106.13 12.6491 106.13 15.0104Z" fill="white"/>
</g>
<defs>
<clipPath id="clip0_8115_124209">
<rect width="108.8" height="32" fill="white" transform="translate(0.599609)"/>
</clipPath>
</defs>
</svg>
