<svg width="74" height="32" viewBox="0 0 74 32" fill="none" xmlns="http://www.w3.org/2000/svg">
<g clip-path="url(#clip0_8115_124213)">
<path fill-rule="evenodd" clip-rule="evenodd" d="M7.18198 12.159L7.18188 12.0393V11.5512C5.55257 11.5512 3.83134 11.8999 3.83134 13.8208C3.83134 14.794 4.33534 15.4533 5.20072 15.4533C5.83469 15.4533 6.40209 15.0634 6.76029 14.4294C7.18375 13.6853 7.18294 12.9845 7.18198 12.159ZM8.92214 17.5866C9.09014 17.6754 9.30569 17.6659 9.45467 17.5327L9.46101 17.5391C9.91113 17.1397 10.729 16.4264 11.1886 16.0429C11.3724 15.8907 11.3407 15.6466 11.1949 15.4438C11.1508 15.3826 11.1063 15.3227 11.0621 15.2631C10.6941 14.7672 10.3454 14.2972 10.3454 13.3548V9.84263C10.3454 9.72265 10.3461 9.60345 10.3468 9.48516C10.3545 8.13767 10.3615 6.90712 9.35324 5.96588C8.48786 5.13538 7.05509 4.84375 5.95831 4.84375C3.81548 4.84375 1.42224 5.64256 0.918229 8.29256C0.867511 8.57468 1.07038 8.72367 1.25424 8.76487L3.44144 8.99944C3.64431 8.98993 3.7933 8.79023 3.83134 8.58736C4.01836 7.67444 4.78547 7.23383 5.6445 7.23383C6.1073 7.23383 6.63349 7.405 6.90927 7.82025C7.19089 8.23556 7.1866 8.78871 7.18276 9.285V9.28502V9.28504C7.18232 9.34178 7.18188 9.39777 7.18188 9.45273V9.74436C6.97088 9.76843 6.74937 9.7911 6.52109 9.81445C5.33647 9.93566 3.96965 10.0755 2.94377 10.5273C1.53318 11.1359 0.541016 12.3817 0.541016 14.2107C0.541016 16.5532 2.01817 17.7229 3.91375 17.7229C5.5177 17.7229 6.39258 17.3457 7.62883 16.0841C7.69406 16.1779 7.7523 16.2641 7.80709 16.3452C8.09847 16.7765 8.29246 17.0637 8.92214 17.5866ZM36.7283 12.0393L36.7284 12.159V12.1591C36.7293 12.9846 36.7301 13.6853 36.3067 14.4294C35.9485 15.0634 35.3779 15.4533 34.7471 15.4533C33.8817 15.4533 33.3746 14.794 33.3746 13.8208C33.3746 11.8999 35.0958 11.5512 36.7283 11.5512V12.0393ZM39.0011 17.5327C38.8521 17.6659 38.6365 17.6754 38.4685 17.5866C37.8319 17.0579 37.6383 16.7702 37.3427 16.3308C37.291 16.2539 37.2361 16.1724 37.1752 16.0841C35.939 17.3457 35.0609 17.7229 33.4601 17.7229C31.5614 17.7229 30.0874 16.5532 30.0874 14.2107C30.0874 12.3817 31.0764 11.1359 32.4902 10.5273C33.516 10.0755 34.8829 9.93566 36.0675 9.81446C36.2958 9.7911 36.5173 9.76844 36.7283 9.74437V9.45274C36.7283 9.39819 36.7287 9.34263 36.7291 9.28634C36.733 8.78971 36.7372 8.23594 36.4525 7.82026C36.1799 7.405 35.6537 7.23383 35.1877 7.23383C34.3287 7.23383 33.5648 7.67444 33.3777 8.58736C33.3397 8.79024 33.1907 8.98994 32.9847 8.99945L30.8006 8.76487C30.6168 8.72367 30.4107 8.57468 30.4646 8.29257C30.9655 5.64256 33.3619 4.84375 35.5047 4.84375C36.6015 4.84375 38.0343 5.13538 38.8996 5.96588C39.9079 6.90712 39.9009 8.13768 39.8932 9.48517L39.8932 9.48644C39.8925 9.60432 39.8918 9.72308 39.8918 9.84263V13.3548C39.8918 14.2973 40.2405 14.7672 40.6085 15.2631C40.6527 15.3227 40.6972 15.3826 40.7413 15.4438C40.884 15.6467 40.9157 15.8907 40.7318 16.0429C40.2722 16.4264 39.4544 17.1397 39.0042 17.5391L39.0011 17.5327ZM13.3568 17.5644H15.6106C15.8515 17.5644 16.0449 17.3774 16.0449 17.146V11.0155L16.0447 10.8696C16.0425 9.54734 16.0396 7.82662 17.6013 7.82662C19.0387 7.82662 19.0141 9.35757 18.9942 10.6041C18.9919 10.7458 18.9897 10.8838 18.9897 11.0155L18.9928 17.146C18.9928 17.3679 19.1704 17.5486 19.3986 17.5644H21.6492C21.8901 17.5644 22.0835 17.3774 22.0835 17.146V11.0155C22.0835 10.9643 22.0833 10.9112 22.0832 10.8564C22.0815 10.2094 22.0793 9.33751 22.2927 8.79977C22.5241 8.21651 23.0946 7.85197 23.6399 7.85197C24.2929 7.85197 24.7969 8.0707 24.9649 8.84731C25.0516 9.21983 25.0398 10.0812 25.0319 10.6576L25.0319 10.658C25.03 10.7976 25.0283 10.9204 25.0283 11.0155V17.146C25.0283 17.3679 25.2089 17.5486 25.434 17.5644H27.6846C27.9255 17.5644 28.1189 17.3774 28.1189 17.146L28.1221 9.84582C28.1221 9.66782 28.1251 9.48622 28.1281 9.30284L28.1281 9.30256C28.1462 8.20921 28.1654 7.05281 27.5546 6.21949C26.9238 5.34461 25.8905 4.95472 24.9458 4.95472C23.6177 4.95472 22.3783 5.63624 21.833 7.09755C21.1991 5.63624 20.3178 4.95472 18.9073 4.95472C17.5188 4.95472 16.4886 5.63624 15.9403 7.09755H15.899V5.58552C15.8832 5.37631 15.7089 5.2083 15.4901 5.1988H13.3885C13.1476 5.1988 12.9542 5.38265 12.9542 5.61405V17.1809C12.9701 17.3869 13.1413 17.5486 13.3568 17.5644ZM42.6337 5.5855V7.24017C42.6337 7.48742 42.8239 7.65542 43.0617 7.65542H46.9321L42.4847 14.0332C42.2153 14.4421 42.2121 14.9017 42.2121 15.1712V16.848C42.2121 17.0889 42.4816 17.3679 42.7383 17.2284C45.2584 15.8907 48.2856 16.0207 50.5647 17.2157C50.8437 17.3616 51.1099 17.0794 51.1099 16.8385V15.0729C51.0878 14.8352 51.0085 14.5943 50.7169 14.4294C49.4236 13.7004 47.9179 13.488 46.4914 13.5228L50.3302 8.04214C50.6852 7.55082 50.8849 7.24017 50.8881 7.00243V5.5855C50.8881 5.33825 50.6979 5.16708 50.4601 5.16708H43.0521C42.8239 5.16708 42.6337 5.33508 42.6337 5.5855ZM57.2657 4.95472C60.6099 4.95472 62.4199 7.82662 62.4199 11.4783C62.4199 15.0064 60.4198 17.8054 57.2657 17.8054C53.9818 17.8054 52.194 14.9335 52.194 11.3547C52.194 7.75371 54.0039 4.95472 57.2657 4.95472ZM57.2848 7.31627C55.6237 7.31627 55.5191 9.57955 55.5191 10.9901L55.5191 11.0421C55.5189 12.4764 55.5183 15.4216 57.2657 15.4216C59.0123 15.4216 59.0948 12.9872 59.0948 11.5037C59.0948 10.5273 59.0535 9.36083 58.7587 8.43523C58.5051 7.63009 58.0011 7.31627 57.2848 7.31627ZM64.5121 17.5644H66.7564C66.9973 17.5644 67.1938 17.3774 67.197 17.146V10.9172C67.197 10.1374 67.2382 9.43374 67.5552 8.72686C67.8056 8.16896 68.3096 7.80126 68.858 7.80126C70.2945 7.80126 70.281 9.37818 70.2704 10.6156C70.2695 10.7189 70.2686 10.8198 70.2686 10.9172V17.1999C70.2908 17.3964 70.462 17.5486 70.668 17.5644H72.9281C73.15 17.5644 73.337 17.4028 73.3624 17.1999V9.91873C73.3624 8.79977 73.3624 7.24336 72.7728 6.31776C72.1388 5.31925 71.153 4.95472 70.1418 4.95472C68.5854 4.95472 67.701 5.70915 67.0702 7.29091H67.029V5.52213C66.9846 5.34144 66.823 5.2083 66.6264 5.1988H64.5375C64.3093 5.1988 64.1223 5.36363 64.1032 5.57601L64.1064 17.146C64.1064 17.3679 64.2871 17.5486 64.5121 17.5644ZM42.5618 19.8249C43.9358 19.6619 46.9412 19.3054 47.4771 19.9925C48.0188 20.6863 46.8761 23.5394 46.3653 24.8148L46.3644 24.817C46.2091 25.2037 46.542 25.3591 46.8906 25.0674C49.1634 23.1687 49.7467 19.1905 49.2839 18.6167C48.8211 18.0462 44.8524 17.5548 42.4338 19.2571C42.0598 19.517 42.1232 19.8784 42.5384 19.8276L42.5618 19.8249ZM30.0713 26.7886C35.3523 26.7886 41.486 25.1245 45.7177 22.0053C46.4183 21.4855 45.8192 20.712 45.1028 21.0163C40.3607 23.0292 35.2033 23.9992 30.5151 23.9992C23.5635 23.9992 16.8339 22.0941 11.3913 18.9274C10.9158 18.6484 10.5607 19.1366 10.957 19.4948C16.0002 24.0499 22.6665 26.7886 30.0713 26.7886Z" fill="currentColor"/>
</g>
<defs>
<clipPath id="clip0_8115_124213">
<rect width="73.6" height="32" fill="currentColor" transform="translate(0.199219)"/>
</clipPath>
</defs>
</svg>
