<svg width="20" height="20" viewBox="0 0 20 20" fill="none" xmlns="http://www.w3.org/2000/svg">
<path d="M4.8529 3.02602L9.99957 8.17268L15.1196 3.05268C15.2327 2.93231 15.3689 2.83601 15.5201 2.76957C15.6713 2.70312 15.8344 2.6679 15.9996 2.66602C16.3532 2.66602 16.6923 2.80649 16.9424 3.05654C17.1924 3.30659 17.3329 3.64573 17.3329 3.99935C17.336 4.16282 17.3057 4.3252 17.2438 4.47652C17.1819 4.62785 17.0897 4.76493 16.9729 4.87935L11.7862 9.99935L16.9729 15.186C17.1927 15.401 17.3215 15.6921 17.3329 15.9993C17.3329 16.353 17.1924 16.6921 16.9424 16.9422C16.6923 17.1922 16.3532 17.3327 15.9996 17.3327C15.8296 17.3397 15.6601 17.3114 15.5017 17.2494C15.3433 17.1874 15.1996 17.0932 15.0796 16.9727L9.99957 11.826L4.86623 16.9593C4.75357 17.0757 4.61899 17.1686 4.47024 17.2327C4.32149 17.2968 4.16152 17.3308 3.99957 17.3327C3.64594 17.3327 3.30681 17.1922 3.05676 16.9422C2.80671 16.6921 2.66623 16.353 2.66623 15.9993C2.66312 15.8359 2.69345 15.6735 2.75536 15.5222C2.81727 15.3708 2.90944 15.2338 3.02623 15.1193L8.2129 9.99935L3.02623 4.81268C2.80648 4.59769 2.67762 4.30657 2.66623 3.99935C2.66623 3.64573 2.80671 3.30659 3.05676 3.05654C3.30681 2.80649 3.64594 2.66602 3.99957 2.66602C4.31957 2.67002 4.62623 2.79935 4.8529 3.02602Z" fill="currentColor"/>
</svg>
