<svg width="20" height="20" viewBox="0 0 20 20" fill="none" xmlns="http://www.w3.org/2000/svg">
<g clip-path="url(#clip0_8145_16053)">
<path d="M6.52479 15.687C7.59479 16.0495 8.75354 16.2508 9.99979 16.2508C14.3273 16.2508 17.6173 13.807 19.7823 10.7095C19.9242 10.5004 20 10.2535 20 10.0008C20 9.74808 19.9242 9.50118 19.7823 9.29204C18.8573 7.96704 17.7248 6.76204 16.3948 5.81704L15.4885 6.72204C16.7748 7.59704 17.8648 8.74454 18.7435 10.012C16.7973 12.7933 13.8248 15.0008 9.99979 15.0008C9.16635 15.0025 8.33631 14.8945 7.53104 14.6795L6.52479 15.687ZM8.69354 13.517C9.36686 13.7676 10.098 13.8195 10.8 13.6666C11.5019 13.5136 12.1452 13.1622 12.6532 12.6542C13.1612 12.1462 13.5126 11.5029 13.6656 10.801C13.8185 10.099 13.7666 9.36786 13.516 8.69454L12.4848 9.72579C12.526 10.0983 12.483 10.4753 12.3589 10.8289C12.2348 11.1825 12.0328 11.5037 11.7678 11.7687C11.5027 12.0338 11.1816 12.2358 10.8279 12.3599C10.4743 12.484 10.0973 12.527 9.72479 12.4858L8.69354 13.517ZM7.51479 10.2758L6.48354 11.307C6.23295 10.6337 6.18104 9.90258 6.33401 9.20061C6.48697 8.49864 6.83836 7.85539 7.34638 7.34737C7.85439 6.83936 8.49765 6.48797 9.19962 6.335C9.90159 6.18204 10.6327 6.23394 11.306 6.48454L10.2748 7.51579C9.9023 7.47454 9.52529 7.51756 9.17166 7.64167C8.81804 7.76579 8.49684 7.96783 8.23183 8.23283C7.96683 8.49784 7.76479 8.81903 7.64068 9.17266C7.51656 9.52629 7.47354 9.90329 7.51479 10.2758ZM12.4685 5.32204C11.6633 5.10713 10.8332 4.99912 9.99979 5.00079C6.17229 5.00079 3.19729 7.21204 1.25854 9.98454C2.13604 11.2545 3.22604 12.4033 4.51229 13.2795L3.60479 14.1858C2.27479 13.2383 1.14229 12.0358 0.216043 10.7108C0.0739335 10.4989 -0.00131957 10.2492 1.75131e-05 9.99401C0.00135459 9.73885 0.0792204 9.48997 0.223543 9.27954C2.38104 6.19454 5.67104 3.75079 9.99979 3.75079C11.1821 3.7466 12.3571 3.9375 13.4773 4.31579L12.4685 5.32204ZM2.31729 18.5683C2.25918 18.6264 2.1902 18.6725 2.11427 18.7039C2.03835 18.7354 1.95697 18.7516 1.87479 18.7516C1.79261 18.7516 1.71124 18.7354 1.63531 18.7039C1.55939 18.6725 1.4904 18.6264 1.43229 18.5683C1.37418 18.5102 1.32809 18.4412 1.29664 18.3653C1.26519 18.2893 1.249 18.208 1.249 18.1258C1.249 18.0436 1.26519 17.9622 1.29664 17.8863C1.32809 17.8104 1.37418 17.7414 1.43229 17.6833L17.6823 1.43329C17.7997 1.31593 17.9588 1.25 18.1248 1.25C18.2908 1.25 18.4499 1.31593 18.5673 1.43329C18.6847 1.55065 18.7506 1.70982 18.7506 1.87579C18.7506 2.04176 18.6847 2.20093 18.5673 2.31829L2.31729 18.5683Z" fill="#4D5056"/>
</g>
<defs>
<clipPath id="clip0_8145_16053">
<rect width="20" height="20" fill="white"/>
</clipPath>
</defs>
</svg>
