<svg width="20" height="20" viewBox="0 0 20 20" fill="none" xmlns="http://www.w3.org/2000/svg">
<path d="M12.4619 1.09961C13.3106 1.09682 14.1589 1.14019 15.0029 1.22949H15.0059C15.2629 1.26356 15.4551 1.4829 15.4551 1.74219V4.61328C15.4547 4.89823 15.2234 5.12883 14.9385 5.12891L13.2393 5.12988C12.7378 5.12988 12.4839 5.21587 12.3477 5.36719C12.2091 5.52114 12.165 5.76987 12.165 6.17578V7.70801H14.8271C14.8494 7.70803 14.8715 7.71004 14.8936 7.71289C15.1764 7.74979 15.3758 8.00916 15.3389 8.29199L14.9248 11.5C14.8911 11.7574 14.6717 11.9501 14.4121 11.9502H12.165V18.2832L12.1553 18.3877C12.1069 18.6228 11.8979 18.8 11.6484 18.7998H8.33398C8.04878 18.7996 7.81719 18.5675 7.81738 18.2822V11.9502H5.5625C5.27736 11.9499 5.04669 11.7188 5.04688 11.4336V8.22461C5.047 7.93937 5.27824 7.70782 5.56348 7.70801H7.81738V5.85742C7.81741 4.40045 8.25974 3.20868 9.06738 2.38086C9.87516 1.55306 11.0384 1.10076 12.4609 1.10059L12.4619 1.09961ZM12.4619 2.13281C11.3211 2.13281 10.4212 2.48294 9.80664 3.11621C9.19176 3.74994 8.85061 4.67906 8.85059 5.85742V8.22559C8.85031 8.51071 8.61919 8.7414 8.33398 8.74121H6.08008V10.917H8.33496C8.61994 10.9173 8.85067 11.1485 8.85059 11.4336V17.7656H11.1318V11.4336C11.132 11.1485 11.3634 10.9171 11.6484 10.917H13.958L14.2393 8.74121H11.6484C11.3632 8.74108 11.1317 8.50977 11.1318 8.22461V6.17578C11.1318 5.7466 11.1837 5.22479 11.4795 4.80957C11.7803 4.38737 12.3178 4.09668 13.2393 4.09668L14.4219 4.0957V2.20996C13.9588 2.17233 13.2459 2.13282 12.4619 2.13281Z" fill="currentColor" stroke="currentColor" stroke-width="0.2"/>
</svg>
