<svg width="21" height="21" viewBox="0 0 21 21" fill="none" xmlns="http://www.w3.org/2000/svg">
  <path
    d="M10.9668 2.2168C15.7993 2.2168 19.7168 6.13432 19.7168 10.9668C19.7168 15.7993 15.7993 19.7168 10.9668 19.7168C10.9388 19.7168 10.9108 19.7141 10.8828 19.7139C11.3243 19.7105 11.7582 19.6773 12.1826 19.6123V13.6426L14.2256 13.6426L14.6143 11.1729H12.1826V9.57031C12.1827 8.89462 12.5215 8.2354 13.6104 8.23535H14.7168V6.13281C14.7168 6.13281 13.7128 5.96582 12.7539 5.96582C10.7508 5.96597 9.44246 7.14935 9.44238 9.29004V11.1729H7.2168V13.6426H9.44238V19.5811C5.33708 18.8594 2.2168 15.279 2.2168 10.9668C2.21681 6.13444 6.13449 2.217 10.9668 2.2168Z"
    fill="currentColor" />
</svg>