<svg width="48" height="48" viewBox="0 0 48 48" fill="none" xmlns="http://www.w3.org/2000/svg">
<path d="M37.2727 14.4259C37.7402 11.3778 37.2727 9.34569 35.6365 7.46994C33.8444 5.35972 30.5719 4.5 26.3644 4.5H14.2873C13.4302 4.5 12.7289 5.12525 12.5731 5.98497L7.5085 38.0291C7.43058 38.6543 7.89808 39.2014 8.52141 39.2014H16.0014L15.456 42.484C15.3781 43.0311 15.7677 43.5 16.391 43.5H22.7023C23.4814 43.5 24.1048 42.9529 24.1827 42.2495L25.5073 33.9649C25.5852 33.2615 26.2865 32.7144 26.9877 32.7144H27.9227C34.0002 32.7144 38.8311 30.2134 40.2336 23.023C40.779 20.0531 40.5452 17.4739 38.9869 15.7545C38.5194 15.2074 37.974 14.8166 37.2727 14.4259Z" fill="#666D80"/>
<path d="M37.2727 14.4259C37.7402 11.3778 37.2727 9.34569 35.6365 7.46994C33.8444 5.35972 30.5719 4.5 26.3644 4.5H14.2873C13.4302 4.5 12.7289 5.12525 12.5731 5.98497L7.5085 38.0291C7.43058 38.6543 7.89808 39.2014 8.52141 39.2014H16.0014L17.7935 27.6343C17.9494 26.7745 18.6506 26.1493 19.5077 26.1493H23.0919C30.1044 26.1493 35.5586 23.3357 37.1169 15.0511C37.1948 14.8948 37.1948 14.6603 37.2727 14.4259Z" fill="white"/>
<path d="M19.8973 14.504C19.9752 13.9569 20.6764 13.2535 21.3777 13.2535H30.8835C31.9744 13.2535 33.0652 13.3317 34.0002 13.488C34.8573 13.6443 36.4156 14.0351 37.1948 14.504C37.6623 11.4559 37.1948 9.42385 35.5585 7.5481C33.8444 5.35972 30.5719 4.5 26.3644 4.5H14.2873C13.4302 4.5 12.7289 5.12525 12.5731 5.98497L7.5085 38.0291C7.43058 38.6543 7.89808 39.2014 8.52141 39.2014H16.0014L19.8973 14.504Z" fill="white"/>
</svg>
