<svg width="32" height="32" viewBox="0 0 32 32" fill="none" xmlns="http://www.w3.org/2000/svg">
<path d="M28 16C28 22.6274 22.6274 28 16 28M28 16C28 9.37258 22.6274 4 16 4M28 16H4M16 28C9.37258 28 4 22.6274 4 16M16 28C19.0015 24.714 20.7073 20.4496 20.8 16C20.7073 11.5504 19.0015 7.28602 16 4M16 28C12.9985 24.714 11.2927 20.4496 11.2 16C11.2927 11.5504 12.9985 7.28602 16 4M4 16C4 9.37258 9.37258 4 16 4" stroke="currentColor" stroke-width="2" stroke-linecap="round" stroke-linejoin="round"/>
</svg>
