<svg width="21" height="21" viewBox="0 0 21 21" fill="none" xmlns="http://www.w3.org/2000/svg">
<path d="M19.4952 10.9393C19.4952 10.2198 19.4357 9.69483 19.3068 9.15039H10.9238V12.3976H15.8444C15.7453 13.2045 15.2095 14.4198 14.019 15.2364L14.0024 15.3452L16.6529 17.3574L16.8365 17.3754C18.523 15.849 19.4952 13.6031 19.4952 10.9393" fill="white"/>
<path d="M10.9234 19.4941C13.3341 19.4941 15.3579 18.7163 16.8361 17.3747L14.0187 15.2357C13.2647 15.751 12.2528 16.1107 10.9234 16.1107C8.56236 16.1107 6.55842 14.5844 5.84406 12.4746L5.73936 12.4833L2.98331 14.5736L2.94727 14.6718C4.4155 17.5302 7.43137 19.4941 10.9234 19.4941Z" fill="white"/>
<path d="M5.8433 12.4744C5.65482 11.9299 5.54573 11.3466 5.54573 10.7438C5.54573 10.141 5.65482 9.55769 5.83339 9.01325L5.82839 8.8973L3.0378 6.77344L2.9465 6.816C2.34137 8.00212 1.99414 9.33409 1.99414 10.7438C1.99414 12.1535 2.34137 13.4854 2.9465 14.6716L5.8433 12.4744" fill="white"/>
<path d="M10.9235 5.37745C12.6001 5.37745 13.731 6.08717 14.3759 6.68026L16.8957 4.26914C15.3481 2.85942 13.3342 1.99414 10.9235 1.99414C7.43139 1.99414 4.41551 3.95801 2.94727 6.81632L5.83416 9.01358C6.55844 6.90386 8.56239 5.37745 10.9235 5.37745" fill="white"/>
</svg>
