<svg width="32" height="32" viewBox="0 0 32 32" fill="none" xmlns="http://www.w3.org/2000/svg">
<path d="M5.19922 23.1992V15.9992C5.19922 13.1349 6.33707 10.3879 8.36247 8.36247C10.3879 6.33707 13.1349 5.19922 15.9992 5.19922C18.8636 5.19922 21.6106 6.33707 23.636 8.36247C25.6614 10.3879 26.7992 13.1349 26.7992 15.9992V23.1992" stroke="white" stroke-width="2" stroke-linecap="round" stroke-linejoin="round"/>
<path d="M26.7992 24.4004C26.7992 25.0369 26.5464 25.6474 26.0963 26.0974C25.6462 26.5475 25.0357 26.8004 24.3992 26.8004H23.1992C22.5627 26.8004 21.9522 26.5475 21.5022 26.0974C21.0521 25.6474 20.7992 25.0369 20.7992 24.4004V20.8004C20.7992 20.1639 21.0521 19.5534 21.5022 19.1033C21.9522 18.6532 22.5627 18.4004 23.1992 18.4004H26.7992V24.4004ZM5.19922 24.4004C5.19922 25.0369 5.45208 25.6474 5.90216 26.0974C6.35225 26.5475 6.9627 26.8004 7.59922 26.8004H8.79922C9.43574 26.8004 10.0462 26.5475 10.4963 26.0974C10.9464 25.6474 11.1992 25.0369 11.1992 24.4004V20.8004C11.1992 20.1639 10.9464 19.5534 10.4963 19.1033C10.0462 18.6532 9.43574 18.4004 8.79922 18.4004H5.19922V24.4004Z" stroke="white" stroke-width="2" stroke-linecap="round" stroke-linejoin="round"/>
</svg>
