<svg width="20" height="20" viewBox="0 0 20 20" fill="none" xmlns="http://www.w3.org/2000/svg">
  <path
    d="M14.4513 4.5513C14.2535 4.5513 14.0602 4.60995 13.8957 4.71983C13.7313 4.82971 13.6031 4.98589 13.5274 5.16862C13.4517 5.35134 13.4319 5.55241 13.4705 5.74639C13.5091 5.94037 13.6043 6.11856 13.7442 6.25841C13.884 6.39826 14.0622 6.4935 14.2562 6.53209C14.4502 6.57067 14.6513 6.55087 14.834 6.47518C15.0167 6.39949 15.1729 6.27132 15.2828 6.10687C15.3927 5.94242 15.4513 5.74908 15.4513 5.5513C15.4513 5.28609 15.3459 5.03173 15.1584 4.8442C14.9709 4.65666 14.7165 4.5513 14.4513 4.5513ZM18.2846 6.56797C18.2684 5.87655 18.1389 5.19247 17.9013 4.54297C17.6894 3.98725 17.3596 3.48403 16.9346 3.06797C16.522 2.64082 16.0176 2.31312 15.4596 2.10964C14.8118 1.86477 14.127 1.73231 13.4346 1.71797C12.5513 1.66797 12.268 1.66797 10.0013 1.66797C7.73464 1.66797 7.4513 1.66797 6.56797 1.71797C5.8756 1.73231 5.19075 1.86477 4.54297 2.10964C3.98603 2.31518 3.48208 2.6426 3.06797 3.06797C2.64082 3.48062 2.31312 3.985 2.10964 4.54297C1.86477 5.19075 1.73231 5.8756 1.71797 6.56797C1.66797 7.4513 1.66797 7.73464 1.66797 10.0013C1.66797 12.268 1.66797 12.5513 1.71797 13.4346C1.73231 14.127 1.86477 14.8118 2.10964 15.4596C2.31312 16.0176 2.64082 16.522 3.06797 16.9346C3.48208 17.36 3.98603 17.6874 4.54297 17.893C5.19075 18.1378 5.8756 18.2703 6.56797 18.2846C7.4513 18.3346 7.73464 18.3346 10.0013 18.3346C12.268 18.3346 12.5513 18.3346 13.4346 18.2846C14.127 18.2703 14.8118 18.1378 15.4596 17.893C16.0176 17.6895 16.522 17.3618 16.9346 16.9346C17.3615 16.5201 17.6916 16.0165 17.9013 15.4596C18.1389 14.8101 18.2684 14.1261 18.2846 13.4346C18.2846 12.5513 18.3346 12.268 18.3346 10.0013C18.3346 7.73464 18.3346 7.4513 18.2846 6.56797ZM16.7846 13.3346C16.7786 13.8636 16.6828 14.3877 16.5013 14.8846C16.3682 15.2473 16.1545 15.575 15.8763 15.843C15.606 16.1184 15.279 16.3317 14.918 16.468C14.4211 16.6494 13.8969 16.7452 13.368 16.7513C12.5346 16.793 12.2263 16.8013 10.0346 16.8013C7.84297 16.8013 7.53464 16.8013 6.7013 16.7513C6.15204 16.7616 5.60513 16.677 5.08464 16.5013C4.73945 16.358 4.42743 16.1453 4.16797 15.8763C3.89138 15.6086 3.68034 15.2806 3.5513 14.918C3.34785 14.4139 3.235 13.8779 3.21797 13.3346C3.21797 12.5013 3.16797 12.193 3.16797 10.0013C3.16797 7.80964 3.16797 7.5013 3.21797 6.66797C3.2217 6.12718 3.32043 5.59126 3.50964 5.08464C3.65634 4.73289 3.88152 4.41935 4.16797 4.16797C4.42115 3.88144 4.73404 3.65388 5.08464 3.5013C5.59259 3.318 6.12797 3.2222 6.66797 3.21797C7.5013 3.21797 7.80964 3.16797 10.0013 3.16797C12.193 3.16797 12.5013 3.16797 13.3346 3.21797C13.8636 3.22404 14.3877 3.31984 14.8846 3.5013C15.2633 3.64185 15.6032 3.87034 15.8763 4.16797C16.1494 4.42395 16.3628 4.73691 16.5013 5.08464C16.6865 5.59208 16.7824 6.12779 16.7846 6.66797C16.8263 7.5013 16.8346 7.80964 16.8346 10.0013C16.8346 12.193 16.8263 12.5013 16.7846 13.3346ZM10.0013 5.7263C9.15614 5.72795 8.33044 5.98007 7.62851 6.45082C6.92659 6.92156 6.37995 7.5898 6.05766 8.3711C5.73538 9.15239 5.65191 10.0117 5.8178 10.8404C5.98369 11.6691 6.3915 12.4301 6.9897 13.0271C7.5879 13.6242 8.34964 14.0305 9.17868 14.1948C10.0077 14.359 10.8669 14.2739 11.6475 13.9501C12.4282 13.6263 13.0954 13.0783 13.5647 12.3755C14.0341 11.6727 14.2846 10.8465 14.2846 10.0013C14.2857 9.43889 14.1756 8.88181 13.9607 8.3621C13.7457 7.84239 13.4301 7.37031 13.032 6.97301C12.634 6.57571 12.1613 6.26103 11.6411 6.04708C11.121 5.83312 10.5637 5.7241 10.0013 5.7263ZM10.0013 12.7763C9.45246 12.7763 8.91594 12.6136 8.45959 12.3086C8.00325 12.0037 7.64757 11.5703 7.43754 11.0632C7.2275 10.5562 7.17255 9.99822 7.27962 9.45993C7.3867 8.92163 7.65099 8.42717 8.03908 8.03908C8.42717 7.65099 8.92163 7.3867 9.45993 7.27962C9.99822 7.17255 10.5562 7.2275 11.0632 7.43754C11.5703 7.64757 12.0037 8.00325 12.3086 8.45959C12.6136 8.91594 12.7763 9.45246 12.7763 10.0013C12.7763 10.3657 12.7045 10.7266 12.5651 11.0632C12.4256 11.3999 12.2212 11.7058 11.9635 11.9635C11.7058 12.2212 11.3999 12.4256 11.0632 12.5651C10.7266 12.7045 10.3657 12.7763 10.0013 12.7763Z"
    fill="currentColor" />
</svg>