<svg width="49" height="48" viewBox="0 0 49 48" fill="none" xmlns="http://www.w3.org/2000/svg">
<path d="M24.6794 44.4967L32.9594 19.0137H16.3994L24.6794 44.4967Z" fill="#E24329"/>
<path d="M24.6816 44.4967L32.9616 19.0137H44.5659L24.6816 44.4967Z" fill="#FC6D26"/>
<path d="M44.5659 19.0137L47.082 26.7577C47.3115 27.464 47.0601 28.2378 46.4593 28.6743L24.6816 44.4967L44.5659 19.0137Z" fill="#FCA326"/>
<path d="M24.6811 44.4967L16.4011 19.0137H4.79688L24.6811 44.4967Z" fill="#FC6D26"/>
<path d="M4.79548 19.0137L2.27934 26.7577C2.04984 27.464 2.3012 28.2378 2.90206 28.6743L24.6797 44.4967L4.79548 19.0137Z" fill="#FCA326"/>
<path d="M44.5652 19.0147H32.9609L37.948 3.66653C38.2045 2.87667 39.3218 2.87689 39.5783 3.66653L44.5652 19.0147Z" fill="#E24329"/>
<path d="M4.79688 19.0147H16.4011L11.414 3.66653C11.1575 2.87667 10.0402 2.87689 9.78373 3.66653L4.79688 19.0147Z" fill="#E24329"/>
</svg>
