<svg width="49" height="48" viewBox="0 0 49 48" fill="none" xmlns="http://www.w3.org/2000/svg">
<g filter="url(#filter0_d_8145_8063)">
<path d="M18.5293 29.5176L13.3973 38.5754C13.3973 38.5754 13.2268 38.4923 12.9951 38.3206C13.7235 38.8811 14.4315 39 14.4315 39H34.587C35.6991 39 35.9307 38.5754 35.9307 38.5754C35.9345 38.5735 35.9363 38.5716 35.94 38.5697L30.8117 29.5176H18.5293Z" fill="#4285F4"/>
<path d="M30.8125 29.5176H41.1636C41.1117 30.7479 40.578 31.4669 40.578 31.4669L40.1888 32.1425C40.161 32.1821 40.1443 32.2047 40.1443 32.2047L39.2973 33.6917L37.3957 37.0016C37.3401 37.1356 37.2752 37.2582 37.2067 37.3752C37.1807 37.4148 37.1566 37.4582 37.1288 37.496C37.1214 37.5073 37.114 37.5186 37.1066 37.53C36.8712 37.8621 36.608 38.1187 36.3448 38.3206C36.1132 38.4942 35.9427 38.5754 35.9427 38.5754L30.8125 29.5176Z" fill="#EA4335"/>
<path d="M18.5299 29.5176H8.17871C8.23061 30.7479 8.76438 31.4669 8.76438 31.4669L9.15359 32.1425C9.18139 32.1821 9.19807 32.2047 9.19807 32.2047L10.0451 33.6917L11.9466 37.0016C12.0022 37.1356 12.0671 37.2582 12.1357 37.3752C12.1616 37.4148 12.1857 37.4582 12.2135 37.496C12.2209 37.5073 12.2284 37.5186 12.2358 37.53C12.4711 37.8621 12.7343 38.1187 12.9975 38.3206C13.2292 38.4942 13.3997 38.5754 13.3997 38.5754L18.5299 29.5176Z" fill="#1967D2"/>
<path d="M24.6699 18.676L30.812 29.5171H41.1632C41.1799 29.1 41.1428 28.6264 41.0093 28.1018L31.5256 11.3694C31.5256 11.3694 30.8213 9.65032 29.2923 9.14648C29.4887 9.22385 29.6889 9.33896 29.8613 9.51446L24.6699 18.676Z" fill="#FBBC05"/>
<path d="M24.6699 18.676L19.4785 9.51446C19.6509 9.33896 19.8492 9.22385 20.0475 9.14648C18.5166 9.65032 17.8142 11.3694 17.8142 11.3694L8.33042 28.1018C8.19698 28.6264 8.15991 29.1 8.17659 29.5171H18.5277L24.6699 18.676Z" fill="#34A853"/>
<path d="M24.6698 18.6771L29.8612 9.51556C29.6888 9.34006 29.4886 9.22495 29.2922 9.14759C29.0661 9.07399 28.8233 9.02493 28.5601 9.01172H28.2858H21.0539H20.7796C20.5183 9.02304 20.2736 9.0721 20.0475 9.14759C19.851 9.22495 19.6509 9.34006 19.4785 9.51556L24.6698 18.6771Z" fill="#188038"/>
</g>
<defs>
<filter id="filter0_d_8145_8063" x="-1.33301" y="-1" width="52" height="52" filterUnits="userSpaceOnUse" color-interpolation-filters="sRGB">
<feFlood flood-opacity="0" result="BackgroundImageFix"/>
<feColorMatrix in="SourceAlpha" type="matrix" values="0 0 0 0 0 0 0 0 0 0 0 0 0 0 0 0 0 0 127 0" result="hardAlpha"/>
<feOffset dy="1"/>
<feGaussianBlur stdDeviation="1"/>
<feColorMatrix type="matrix" values="0 0 0 0 0.0627451 0 0 0 0 0.0941176 0 0 0 0 0.156863 0 0 0 0.05 0"/>
<feBlend mode="normal" in2="BackgroundImageFix" result="effect1_dropShadow_8145_8063"/>
<feBlend mode="normal" in="SourceGraphic" in2="effect1_dropShadow_8145_8063" result="shape"/>
</filter>
</defs>
</svg>
