<svg width="49" height="48" viewBox="0 0 49 48" fill="none" xmlns="http://www.w3.org/2000/svg">
<path fill-rule="evenodd" clip-rule="evenodd" d="M8.907 43.8267L3.74796 37.3997C2.5067 35.8534 1.83301 33.9519 1.83301 31.9948V8.72248C1.83301 5.79096 4.17839 3.35845 7.20408 3.15188L31.1312 1.51827C32.8695 1.39959 34.5972 1.86164 36.0251 2.82706L44.4319 8.51087C45.9367 9.52828 46.833 11.1915 46.833 12.9664V39.4248C46.833 42.2936 44.5268 44.6689 41.5644 44.8513L15.008 46.486C12.644 46.6315 10.359 45.6355 8.907 43.8267Z" fill="currentColor"/>
<path d="M17.2051 20.3683V20.0636C17.2051 19.2913 17.8237 18.6507 18.6209 18.5975L24.4279 18.2098L32.4586 30.0355V19.6565L30.3915 19.3809V19.2362C30.3915 18.4548 31.0242 17.81 31.8316 17.7687L37.1154 17.498V18.2584C37.1154 18.6153 36.85 18.9206 36.4861 18.9822L35.2146 19.1972V36.0058L33.6189 36.5546C32.2857 37.013 30.8016 36.5223 30.0384 35.3706L22.2421 23.606V34.8347L24.6418 35.2939L24.6084 35.5165C24.5036 36.2137 23.9017 36.741 23.1735 36.7735L17.2051 37.0391C17.1263 36.2894 17.6882 35.6186 18.4634 35.5372L19.2484 35.4547V20.4831L17.2051 20.3683Z" fill="black"/>
<path fill-rule="evenodd" clip-rule="evenodd" d="M31.3453 4.45042L7.41821 6.08402C5.98499 6.18187 4.87402 7.33411 4.87402 8.72273V31.9951C4.87402 33.2998 5.32315 34.5674 6.15066 35.5983L11.3097 42.0253C12.1438 43.0644 13.4565 43.6366 14.8145 43.553L41.371 41.9183C42.7321 41.8345 43.7917 40.7431 43.7917 39.425V12.9666C43.7917 12.1511 43.3798 11.387 42.6884 10.9195L34.2817 5.23568C33.425 4.65643 32.3883 4.37921 31.3453 4.45042ZM8.60471 9.08574C8.27193 8.83936 8.4303 8.32606 8.84836 8.29608L31.5063 6.67091C32.2282 6.61913 32.9456 6.81792 33.5294 7.23156L38.0755 10.4524C38.2481 10.5747 38.1672 10.8387 37.9535 10.8503L13.9588 12.1553C13.2327 12.1948 12.5159 11.9815 11.9385 11.554L8.60471 9.08574ZM12.8334 16.2463C12.8334 15.4668 13.4631 14.8229 14.2684 14.779L39.6376 13.3974C40.4224 13.3547 41.0831 13.9582 41.0831 14.718V37.6281C41.0831 38.4062 40.4556 39.0495 39.6519 39.0952L14.4433 40.5295C13.5699 40.5792 12.8334 39.9081 12.8334 39.0625V16.2463Z" fill="black"/>
</svg>
