<svg width="49" height="48" viewBox="0 0 49 48" fill="none" xmlns="http://www.w3.org/2000/svg">
<path d="M40.8093 19.6525C40.8093 10.4556 33.4315 3.00002 24.3306 3.00002C16.2192 2.98846 9.30672 8.94574 8.03742 17.0417C6.76813 25.1376 11.5198 32.9624 19.2375 35.4852V43.8289C19.2375 44.4757 19.7563 45 20.3963 45H28.2185C28.8585 45 29.3773 44.4757 29.3773 43.8289V35.491C36.1842 33.2761 40.8015 26.8789 40.8093 19.6525ZM24.3306 25.2794C21.2538 25.2794 18.7595 22.7588 18.7595 19.6495C18.7595 16.5402 21.2538 14.0197 24.3306 14.0197C27.4074 14.0197 29.9017 16.5402 29.9017 19.6495C29.9017 22.7588 27.4074 25.2794 24.3306 25.2794Z" fill="#2684FF"/>
<path fill-rule="evenodd" clip-rule="evenodd" d="M24.3301 3.00002V14.0255C27.4069 14.0255 29.9012 16.5461 29.9012 19.6554C29.9012 22.7647 27.4069 25.2853 24.3301 25.2853C25.6808 25.2853 26.9763 25.8275 27.9314 26.7927C28.8866 27.7579 29.4232 29.067 29.4232 30.4321V35.4969C37.1437 32.9737 41.8975 25.1464 40.6282 17.0475C39.3589 8.94869 32.4443 2.98893 24.3301 3.00002Z" fill="url(#paint0_linear_8145_8089)"/>
<defs>
<linearGradient id="paint0_linear_8145_8089" x1="32.5694" y1="32.4814" x2="32.5694" y2="14.7926" gradientUnits="userSpaceOnUse">
<stop offset="0.18" stop-color="#0052CC"/>
<stop offset="1" stop-color="#2684FF"/>
</linearGradient>
</defs>
</svg>
