<svg width="48" height="48" viewBox="0 0 48 48" fill="none" xmlns="http://www.w3.org/2000/svg">
<path d="M28.4327 28.4421C25.5832 29.5144 22.3902 29.5163 19.5406 28.4428C18.467 25.5964 18.4668 22.4039 19.539 19.5571C22.3878 18.4831 25.584 18.4829 28.4328 19.557C29.506 22.4029 29.5056 25.5961 28.4327 28.4421ZM44.708 20.4993H32.442L41.1149 11.8314C39.7538 9.92066 38.0734 8.24215 36.1614 6.88183L27.4879 15.5497V3.29165C25.173 2.90249 22.799 2.90308 20.4841 3.29165V15.5497L11.8106 6.88183C9.89908 8.24122 8.21816 9.92204 6.85693 11.8314L15.5311 20.4993H3.26525C2.96247 22.8821 2.8641 25.1214 3.26525 27.4992H15.5313L6.8571 36.1672C8.22161 38.0808 9.8957 39.7538 11.8106 41.1174L20.4841 32.4488V44.7076C22.7992 45.0953 25.1726 45.0955 27.4877 44.7076V32.4488L36.1621 41.1174C38.0749 39.7558 39.7523 38.0786 41.1149 36.1672L32.4407 27.4992H44.708C45.0973 25.1879 45.0973 22.8107 44.708 20.4993Z" fill="#FF4A00"/>
</svg>
