<svg width="32" height="32" viewBox="0 0 32 32" fill="none" xmlns="http://www.w3.org/2000/svg">
<path d="M23 6H9C7.34315 6 6 7.34315 6 9V23C6 24.6569 7.34315 26 9 26H23C24.6569 26 26 24.6569 26 23V9C26 7.34315 24.6569 6 23 6Z" fill="#717784"/>
<path d="M18.6562 20.4531C19.0469 21.1172 19.5938 21.5859 20.4922 21.5859C21.2734 21.5859 21.7812 21.1953 21.7812 20.6484C21.7812 20.0234 21.2734 19.7891 20.4141 19.3984L19.9453 19.2031C18.5781 18.6172 17.6797 17.9141 17.6797 16.3906C17.6797 14.9844 18.7344 13.8906 20.4141 13.8906C21.625 13.8906 22.4844 14.3203 23.0703 15.4141L21.625 16.3516C21.3125 15.7656 20.9609 15.5312 20.4141 15.5312C19.8672 15.5312 19.5156 15.8828 19.5156 16.3516C19.5156 16.8984 19.8672 17.1328 20.6875 17.4844L21.1562 17.6797C22.7578 18.3828 23.6562 19.0469 23.6562 20.6484C23.6562 22.3281 22.3281 23.2656 20.5312 23.2656C18.7734 23.2656 17.6406 22.4453 17.0938 21.3516L18.6562 20.4531ZM12.0156 20.6094C12.3281 21.1172 12.5625 21.5859 13.2266 21.5859C13.8516 21.5859 14.2422 21.3516 14.2422 20.4141V13.9297H16.1172V20.3359C16.1172 22.2891 14.9844 23.1484 13.3047 23.1484C11.7812 23.1484 10.9219 22.3672 10.4922 21.4297L12.0156 20.6094Z" fill="#171C23"/>
</svg>
