<svg width="32" height="32" viewBox="0 0 32 32" fill="none" xmlns="http://www.w3.org/2000/svg">
<path d="M23 6C24.6569 6 26 7.34315 26 9V23C26 24.6569 24.6569 26 23 26H9C7.34315 26 6 24.6569 6 23V9C6 7.34315 7.34315 6 9 6H23ZM20.4141 13.8906C18.7344 13.8906 17.6797 14.9844 17.6797 16.3906C17.6797 17.9141 18.5781 18.6172 19.9453 19.2031L20.4141 19.3984C21.2734 19.7891 21.7812 20.0234 21.7812 20.6484C21.7812 21.1953 21.2734 21.5859 20.4922 21.5859C19.5938 21.5859 19.0469 21.1172 18.6562 20.4531L17.0938 21.3516C17.6406 22.4453 18.7734 23.2656 20.5312 23.2656C22.3281 23.2656 23.6562 22.3281 23.6562 20.6484C23.6562 19.0469 22.7578 18.3828 21.1562 17.6797L20.6875 17.4844C19.8672 17.1328 19.5156 16.8984 19.5156 16.3516C19.5156 15.8828 19.8672 15.5312 20.4141 15.5312C20.9609 15.5312 21.3125 15.7656 21.625 16.3516L23.0703 15.4141C22.4844 14.3203 21.625 13.8906 20.4141 13.8906ZM14.2422 13.9297V20.4141C14.2422 21.3516 13.8516 21.5859 13.2266 21.5859C12.5625 21.5859 12.3281 21.1172 12.0156 20.6094L10.4922 21.4297C10.9219 22.3672 11.7812 23.1484 13.3047 23.1484C14.9844 23.1484 16.1172 22.2891 16.1172 20.3359V13.9297H14.2422Z" fill="currentColor"/>
</svg>
