<svg width="32" height="32" viewBox="0 0 32 32" fill="none" xmlns="http://www.w3.org/2000/svg">
<path d="M20.2003 10.6L24.4003 6.4M26.8003 4L24.4003 6.4L26.8003 4ZM15.2683 15.532C15.8879 16.1434 16.3805 16.8712 16.7176 17.6737C17.0548 18.4763 17.2298 19.3375 17.2328 20.208C17.2357 21.0784 17.0664 21.9408 16.7346 22.7456C16.4029 23.5503 15.9152 24.2815 15.2997 24.897C14.6842 25.5125 13.953 26.0001 13.1483 26.3319C12.3435 26.6637 11.4811 26.8329 10.6107 26.83C9.74025 26.8271 8.87898 26.652 8.07648 26.3149C7.27398 25.9778 6.54609 25.4852 5.93473 24.8656C4.73249 23.6208 4.06724 21.9537 4.08228 20.2232C4.09732 18.4927 4.79143 16.8373 6.01513 15.6136C7.23882 14.3899 8.89418 13.6958 10.6247 13.6808C12.3552 13.6657 14.0224 14.331 15.2671 15.5332L15.2683 15.532ZM15.2683 15.532L20.2003 10.6L15.2683 15.532ZM20.2003 10.6L23.8003 14.2L28.0003 10L24.4003 6.4L20.2003 10.6Z" stroke="white" stroke-width="2" stroke-linecap="round" stroke-linejoin="round"/>
</svg>
