<svg width="32" height="32" viewBox="0 0 32 32" fill="none" xmlns="http://www.w3.org/2000/svg">
<path opacity="0.12" d="M16.4764 6.23795C16.3015 6.15049 16.214 6.10677 16.1223 6.08956C16.041 6.07431 15.9577 6.07431 15.8764 6.08956C15.7847 6.10677 15.6972 6.15049 15.5223 6.23795L2.66602 12.6661L15.5223 19.0943C15.6972 19.1817 15.7847 19.2254 15.8764 19.2426C15.9577 19.2579 16.041 19.2579 16.1223 19.2426C16.214 19.2254 16.3015 19.1817 16.4764 19.0943L29.3327 12.6661L16.4764 6.23795Z" fill="#151516"/>
<path d="M2.66602 19.3328L15.5223 25.7609C15.6972 25.8484 15.7847 25.8921 15.8764 25.9093C15.9577 25.9246 16.041 25.9246 16.1223 25.9093C16.214 25.8921 16.3015 25.8484 16.4764 25.7609L29.3327 19.3328M2.66602 12.6661L15.5223 6.23795C15.6972 6.15049 15.7847 6.10677 15.8764 6.08956C15.9577 6.07431 16.041 6.07431 16.1223 6.08956C16.214 6.10677 16.3015 6.15049 16.4764 6.23795L29.3327 12.6661L16.4764 19.0943C16.3015 19.1817 16.214 19.2254 16.1223 19.2426C16.041 19.2579 15.9577 19.2579 15.8764 19.2426C15.7847 19.2254 15.6972 19.1817 15.5223 19.0943L2.66602 12.6661Z" stroke="white" stroke-width="2" stroke-linecap="round" stroke-linejoin="round"/>
</svg>
