<svg width="20" height="20" viewBox="0 0 20 20" fill="none" xmlns="http://www.w3.org/2000/svg">
<path d="M11.7331 4.87016C12.6711 3.93217 14.1918 3.93217 15.1298 4.87016C16.0678 5.80815 16.0678 7.32893 15.1298 8.26692L14.5579 8.83884C14.2325 9.16427 14.2325 9.69191 14.5579 10.0173C14.8834 10.3428 15.411 10.3428 15.7364 10.0173L16.3084 9.44544C17.8972 7.85657 17.8972 5.28051 16.3084 3.69165C14.7195 2.10278 12.1434 2.10278 10.5546 3.69165L8.26692 5.97929C6.67806 7.56815 6.67806 10.1442 8.26692 11.7331C8.59236 12.0585 9.12 12.0585 9.44544 11.7331C9.77087 11.4076 9.77087 10.88 9.44544 10.5546C8.50745 9.61657 8.50745 8.09579 9.44544 7.1578L11.7331 4.87016Z" fill="white"/>
<path d="M10.5546 8.26692C10.2291 8.59236 10.2291 9.12 10.5546 9.44544C11.4926 10.3834 11.4926 11.9042 10.5546 12.8422L8.26692 15.1298C7.32893 16.0678 5.80815 16.0678 4.87016 15.1298C3.93217 14.1918 3.93217 12.6711 4.87016 11.7331L5.44207 11.1612C5.76751 10.8357 5.76751 10.3081 5.44207 9.98265C5.11663 9.65722 4.589 9.65722 4.26356 9.98265L3.69165 10.5546C2.10278 12.1434 2.10278 14.7195 3.69165 16.3084C5.28051 17.8972 7.85657 17.8972 9.44544 16.3084L11.7331 14.0207C13.3219 12.4318 13.3219 9.85579 11.7331 8.26692C11.4076 7.94149 10.88 7.94149 10.5546 8.26692Z" fill="white"/>
</svg>
