<svg width="20" height="20" viewBox="0 0 20 20" fill="none" xmlns="http://www.w3.org/2000/svg">
<path d="M6.25195 7.39844C6.53689 7.39888 6.76777 7.63092 6.76758 7.91602V17.916L6.75684 18.0205C6.7084 18.2556 6.50038 18.4327 6.25098 18.4326H2.91699C2.63184 18.4324 2.40118 18.2003 2.40137 17.915V7.91504L2.41113 7.81055C2.45954 7.57543 2.66848 7.39827 2.91797 7.39844H6.25195ZM12.085 7.39844C12.37 7.39871 12.6008 7.63081 12.6006 7.91602V8.15527C13.3043 7.66564 14.1405 7.39849 15.001 7.39844L15.2207 7.4043C17.4736 7.52108 19.2647 9.3837 19.2676 11.665V17.916L19.2568 18.0205C19.2084 18.2556 19.0004 18.4327 18.751 18.4326H15.417C15.1318 18.4324 14.9012 18.2003 14.9014 17.915V13.332C14.9013 12.697 14.386 12.1827 13.751 12.1826C13.1159 12.1826 12.6007 12.697 12.6006 13.332V17.916L12.5908 18.0205C12.5424 18.2557 12.3335 18.4328 12.084 18.4326H8.75C8.46497 18.4322 8.23419 18.2002 8.23438 17.915V7.91504L8.24512 7.81055C8.29358 7.57549 8.50153 7.39827 8.75098 7.39844H12.085ZM9.26758 17.3984H11.5674V13.332C11.5675 12.1263 12.5452 11.1484 13.751 11.1484C14.9567 11.1485 15.9345 12.1263 15.9346 13.332V17.3984H18.2344V11.665C18.2386 10.6748 17.787 9.73748 17.0098 9.12402C15.6141 8.02273 13.5895 8.26158 12.4883 9.65723C12.352 9.83018 12.1203 9.8968 11.9131 9.82227V9.82129C11.7063 9.74869 11.5674 9.55416 11.5674 9.33496V8.43262H9.26758V17.3984ZM3.43457 17.3984H5.73438V8.43262H3.43457V17.3984ZM4.89746 1.56738C6.20789 1.65908 7.19619 2.79601 7.10449 4.10645C7.01277 5.41424 5.88045 6.4 4.57324 6.3125V6.31348H4.54883V6.3125C4.4979 6.31537 4.44665 6.31687 4.39551 6.31641C3.09337 6.30494 2.0473 5.24065 2.05859 3.93848C2.05871 3.88584 2.05988 3.83294 2.06348 3.78027C2.15309 2.47007 3.28614 1.48007 4.5957 1.56543C4.69621 1.55966 4.79701 1.56036 4.89746 1.56738ZM4.33496 2.59375C3.59342 2.65083 3.03884 3.29854 3.0957 4.04004C3.15271 4.78174 3.80029 5.33728 4.54199 5.28027L4.54883 5.2793H4.58398L4.57324 5.37988L4.58398 5.28027C4.67316 5.28998 4.76314 5.29042 4.85254 5.28223C5.59374 5.21395 6.13957 4.55762 6.07129 3.81641C6.00276 3.07545 5.34649 2.53037 4.60547 2.59863L4.5957 2.59961L4.58594 2.59863C4.5028 2.58949 4.41841 2.58736 4.33496 2.59375Z" fill="currentColor" stroke="currentColor" stroke-width="0.2"/>
</svg>
