<svg width="32" height="32" viewBox="0 0 32 32" fill="none" xmlns="http://www.w3.org/2000/svg">
<path d="M24.3992 14.8008H7.59922C6.27374 14.8008 5.19922 15.8753 5.19922 17.2008V25.6008C5.19922 26.9263 6.27374 28.0008 7.59922 28.0008H24.3992C25.7247 28.0008 26.7992 26.9263 26.7992 25.6008V17.2008C26.7992 15.8753 25.7247 14.8008 24.3992 14.8008Z" stroke="currentColor" stroke-width="2" stroke-linecap="round" stroke-linejoin="round"/>
<path d="M10 14.8V10C10 8.4087 10.6321 6.88258 11.7574 5.75736C12.8826 4.63214 14.4087 4 16 4C17.5913 4 19.1174 4.63214 20.2426 5.75736C21.3679 6.88258 22 8.4087 22 10V14.8" stroke="currentColor" stroke-width="2" stroke-linecap="round" stroke-linejoin="round"/>
</svg>
