<svg width="115" height="36" viewBox="0 0 115 36" fill="none" xmlns="http://www.w3.org/2000/svg">
<g clip-path="url(#clip0_8136_19288)">
<path d="M10.86 34.4119L7.25586 28.1035L12.5451 18.8711L15.9061 24.7545L35.7473 24.7438L30.1172 34.4991L10.86 34.4119Z" fill="#377AFB"/>
<path d="M39.2896 18.4777L35.6856 24.786L25.1289 24.7735L28.4903 18.8902L18.5605 1.53125L29.7356 1.5808L39.2896 18.4777Z" fill="#377AFB"/>
<path d="M11.4162 1.5H18.6244L23.8919 10.7453L17.1692 10.7449L7.25802 28.1147L1.71289 18.3099L11.4162 1.5Z" fill="#377AFB"/>
<path fill-rule="evenodd" clip-rule="evenodd" d="M19.5023 0.0376819L19.4808 0H10.5638L0 18.3006L7.25148 31.1225L7.26038 31.1069L10.0017 35.9052L30.9667 36L38.3292 23.2427H38.2802L41 18.4822L30.5987 0.0868756L19.5023 0.0376819ZM26.4002 12.2419H26.4558L21.214 3.04205L28.8735 3.076L37.5802 18.4745L34.855 23.2447L27.7132 23.2485L30.2032 18.8903L26.4002 12.2419ZM17.6865 2.9967L21.2606 9.24504L16.3119 9.24493L7.83975 24.0925L7.26184 25.1013L3.42427 18.3158L12.2671 2.9967H17.6865ZM14.2501 18.8573L18.025 12.2417L22.975 12.2419L26.7785 18.8912L24.2879 23.2504L16.7621 23.2545L14.2501 18.8573ZM8.97139 28.1083L10.4075 25.5915L12.5432 21.8635L15.0503 26.2522L22.575 26.248L22.5629 26.2693L33.1423 26.282L29.2678 32.9956L11.7182 32.9162L8.97139 28.1083Z" fill="#0B0C0C"/>
<path d="M53.2273 9.54545V27H51.1136V9.54545H53.2273ZM61.9966 32.1818C61.025 32.1818 60.1897 32.0568 59.4909 31.8068C58.792 31.5625 58.2096 31.2386 57.7437 30.8352C57.2835 30.4375 56.917 30.0114 56.6443 29.5568L58.2466 28.4318C58.4284 28.6705 58.6585 28.9432 58.9369 29.25C59.2153 29.5625 59.596 29.8324 60.0789 30.0597C60.5676 30.2926 61.2068 30.4091 61.9966 30.4091C63.0534 30.4091 63.9255 30.1534 64.613 29.642C65.3005 29.1307 65.6443 28.3295 65.6443 27.2386V24.5795H65.4738C65.3261 24.8182 65.1159 25.1136 64.8432 25.4659C64.5761 25.8125 64.1897 26.1222 63.6841 26.3949C63.1841 26.6619 62.5079 26.7955 61.6557 26.7955C60.5988 26.7955 59.65 26.5455 58.8091 26.0455C57.9738 25.5455 57.3119 24.8182 56.8233 23.8636C56.3403 22.9091 56.0988 21.75 56.0988 20.3864C56.0988 19.0455 56.3346 17.8778 56.8062 16.8835C57.2778 15.8835 57.9341 15.1108 58.775 14.5653C59.6159 14.0142 60.5875 13.7386 61.6897 13.7386C62.542 13.7386 63.2182 13.8807 63.7182 14.1648C64.2238 14.4432 64.6102 14.7614 64.8772 15.1193C65.15 15.4716 65.3602 15.7614 65.5079 15.9886H65.7125V13.9091H67.6557V27.375C67.6557 28.5 67.4 29.4148 66.8886 30.1193C66.3829 30.8295 65.7011 31.3494 64.8432 31.679C63.9909 32.0142 63.042 32.1818 61.9966 32.1818ZM61.9284 24.9886C62.7352 24.9886 63.417 24.804 63.9738 24.4347C64.5307 24.0653 64.9539 23.5341 65.2437 22.8409C65.5335 22.1477 65.6784 21.3182 65.6784 20.3523C65.6784 19.4091 65.5363 18.5767 65.2522 17.8551C64.9682 17.1335 64.5477 16.5682 63.9909 16.1591C63.4341 15.75 62.7466 15.5455 61.9284 15.5455C61.0761 15.5455 60.3659 15.7614 59.7977 16.1932C59.2352 16.625 58.8119 17.2045 58.5278 17.9318C58.2494 18.6591 58.1102 19.4659 58.1102 20.3523C58.1102 21.2614 58.2522 22.0653 58.5363 22.7642C58.8261 23.4574 59.2522 24.0028 59.8147 24.4006C60.3829 24.7926 61.0875 24.9886 61.9284 24.9886ZM72.8688 19.125V27H70.8575V13.9091H72.8007V15.9545H72.9711C73.2779 15.2898 73.7438 14.7557 74.3688 14.3523C74.9938 13.9432 75.8007 13.7386 76.7893 13.7386C77.6757 13.7386 78.4512 13.9205 79.116 14.2841C79.7808 14.642 80.2978 15.1875 80.6671 15.9205C81.0365 16.6477 81.2211 17.5682 81.2211 18.6818V27H79.2097V18.8182C79.2097 17.7898 78.9427 16.9886 78.4086 16.4148C77.8745 15.8352 77.1416 15.5455 76.2097 15.5455C75.5677 15.5455 74.9938 15.6847 74.4882 15.9631C73.9882 16.2415 73.5933 16.6477 73.3035 17.1818C73.0137 17.7159 72.8688 18.3636 72.8688 19.125ZM84.4165 27V13.9091H86.4279V27H84.4165ZM85.4393 11.7273C85.0472 11.7273 84.7091 11.5938 84.4251 11.3267C84.1466 11.0597 84.0074 10.7386 84.0074 10.3636C84.0074 9.98864 84.1466 9.66761 84.4251 9.40057C84.7091 9.13352 85.0472 9 85.4393 9C85.8313 9 86.1665 9.13352 86.4449 9.40057C86.729 9.66761 86.8711 9.98864 86.8711 10.3636C86.8711 10.7386 86.729 11.0597 86.4449 11.3267C86.1665 11.5938 85.8313 11.7273 85.4393 11.7273ZM95.325 13.9091V15.6136H88.5409V13.9091H95.325ZM90.5182 10.7727H92.5296V23.25C92.5296 23.8182 92.612 24.2443 92.7767 24.5284C92.9472 24.8068 93.1631 24.9943 93.4245 25.0909C93.6915 25.1818 93.9728 25.2273 94.2682 25.2273C94.4898 25.2273 94.6716 25.2159 94.8137 25.1932C94.9557 25.1648 95.0693 25.142 95.1546 25.125L95.5637 26.9318C95.4273 26.983 95.237 27.0341 94.9926 27.0852C94.7483 27.142 94.4387 27.1705 94.0637 27.1705C93.4955 27.1705 92.9387 27.0483 92.3932 26.804C91.8534 26.5597 91.4046 26.1875 91.0466 25.6875C90.6943 25.1875 90.5182 24.5568 90.5182 23.7955V10.7727ZM97.8706 27V13.9091H99.882V27H97.8706ZM98.8933 11.7273C98.5013 11.7273 98.1632 11.5938 97.8791 11.3267C97.6007 11.0597 97.4615 10.7386 97.4615 10.3636C97.4615 9.98864 97.6007 9.66761 97.8791 9.40057C98.1632 9.13352 98.5013 9 98.8933 9C99.2854 9 99.6206 9.13352 99.899 9.40057C100.183 9.66761 100.325 9.98864 100.325 10.3636C100.325 10.7386 100.183 11.0597 99.899 11.3267C99.6206 11.5938 99.2854 11.7273 98.8933 11.7273ZM106.938 27.3068C106.109 27.3068 105.356 27.1506 104.68 26.8381C104.004 26.5199 103.467 26.0625 103.069 25.4659C102.671 24.8636 102.472 24.1364 102.472 23.2841C102.472 22.5341 102.62 21.9261 102.915 21.4602C103.211 20.9886 103.606 20.6193 104.1 20.3523C104.594 20.0852 105.14 19.8864 105.736 19.7557C106.339 19.6193 106.944 19.5114 107.552 19.4318C108.347 19.3295 108.992 19.2528 109.486 19.2017C109.986 19.1449 110.35 19.0511 110.577 18.9205C110.81 18.7898 110.927 18.5625 110.927 18.2386V18.1705C110.927 17.3295 110.697 16.6761 110.236 16.2102C109.782 15.7443 109.092 15.5114 108.165 15.5114C107.205 15.5114 106.452 15.7216 105.907 16.142C105.361 16.5625 104.978 17.0114 104.756 17.4886L102.847 16.8068C103.188 16.0114 103.643 15.392 104.211 14.9489C104.785 14.5 105.41 14.1875 106.086 14.0114C106.768 13.8295 107.438 13.7386 108.097 13.7386C108.518 13.7386 109.001 13.7898 109.546 13.892C110.097 13.9886 110.629 14.1903 111.14 14.4972C111.657 14.804 112.086 15.267 112.427 15.8864C112.768 16.5057 112.938 17.3352 112.938 18.375V27H110.927V25.2273H110.825C110.688 25.5114 110.461 25.8153 110.143 26.1392C109.825 26.4631 109.401 26.7386 108.873 26.9659C108.344 27.1932 107.7 27.3068 106.938 27.3068ZM107.245 25.5C108.04 25.5 108.711 25.3438 109.256 25.0312C109.807 24.7188 110.222 24.3153 110.501 23.821C110.785 23.3267 110.927 22.8068 110.927 22.2614V20.4205C110.842 20.5227 110.654 20.6165 110.364 20.7017C110.08 20.7812 109.751 20.8523 109.376 20.9148C109.006 20.9716 108.646 21.0227 108.293 21.0682C107.947 21.108 107.665 21.142 107.45 21.1705C106.927 21.2386 106.438 21.3494 105.984 21.5028C105.535 21.6506 105.171 21.875 104.893 22.1761C104.62 22.4716 104.484 22.875 104.484 23.3864C104.484 24.0852 104.742 24.6136 105.259 24.9716C105.782 25.3239 106.444 25.5 107.245 25.5Z" fill="white"/>
</g>
<defs>
<clipPath id="clip0_8136_19288">
<rect width="115" height="36" rx="10" fill="white"/>
</clipPath>
</defs>
</svg>
