<svg width="57" height="50" viewBox="0 0 57 50" fill="none" xmlns="http://www.w3.org/2000/svg">
<path d="M15.1112 47.7935L10.1055 39.0319L17.4516 26.209L22.1197 34.3804L49.6769 34.3655L41.8574 47.9145L15.1112 47.7935Z" fill="#377AFB"/>
<path d="M54.597 25.6638L49.5914 34.4253L34.9294 34.4078L39.598 26.2366L25.8066 2.12695L41.3276 2.19578L54.597 25.6638Z" fill="#377AFB"/>
<path d="M15.8831 2.08203H25.8945L33.2104 14.9227L23.8734 14.9222L10.1078 39.0469L2.40625 25.4291L15.8831 2.08203Z" fill="#377AFB"/>
<path fill-rule="evenodd" clip-rule="evenodd" d="M27.1139 0.0523361L27.0841 0H14.6993L0.0273438 25.4175L10.0989 43.2257L10.1112 43.2041L13.9187 49.8684L43.0367 50L53.2624 32.2815H53.1944L56.9718 25.6697L42.5256 0.120661L27.1139 0.0523361ZM36.6943 17.0027H36.7715L29.4913 4.22508L40.1295 4.27222L52.2221 25.659L48.4371 32.2843L38.5179 32.2896L41.9763 26.2365L36.6943 17.0027ZM24.5919 4.16209L29.556 12.8403L22.6828 12.8402L10.9159 33.4618L10.1132 34.863L4.78328 25.4386L17.065 4.16209H24.5919ZM19.8191 26.1908L25.0621 17.0023L31.937 17.0027L37.2197 26.2377L33.7605 32.2922L23.308 32.298L19.8191 26.1908ZM12.4876 39.0393L14.4823 35.5438L17.4485 30.366L20.9306 36.4614L31.3816 36.4556L31.3647 36.4852L46.0584 36.5028L40.677 45.8273L16.3027 45.717L12.4876 39.0393Z" fill="#0B0C0C"/>
</svg>
