<svg width="64" height="64" viewBox="0 0 64 64" fill="none" xmlns="http://www.w3.org/2000/svg">
<path d="M48.5505 20.0533C45.5229 17.4933 41.8899 16.2133 38.055 16L37.4495 16.64C40.8807 17.4933 43.9083 19.2 46.7339 21.5467C43.3028 19.6267 39.4679 18.3467 35.4312 17.92C34.2202 17.7067 33.211 17.7067 32 17.7067C30.789 17.7067 29.7798 17.7067 28.5688 17.92C24.5321 18.3467 20.6972 19.6267 17.2661 21.5467C20.0917 19.2 23.1193 17.4933 26.5505 16.64L25.945 16C22.1101 16.2133 18.4771 17.4933 15.4495 20.0533C12.0183 26.88 10.2018 34.56 10 42.4533C13.0275 45.8667 17.2661 48 21.7064 48C21.7064 48 23.1193 46.2933 24.1284 44.8C21.5046 44.16 19.0826 42.6667 17.4679 40.32C18.8807 41.1733 20.2936 42.0267 21.7064 42.6667C23.5229 43.52 25.3394 43.9467 27.156 44.3733C28.7706 44.5867 30.3853 44.8 32 44.8C33.6147 44.8 35.2294 44.5867 36.844 44.3733C38.6606 43.9467 40.4771 43.52 42.2936 42.6667C43.7064 42.0267 45.1193 41.1733 46.5321 40.32C44.9174 42.6667 42.4954 44.16 39.8716 44.8C40.8807 46.2933 42.2936 48 42.2936 48C46.7339 48 50.9725 45.8667 54 42.4533C53.7982 34.56 51.9817 26.88 48.5505 20.0533ZM25.3394 38.6133C23.3211 38.6133 21.5046 36.6933 21.5046 34.3467C21.5046 32 23.3211 30.08 25.3394 30.08C27.3578 30.08 29.1743 32 29.1743 34.3467C29.1743 36.6933 27.3578 38.6133 25.3394 38.6133ZM38.6606 38.6133C36.6422 38.6133 34.8257 36.6933 34.8257 34.3467C34.8257 32 36.6422 30.08 38.6606 30.08C40.6789 30.08 42.4954 32 42.4954 34.3467C42.4954 36.6933 40.6789 38.6133 38.6606 38.6133Z" fill="currentColor"/>
</svg>
