<svg width="48" height="48" viewBox="0 0 48 48" fill="none" xmlns="http://www.w3.org/2000/svg">
<path d="M8.24968 25.5006C6.17879 25.5006 4.5 27.1794 4.5 29.2503C4.5 31.3212 6.17895 33 8.24984 33C10.3209 33 12 31.3211 12 29.25V25.5006H8.24968ZM18.75 25.5006C16.6789 25.5006 15 27.1796 15 29.2506V39.75C15 41.8211 16.6789 43.5 18.75 43.5C20.8211 43.5 22.5 41.8211 22.5 39.75V29.2506C22.5 27.1796 20.8211 25.5006 18.75 25.5006Z" fill="white"/>
<path d="M25.5006 39.7503C25.5006 41.8212 27.1794 43.5 29.2503 43.5C31.3212 43.5 33 41.8211 33 39.7502C33 37.6791 31.3211 36 29.25 36L25.5006 36L25.5006 39.7503ZM25.5006 29.25C25.5006 31.3211 27.1796 33 29.2506 33L39.75 33C41.8211 33 43.5 31.3211 43.5 29.25C43.5 27.1789 41.8211 25.5 39.75 25.5L29.2506 25.5C27.1796 25.5 25.5006 27.1789 25.5006 29.25Z" fill="white"/>
<path d="M39.7503 22.4994C41.8212 22.4994 43.5 20.8206 43.5 18.7497C43.5 16.6788 41.8211 15 39.7502 15C37.6791 15 36 16.6789 36 18.75V22.4994H39.7503ZM29.25 22.4994C31.3211 22.4994 33 20.8204 33 18.7494V8.25C33 6.17893 31.3211 4.5 29.25 4.5C27.1789 4.5 25.5 6.17893 25.5 8.25V18.7494C25.5 20.8204 27.1789 22.4994 29.25 22.4994Z" fill="white"/>
<path d="M22.4994 8.24968C22.4994 6.17879 20.8206 4.5 18.7497 4.5C16.6788 4.5 15 6.17895 15 8.24984C15 10.3209 16.6789 12 18.75 12L22.4994 12L22.4994 8.24968ZM22.4994 18.75C22.4994 16.6789 20.8204 15 18.7494 15L8.25 15C6.17893 15 4.5 16.6789 4.5 18.75C4.5 20.8211 6.17893 22.5 8.25 22.5L18.7494 22.5C20.8204 22.5 22.4994 20.8211 22.4994 18.75Z" fill="white"/>
</svg>
