<svg width="32" height="32" viewBox="0 0 32 32" fill="none" xmlns="http://www.w3.org/2000/svg">
<path d="M15.3451 6.00538C15.3021 6.00929 15.1652 6.02297 15.042 6.03275C12.2014 6.28882 9.54057 7.82134 7.85533 10.1768C6.91691 11.4865 6.31672 12.9721 6.08993 14.5457C6.00978 15.095 6 15.2572 6 16.002C6 16.7467 6.00978 16.909 6.08993 17.4582C6.63343 21.2133 9.30596 24.3683 12.9306 25.5372C13.5797 25.7464 14.2639 25.8891 15.042 25.9751C15.3451 26.0083 16.6549 26.0083 16.958 25.9751C18.3011 25.8265 19.4389 25.4942 20.5611 24.9215C20.7331 24.8335 20.7664 24.81 20.7429 24.7905C20.7273 24.7788 19.9941 23.7955 19.1144 22.607L17.5152 20.4471L15.5112 17.4817C14.4086 15.8514 13.5015 14.5183 13.4936 14.5183C13.4858 14.5163 13.478 15.8338 13.4741 17.4426C13.4682 20.2594 13.4663 20.3728 13.4311 20.4392C13.3803 20.535 13.3412 20.5741 13.259 20.6171C13.1965 20.6484 13.1417 20.6543 12.8465 20.6543H12.5083L12.4184 20.5976C12.3597 20.5604 12.3167 20.5116 12.2874 20.4549L12.2463 20.3669L12.2502 16.4476L12.2561 12.5264L12.3167 12.4502C12.348 12.4091 12.4145 12.3564 12.4614 12.3309C12.5415 12.2918 12.5728 12.2879 12.911 12.2879C13.3099 12.2879 13.3763 12.3036 13.48 12.417C13.5093 12.4482 14.5943 14.0824 15.8925 16.0508C17.1906 18.0193 18.9658 20.707 19.8377 22.0265L21.4213 24.425L21.5015 24.3722C22.2111 23.9109 22.9619 23.2541 23.5562 22.5699C24.8211 21.1175 25.6364 19.3465 25.9101 17.4582C25.9902 16.909 26 16.7467 26 16.002C26 15.2572 25.9902 15.095 25.9101 14.5457C25.3666 10.7906 22.694 7.63564 19.0694 6.4667C18.4301 6.2595 17.7498 6.1168 16.9873 6.03079C16.7996 6.01125 15.5073 5.98974 15.3451 6.00538ZM19.4389 12.0534C19.5327 12.1003 19.609 12.1902 19.6364 12.284C19.652 12.3349 19.6559 13.4217 19.652 15.871L19.6461 19.3856L19.0264 18.4356L18.4047 17.4856V14.9308C18.4047 13.279 18.4125 12.3505 18.4242 12.3055C18.4555 12.1961 18.5239 12.1101 18.6178 12.0592C18.6979 12.0182 18.7273 12.0143 19.0342 12.0143C19.3236 12.0143 19.3744 12.0182 19.4389 12.0534Z" fill="#717784"/>
</svg>
