<svg width="120" height="120" viewBox="0 0 120 120" fill="none" xmlns="http://www.w3.org/2000/svg">
<g clip-path="url(#clip0_8133_18032)">
<mask id="mask0_8133_18032" style="mask-type:alpha" maskUnits="userSpaceOnUse" x="-1" y="-1576" width="1442" height="11370">
<path d="M0 1.32422L1440 -1439" stroke="currentColor" stroke-opacity="0.08"/>
<path d="M0 9.32422L1440 -1431" stroke="currentColor" stroke-opacity="0.08"/>
<path d="M0 17.3242L1440 -1423" stroke="currentColor" stroke-opacity="0.08"/>
<path d="M0 25.3242L1440 -1415" stroke="currentColor" stroke-opacity="0.08"/>
<path d="M0 33.3242L1440 -1407" stroke="currentColor" stroke-opacity="0.08"/>
<path d="M0 41.3242L1440 -1399" stroke="currentColor" stroke-opacity="0.08"/>
<path d="M0 49.3223L1440 -1391.01" stroke="currentColor" stroke-opacity="0.08"/>
<path d="M0 57.3223L1440 -1383.01" stroke="currentColor" stroke-opacity="0.08"/>
<path d="M0 65.3223L1440 -1375.01" stroke="currentColor" stroke-opacity="0.08"/>
<path d="M0 73.3223L1440 -1367.01" stroke="currentColor" stroke-opacity="0.08"/>
<path d="M0 81.3223L1440 -1359.01" stroke="currentColor" stroke-opacity="0.08"/>
<path d="M0 89.3223L1440 -1351.01" stroke="currentColor" stroke-opacity="0.08"/>
<path d="M0 97.3223L1440 -1343.01" stroke="currentColor" stroke-opacity="0.08"/>
<path d="M0 105.32L1440 -1335.01" stroke="currentColor" stroke-opacity="0.08"/>
<path d="M0 113.32L1440 -1327.01" stroke="currentColor" stroke-opacity="0.08"/>
<path d="M0 121.32L1440 -1319.01" stroke="currentColor" stroke-opacity="0.08"/>
<path d="M0 129.32L1440 -1311.01" stroke="currentColor" stroke-opacity="0.08"/>
<path d="M0 137.32L1440 -1303.01" stroke="currentColor" stroke-opacity="0.08"/>
<path d="M0 145.32L1440 -1295.01" stroke="currentColor" stroke-opacity="0.08"/>
<path d="M0 153.32L1440 -1287.01" stroke="currentColor" stroke-opacity="0.08"/>
<path d="M0 161.32L1440 -1279.01" stroke="currentColor" stroke-opacity="0.08"/>
<path d="M0 169.318L1440 -1271.01" stroke="currentColor" stroke-opacity="0.08"/>
<path d="M0 177.318L1440 -1263.01" stroke="currentColor" stroke-opacity="0.08"/>
<path d="M0 185.318L1440 -1255.01" stroke="currentColor" stroke-opacity="0.08"/>
<path d="M0 193.318L1440 -1247.01" stroke="currentColor" stroke-opacity="0.08"/>
<path d="M0 201.318L1440 -1239.01" stroke="currentColor" stroke-opacity="0.08"/>
<path d="M0 209.318L1440 -1231.01" stroke="currentColor" stroke-opacity="0.08"/>
<path d="M0 217.318L1440 -1223.01" stroke="currentColor" stroke-opacity="0.08"/>
<path d="M0 225.316L1440 -1215.01" stroke="currentColor" stroke-opacity="0.08"/>
<path d="M0 233.316L1440 -1207.01" stroke="currentColor" stroke-opacity="0.08"/>
<path d="M0 241.316L1440 -1199.01" stroke="currentColor" stroke-opacity="0.08"/>
<path d="M0 249.316L1440 -1191.01" stroke="currentColor" stroke-opacity="0.08"/>
<path d="M0 257.316L1440 -1183.01" stroke="currentColor" stroke-opacity="0.08"/>
<path d="M0 265.316L1440 -1175.01" stroke="currentColor" stroke-opacity="0.08"/>
<path d="M0 273.316L1440 -1167.01" stroke="currentColor" stroke-opacity="0.08"/>
<path d="M0 281.316L1440 -1159.01" stroke="currentColor" stroke-opacity="0.08"/>
<path d="M0 289.314L1440 -1151.01" stroke="currentColor" stroke-opacity="0.08"/>
<path d="M0 297.314L1440 -1143.01" stroke="currentColor" stroke-opacity="0.08"/>
<path d="M0 305.314L1440 -1135.01" stroke="currentColor" stroke-opacity="0.08"/>
<path d="M0 313.314L1440 -1127.01" stroke="currentColor" stroke-opacity="0.08"/>
<path d="M0 321.314L1440 -1119.01" stroke="currentColor" stroke-opacity="0.08"/>
<path d="M0 329.314L1440 -1111.01" stroke="currentColor" stroke-opacity="0.08"/>
<path d="M0 337.314L1440 -1103.01" stroke="currentColor" stroke-opacity="0.08"/>
<path d="M0 345.312L1440 -1095.02" stroke="currentColor" stroke-opacity="0.08"/>
<path d="M0 353.312L1440 -1087.02" stroke="currentColor" stroke-opacity="0.08"/>
<path d="M0 361.312L1440 -1079.02" stroke="currentColor" stroke-opacity="0.08"/>
<path d="M0 369.312L1440 -1071.02" stroke="currentColor" stroke-opacity="0.08"/>
<path d="M0 377.312L1440 -1063.02" stroke="currentColor" stroke-opacity="0.08"/>
<path d="M0 385.312L1440 -1055.02" stroke="currentColor" stroke-opacity="0.08"/>
<path d="M0 393.312L1440 -1047.02" stroke="currentColor" stroke-opacity="0.08"/>
<path d="M0 401.311L1440 -1039.02" stroke="currentColor" stroke-opacity="0.08"/>
<path d="M0 409.311L1440 -1031.02" stroke="currentColor" stroke-opacity="0.08"/>
<path d="M0 417.311L1440 -1023.02" stroke="currentColor" stroke-opacity="0.08"/>
<path d="M0 425.311L1440 -1015.02" stroke="currentColor" stroke-opacity="0.08"/>
<path d="M0 433.311L1440 -1007.02" stroke="currentColor" stroke-opacity="0.08"/>
<path d="M0 441.311L1440 -999.018" stroke="currentColor" stroke-opacity="0.08"/>
<path d="M0 449.311L1440 -991.018" stroke="currentColor" stroke-opacity="0.08"/>
<path d="M0 457.309L1440 -983.02" stroke="currentColor" stroke-opacity="0.08"/>
<path d="M0 465.309L1440 -975.02" stroke="currentColor" stroke-opacity="0.08"/>
<path d="M0 473.309L1440 -967.02" stroke="currentColor" stroke-opacity="0.08"/>
<path d="M0 481.309L1440 -959.02" stroke="currentColor" stroke-opacity="0.08"/>
<path d="M0 489.309L1440 -951.02" stroke="currentColor" stroke-opacity="0.08"/>
<path d="M0 497.309L1440 -943.02" stroke="currentColor" stroke-opacity="0.08"/>
<path d="M0 505.307L1440 -935.022" stroke="currentColor" stroke-opacity="0.08"/>
<path d="M0 513.307L1440 -927.022" stroke="currentColor" stroke-opacity="0.08"/>
<path d="M0 521.307L1440 -919.022" stroke="currentColor" stroke-opacity="0.08"/>
<path d="M0 529.307L1440 -911.022" stroke="currentColor" stroke-opacity="0.08"/>
<path d="M0 537.307L1440 -903.022" stroke="currentColor" stroke-opacity="0.08"/>
<path d="M0 545.307L1440 -895.022" stroke="currentColor" stroke-opacity="0.08"/>
<path d="M0 553.307L1440 -887.022" stroke="currentColor" stroke-opacity="0.08"/>
<path d="M0 561.305L1440 -879.024" stroke="currentColor" stroke-opacity="0.08"/>
<path d="M0 569.305L1440 -871.024" stroke="currentColor" stroke-opacity="0.08"/>
<path d="M0 577.305L1440 -863.024" stroke="currentColor" stroke-opacity="0.08"/>
<path d="M0 585.305L1440 -855.024" stroke="currentColor" stroke-opacity="0.08"/>
<path d="M0 593.305L1440 -847.024" stroke="currentColor" stroke-opacity="0.08"/>
<path d="M0 601.305L1440 -839.024" stroke="currentColor" stroke-opacity="0.08"/>
<path d="M0 609.305L1440 -831.024" stroke="currentColor" stroke-opacity="0.08"/>
<path d="M0 617.305L1440 -823.024" stroke="currentColor" stroke-opacity="0.08"/>
<path d="M0 625.303L1440 -815.026" stroke="currentColor" stroke-opacity="0.08"/>
<path d="M0 633.303L1440 -807.026" stroke="currentColor" stroke-opacity="0.08"/>
<path d="M0 641.303L1440 -799.026" stroke="currentColor" stroke-opacity="0.08"/>
<path d="M0 649.303L1440 -791.026" stroke="currentColor" stroke-opacity="0.08"/>
<path d="M0 657.303L1440 -783.026" stroke="currentColor" stroke-opacity="0.08"/>
<path d="M0 665.303L1440 -775.026" stroke="currentColor" stroke-opacity="0.08"/>
<path d="M0 673.303L1440 -767.026" stroke="currentColor" stroke-opacity="0.08"/>
<path d="M0 681.301L1440 -759.028" stroke="currentColor" stroke-opacity="0.08"/>
<path d="M0 689.301L1440 -751.028" stroke="currentColor" stroke-opacity="0.08"/>
<path d="M0 697.301L1440 -743.028" stroke="currentColor" stroke-opacity="0.08"/>
<path d="M0 705.301L1440 -735.028" stroke="currentColor" stroke-opacity="0.08"/>
<path d="M0 713.301L1440 -727.028" stroke="currentColor" stroke-opacity="0.08"/>
<path d="M0 721.301L1440 -719.028" stroke="currentColor" stroke-opacity="0.08"/>
<path d="M0 729.301L1440 -711.028" stroke="currentColor" stroke-opacity="0.08"/>
<path d="M0 737.301L1440 -703.028" stroke="currentColor" stroke-opacity="0.08"/>
<path d="M0 745.299L1440 -695.03" stroke="currentColor" stroke-opacity="0.08"/>
<path d="M0 753.299L1440 -687.03" stroke="currentColor" stroke-opacity="0.08"/>
<path d="M0 761.299L1440 -679.03" stroke="currentColor" stroke-opacity="0.08"/>
<path d="M0 769.299L1440 -671.03" stroke="currentColor" stroke-opacity="0.08"/>
<path d="M0 777.299L1440 -663.03" stroke="currentColor" stroke-opacity="0.08"/>
<path d="M0 785.299L1440 -655.03" stroke="currentColor" stroke-opacity="0.08"/>
<path d="M0 793.297L1440 -647.032" stroke="currentColor" stroke-opacity="0.08"/>
<path d="M0 801.297L1440 -639.032" stroke="currentColor" stroke-opacity="0.08"/>
<path d="M0 809.297L1440 -631.032" stroke="currentColor" stroke-opacity="0.08"/>
<path d="M0 817.297L1440 -623.032" stroke="currentColor" stroke-opacity="0.08"/>
<path d="M0 825.297L1440 -615.032" stroke="currentColor" stroke-opacity="0.08"/>
<path d="M0 833.297L1440 -607.032" stroke="currentColor" stroke-opacity="0.08"/>
<path d="M0 841.297L1440 -599.032" stroke="currentColor" stroke-opacity="0.08"/>
<path d="M0 849.297L1440 -591.032" stroke="currentColor" stroke-opacity="0.08"/>
<path d="M0 857.297L1440 -583.032" stroke="currentColor" stroke-opacity="0.08"/>
<path d="M0 865.295L1440 -575.034" stroke="currentColor" stroke-opacity="0.08"/>
<path d="M0 873.295L1440 -567.034" stroke="currentColor" stroke-opacity="0.08"/>
<path d="M0 881.295L1440 -559.034" stroke="currentColor" stroke-opacity="0.08"/>
<path d="M0 889.295L1440 -551.034" stroke="currentColor" stroke-opacity="0.08"/>
<path d="M0 897.295L1440 -543.034" stroke="currentColor" stroke-opacity="0.08"/>
<path d="M0 905.295L1440 -535.034" stroke="currentColor" stroke-opacity="0.08"/>
<path d="M0 913.293L1440 -527.036" stroke="currentColor" stroke-opacity="0.08"/>
<path d="M0 921.293L1440 -519.036" stroke="currentColor" stroke-opacity="0.08"/>
<path d="M0 929.293L1440 -511.036" stroke="currentColor" stroke-opacity="0.08"/>
<path d="M0 937.293L1440 -503.036" stroke="currentColor" stroke-opacity="0.08"/>
<path d="M0 945.293L1440 -495.036" stroke="currentColor" stroke-opacity="0.08"/>
<path d="M0 953.293L1440 -487.036" stroke="currentColor" stroke-opacity="0.08"/>
<path d="M0 961.293L1440 -479.036" stroke="currentColor" stroke-opacity="0.08"/>
<path d="M0 969.293L1440 -471.036" stroke="currentColor" stroke-opacity="0.08"/>
<path d="M0 977.291L1440 -463.038" stroke="currentColor" stroke-opacity="0.08"/>
<path d="M0 985.291L1440 -455.038" stroke="currentColor" stroke-opacity="0.08"/>
<path d="M0 993.291L1440 -447.038" stroke="currentColor" stroke-opacity="0.08"/>
<path d="M0 1001.29L1440 -439.038" stroke="currentColor" stroke-opacity="0.08"/>
<path d="M0 1009.29L1440 -431.038" stroke="currentColor" stroke-opacity="0.08"/>
<path d="M0 1017.29L1440 -423.038" stroke="currentColor" stroke-opacity="0.08"/>
<path d="M0 1025.29L1440 -415.038" stroke="currentColor" stroke-opacity="0.08"/>
<path d="M0 1033.29L1440 -407.04" stroke="currentColor" stroke-opacity="0.08"/>
<path d="M0 1041.29L1440 -399.04" stroke="currentColor" stroke-opacity="0.08"/>
<path d="M0 1049.29L1440 -391.04" stroke="currentColor" stroke-opacity="0.08"/>
<path d="M0 1057.29L1440 -383.04" stroke="currentColor" stroke-opacity="0.08"/>
<path d="M0 1065.29L1440 -375.04" stroke="currentColor" stroke-opacity="0.08"/>
<path d="M0 1073.29L1440 -367.04" stroke="currentColor" stroke-opacity="0.08"/>
<path d="M0 1081.29L1440 -359.04" stroke="currentColor" stroke-opacity="0.08"/>
<path d="M0 1089.29L1440 -351.04" stroke="currentColor" stroke-opacity="0.08"/>
<path d="M0 1097.29L1440 -343.041" stroke="currentColor" stroke-opacity="0.08"/>
<path d="M0 1105.29L1440 -335.041" stroke="currentColor" stroke-opacity="0.08"/>
<path d="M0 1113.29L1440 -327.041" stroke="currentColor" stroke-opacity="0.08"/>
<path d="M0 1121.29L1440 -319.041" stroke="currentColor" stroke-opacity="0.08"/>
<path d="M0 1129.29L1440 -311.041" stroke="currentColor" stroke-opacity="0.08"/>
<path d="M0 1137.29L1440 -303.041" stroke="currentColor" stroke-opacity="0.08"/>
<path d="M0 1145.29L1440 -295.041" stroke="currentColor" stroke-opacity="0.08"/>
<path d="M0 1153.29L1440 -287.043" stroke="currentColor" stroke-opacity="0.08"/>
<path d="M0 1161.29L1440 -279.043" stroke="currentColor" stroke-opacity="0.08"/>
<path d="M0 1169.29L1440 -271.043" stroke="currentColor" stroke-opacity="0.08"/>
<path d="M0 1177.29L1440 -263.043" stroke="currentColor" stroke-opacity="0.08"/>
<path d="M0 1185.29L1440 -255.043" stroke="currentColor" stroke-opacity="0.08"/>
<path d="M0 1193.29L1440 -247.043" stroke="currentColor" stroke-opacity="0.08"/>
<path d="M0 1201.29L1440 -239.043" stroke="currentColor" stroke-opacity="0.08"/>
<path d="M0 1209.29L1440 -231.043" stroke="currentColor" stroke-opacity="0.08"/>
<path d="M0 1217.28L1440 -223.045" stroke="currentColor" stroke-opacity="0.08"/>
<path d="M0 1225.28L1440 -215.045" stroke="currentColor" stroke-opacity="0.08"/>
<path d="M0 1233.28L1440 -207.045" stroke="currentColor" stroke-opacity="0.08"/>
<path d="M0 1241.28L1440 -199.045" stroke="currentColor" stroke-opacity="0.08"/>
<path d="M0 1249.28L1440 -191.045" stroke="currentColor" stroke-opacity="0.08"/>
<path d="M0 1257.28L1440 -183.045" stroke="currentColor" stroke-opacity="0.08"/>
<path d="M0 1265.28L1440 -175.047" stroke="currentColor" stroke-opacity="0.08"/>
<path d="M0 1273.28L1440 -167.047" stroke="currentColor" stroke-opacity="0.08"/>
<path d="M0 1281.28L1440 -159.047" stroke="currentColor" stroke-opacity="0.08"/>
<path d="M0 1289.28L1440 -151.047" stroke="currentColor" stroke-opacity="0.08"/>
<path d="M0 1297.28L1440 -143.047" stroke="currentColor" stroke-opacity="0.08"/>
<path d="M0 1305.28L1440 -135.047" stroke="currentColor" stroke-opacity="0.08"/>
<path d="M0 1313.28L1440 -127.047" stroke="currentColor" stroke-opacity="0.08"/>
<path d="M0 1321.28L1440 -119.047" stroke="currentColor" stroke-opacity="0.08"/>
<path d="M0 1329.28L1440 -111.047" stroke="currentColor" stroke-opacity="0.08"/>
<path d="M0 1337.28L1440 -103.049" stroke="currentColor" stroke-opacity="0.08"/>
<path d="M0 1345.28L1440 -95.0493" stroke="currentColor" stroke-opacity="0.08"/>
<path d="M0 1353.28L1440 -87.0493" stroke="currentColor" stroke-opacity="0.08"/>
<path d="M0 1361.28L1440 -79.0493" stroke="currentColor" stroke-opacity="0.08"/>
<path d="M0 1369.28L1440 -71.0493" stroke="currentColor" stroke-opacity="0.08"/>
<path d="M0 1377.28L1440 -63.0493" stroke="currentColor" stroke-opacity="0.08"/>
<path d="M0 1385.28L1440 -55.0513" stroke="currentColor" stroke-opacity="0.08"/>
<path d="M0 1393.28L1440 -47.0513" stroke="currentColor" stroke-opacity="0.08"/>
<path d="M0 1401.28L1440 -39.0513" stroke="currentColor" stroke-opacity="0.08"/>
<path d="M0 1409.28L1440 -31.0513" stroke="currentColor" stroke-opacity="0.08"/>
<path d="M0 1417.28L1440 -23.0513" stroke="currentColor" stroke-opacity="0.08"/>
<path d="M0 1425.28L1440 -15.0513" stroke="currentColor" stroke-opacity="0.08"/>
<path d="M0 1433.28L1440 -7.05126" stroke="currentColor" stroke-opacity="0.08"/>
<path d="M0 1441.28L1440 0.948738" stroke="currentColor" stroke-opacity="0.08"/>
<path d="M0 1449.28L1440 8.94679" stroke="currentColor" stroke-opacity="0.08"/>
<path d="M0 1457.28L1440 16.9468" stroke="currentColor" stroke-opacity="0.08"/>
<path d="M0 1465.28L1440 24.9468" stroke="currentColor" stroke-opacity="0.08"/>
<path d="M0 1473.28L1440 32.9468" stroke="currentColor" stroke-opacity="0.08"/>
<path d="M0 1481.28L1440 40.9468" stroke="currentColor" stroke-opacity="0.08"/>
<path d="M0 1489.28L1440 48.9468" stroke="currentColor" stroke-opacity="0.08"/>
<path d="M0 1497.28L1440 56.9468" stroke="currentColor" stroke-opacity="0.08"/>
<path d="M0 1505.27L1440 64.9448" stroke="currentColor" stroke-opacity="0.08"/>
<path d="M0 1513.27L1440 72.9448" stroke="currentColor" stroke-opacity="0.08"/>
<path d="M0 1521.27L1440 80.9448" stroke="currentColor" stroke-opacity="0.08"/>
<path d="M0 1529.27L1440 88.9448" stroke="currentColor" stroke-opacity="0.08"/>
<path d="M0 1537.27L1440 96.9448" stroke="currentColor" stroke-opacity="0.08"/>
<path d="M0 1545.27L1440 104.945" stroke="currentColor" stroke-opacity="0.08"/>
<path d="M0 1553.27L1440 112.945" stroke="currentColor" stroke-opacity="0.08"/>
</mask>
<g mask="url(#mask0_8133_18032)">
<rect width="120" height="120" fill="currentColor"/>
<rect x="0.5" y="0.5" width="119" height="119" stroke="currentColor" stroke-opacity="0.08"/>
</g>
</g>
<defs>
<clipPath id="clip0_8133_18032">
<rect width="120" height="120" fill="currentColor"/>
</clipPath>
</defs>
</svg>
