<svg width="32" height="32" viewBox="0 0 32 32" fill="none" xmlns="http://www.w3.org/2000/svg">
<path d="M6.4 5.19922H25.6C26.2365 5.19922 26.847 5.45208 27.2971 5.90216C27.7471 6.35225 28 6.9627 28 7.59922V14.7992C28 17.9818 26.7357 21.0341 24.4853 23.2845C22.2348 25.5349 19.1826 26.7992 16 26.7992C14.4241 26.7992 12.8637 26.4888 11.4078 25.8858C9.95189 25.2827 8.62902 24.3988 7.51472 23.2845C5.26428 21.0341 4 17.9818 4 14.7992V7.59922C4 6.9627 4.25286 6.35225 4.70294 5.90216C5.15303 5.45208 5.76348 5.19922 6.4 5.19922V5.19922Z" stroke="white" stroke-width="2" stroke-linecap="round" stroke-linejoin="round"/>
<path d="M11.1992 13.5996L15.9992 18.3996L20.7992 13.5996" stroke="white" stroke-width="2" stroke-linecap="round" stroke-linejoin="round"/>
</svg>
