<svg width="48" height="48" viewBox="0 0 48 48" fill="none" xmlns="http://www.w3.org/2000/svg">
<path d="M24.0124 44.4967L32.2924 19.0137H15.7324L24.0124 44.4967Z" fill="currentColor"/>
<path d="M24.0156 44.4967L32.2956 19.0137H43.8998L24.0156 44.4967Z" fill="currentColor"/>
<path d="M43.8998 19.0137L46.416 26.7577C46.6455 27.464 46.3941 28.2378 45.7933 28.6743L24.0156 44.4967L43.8998 19.0137Z" fill="currentColor"/>
<path d="M24.0131 44.4967L15.7331 19.0137H4.12891L24.0131 44.4967Z" fill="currentColor"/>
<path d="M4.12751 19.0137L1.61137 26.7577C1.38187 27.464 1.63323 28.2378 2.23409 28.6743L24.0117 44.4967L4.12751 19.0137Z" fill="currentColor"/>
<path d="M43.8972 19.0147H32.293L37.28 3.66653C37.5365 2.87667 38.6538 2.87689 38.9103 3.66653L43.8972 19.0147Z" fill="currentColor"/>
<path d="M4.12891 19.0147H15.7331L10.746 3.66653C10.4895 2.87667 9.37226 2.87689 9.11576 3.66653L4.12891 19.0147Z" fill="currentColor"/>
</svg>
