<svg width="48" height="48" viewBox="0 0 48 48" fill="none" xmlns="http://www.w3.org/2000/svg">
<path d="M16.8721 20.3683V20.0636C16.8721 19.2913 17.4907 18.6507 18.2879 18.5975L24.0949 18.2098L32.1256 30.0355V19.6565L30.0585 19.3809V19.2362C30.0585 18.4548 30.6912 17.81 31.4986 17.7687L36.7824 17.498V18.2584C36.7824 18.6153 36.5169 18.9206 36.1531 18.9822L34.8816 19.1972V36.0058L33.2859 36.5546C31.9527 37.013 30.4686 36.5223 29.7054 35.3706L21.9091 23.606V34.8347L24.3088 35.2939L24.2753 35.5165C24.1706 36.2137 23.5687 36.741 22.8405 36.7735L16.8721 37.0391C16.7932 36.2894 17.3552 35.6186 18.1304 35.5372L18.9154 35.4547V20.4831L16.8721 20.3683Z" fill="white"/>
<path fill-rule="evenodd" clip-rule="evenodd" d="M31.0123 4.45042L7.08521 6.08402C5.65198 6.18187 4.54102 7.33411 4.54102 8.72273V31.9951C4.54102 33.2998 4.99015 34.5674 5.81765 35.5983L10.9767 42.0253C11.8108 43.0644 13.1235 43.6366 14.4815 43.553L41.038 41.9183C42.3991 41.8345 43.4586 40.7431 43.4586 39.425V12.9666C43.4586 12.1511 43.0468 11.387 42.3554 10.9195L33.9487 5.23568C33.0919 4.65643 32.0553 4.37921 31.0123 4.45042ZM8.2717 9.08574C7.93892 8.83936 8.09729 8.32606 8.51535 8.29608L31.1733 6.67091C31.8952 6.61913 32.6126 6.81792 33.1964 7.23156L37.7425 10.4524C37.9151 10.5747 37.8342 10.8387 37.6205 10.8503L13.6258 12.1553C12.8997 12.1948 12.1829 11.9815 11.6055 11.554L8.2717 9.08574ZM12.5004 16.2463C12.5004 15.4668 13.1301 14.8229 13.9354 14.779L39.3046 13.3974C40.0894 13.3547 40.7501 13.9582 40.7501 14.718V37.6281C40.7501 38.4062 40.1226 39.0495 39.3189 39.0952L14.1103 40.5295C13.2369 40.5792 12.5004 39.9081 12.5004 39.0625V16.2463Z" fill="white"/>
</svg>
