<svg width="56" height="56" viewBox="0 0 56 56" fill="none" xmlns="http://www.w3.org/2000/svg">
<path d="M17.2705 34.3878C16.7348 33.5767 18.0822 32.3492 17.5341 31.3186C17.2182 30.7241 16.7018 30.3538 16.0817 30.276C15.4865 30.2013 14.8733 30.4192 14.4825 30.845C13.8655 31.5165 13.7696 32.4305 13.8889 32.7539C13.9326 32.8724 14.0012 32.9048 14.0504 32.9117C14.3864 32.9559 14.5756 32.0934 14.6916 31.9138C15.0124 31.4186 15.7408 31.2688 16.2439 31.5942C17.1978 32.2112 16.3707 33.2083 16.442 34.0505C16.5115 34.8706 17.0224 35.2001 17.4811 35.2348C17.9273 35.2517 18.2393 35.0038 18.3181 34.8228C18.507 34.3909 17.7113 35.0551 17.2705 34.3878Z" fill="currentColor"/>
<path d="M37.201 26.9427C36.9508 26.9081 36.6773 26.9089 36.3928 26.9427C36.1768 26.6701 35.9833 26.2289 35.8741 25.7138C35.6799 24.7975 35.7001 24.1338 36.2423 24.0475C36.7844 23.9613 37.0465 24.5157 37.2408 25.432C37.371 26.048 37.3461 26.6139 37.201 26.9427Z" fill="currentColor"/>
<path d="M31.2631 27.4879C31.2845 27.6954 31.2921 27.9053 31.286 28.0986C31.8106 28.1294 32.1821 28.3786 32.2811 28.5367C32.3318 28.6183 32.3115 28.6714 32.2951 28.6961C32.2409 28.7805 32.1245 28.7675 31.8807 28.7401C31.6677 28.7162 31.4384 28.6952 31.2001 28.7062C31.0704 29.1039 30.6859 29.1411 30.4158 28.847C30.227 28.9045 29.8563 29.1412 29.7459 28.8839C29.7449 28.7563 29.8784 28.5708 30.1201 28.4069C29.9551 28.0921 29.8445 27.7551 29.7792 27.4062C29.4365 27.4679 29.1282 27.5639 28.8866 27.6392C28.7731 27.6745 28.3242 27.8773 28.2716 27.6487C28.2365 27.4909 28.4822 27.2306 28.742 27.0428C29.0322 26.8367 29.3542 26.6902 29.688 26.6057C29.6808 26.1087 29.8077 25.762 30.1687 25.7046C30.6164 25.6333 30.8939 25.978 31.0859 26.6163C31.627 26.7666 32.1674 27.1394 32.4059 27.5248C32.4987 27.6742 32.5167 27.7897 32.4566 27.8505C32.3066 28.0059 31.4759 27.5554 31.2631 27.4879Z" fill="currentColor"/>
<path d="M34.821 29.7216C35.1642 29.8879 35.5418 29.8225 35.665 29.5753C35.7883 29.3282 35.6096 28.9932 35.2664 28.8269C34.9232 28.6606 34.5456 28.726 34.4224 28.9732C34.2991 29.2204 34.4778 29.5553 34.821 29.7216Z" fill="currentColor"/>
<path d="M36.5105 28.4942C36.5168 28.1162 36.7485 27.8143 37.0269 27.819C37.3054 27.8243 37.5262 28.1339 37.5199 28.5112C37.5137 28.8885 37.282 29.1903 37.0035 29.1857C36.7251 29.1811 36.5043 28.8715 36.5105 28.4942Z" fill="currentColor"/>
<path fill-rule="evenodd" clip-rule="evenodd" d="M44.0624 33.1243C44.0601 33.1164 44.0678 33.1435 44.0624 33.1243C44.6217 33.1243 45.5 33.7587 45.5 35.2918C45.5 36.8172 44.8588 38.545 44.7075 38.9285C42.3977 44.3924 36.885 47.4339 30.3185 47.2414C24.1966 47.062 18.9756 43.8734 16.6908 38.6752C15.3093 38.6767 13.885 38.0769 12.8022 37.1298C11.661 36.1319 10.9574 34.8406 10.8201 33.4939C10.7132 32.4451 10.8435 31.4695 11.1766 30.6187L9.89339 29.5453C4.0211 24.6512 22.3876 4.50038 28.2615 9.55772C28.2911 9.58313 30.26 11.4896 30.2647 11.4943C33.0969 10.3072 40.6855 8.0472 40.6941 13.3084C40.6972 15.0555 39.5692 17.0929 37.7618 18.9417C39.8506 20.8538 39.2998 23.5698 39.6324 26.0618L40.3578 26.2605C41.7409 26.6432 42.7245 27.1537 43.2058 27.6527C43.6871 28.1508 43.9258 28.6336 44.0124 29.1996C44.0936 29.6562 44.0826 30.4624 43.4726 31.364C43.6923 31.9457 43.8928 32.5256 44.0624 33.1243ZM16.5871 37.2576C16.7922 37.2622 16.9958 37.2491 17.1955 37.2153C19.3415 36.8541 19.9031 34.5534 19.5498 32.2942C19.1504 29.7432 17.4022 28.8438 16.2158 28.7799C15.8858 28.763 15.5792 28.7923 15.3265 28.8423C13.2086 29.2635 12.0128 31.0422 12.2484 33.3522C12.4614 35.4427 14.6034 37.2052 16.5871 37.2576ZM11.7905 29.4691C12.5011 28.4504 13.6626 27.7135 14.9809 27.4602C16.6589 23.0142 19.4608 18.9178 23.1692 16.0989C25.9213 13.8327 28.8894 12.2073 28.8894 12.2073C28.8894 12.2073 27.2911 10.3778 26.8082 10.243C23.8385 9.45147 17.4249 13.8173 13.3296 19.5862C11.6727 21.92 9.30055 26.0534 10.4348 28.1793C10.5744 28.4427 11.3661 29.1195 11.7905 29.4691ZM35.867 36.2366C35.8717 36.2843 35.8421 36.3336 35.7992 36.3513C35.7992 36.3513 33.413 37.447 29.6227 36.2897C29.759 37.4259 31.1368 37.8564 32.0994 38.0122C36.7961 38.8099 41.187 36.1588 42.1754 35.4912C42.3451 35.3766 42.1733 35.6713 42.1426 35.7145C40.9328 37.2553 37.6799 39.0394 33.4481 39.0386C31.6025 39.0378 29.7576 38.3964 29.0805 37.4101C28.0298 35.8801 29.0283 33.6463 30.7795 33.8789C33.7396 34.2088 36.7743 33.9609 39.5146 32.7054C41.9039 31.6104 42.8065 30.4062 42.6707 29.4306C42.4602 27.9186 40.2186 27.6822 39.0856 27.3146C38.5926 27.1537 38.3492 27.0251 38.2938 26.1096C38.2696 25.71 38.1994 24.3155 38.1737 23.7388C38.1284 22.7293 38.0052 21.3487 37.1378 20.7789C36.9115 20.6303 36.6604 20.5587 36.3959 20.5448C36.1851 20.5348 36.0601 20.5637 35.9928 20.5793C35.9777 20.5828 35.9656 20.5856 35.956 20.5872C35.4876 20.6658 35.2006 20.9028 34.8621 21.1822C34.8426 21.1983 34.8229 21.2145 34.803 21.2309C33.7211 22.121 32.8076 22.2665 31.7912 22.2234C31.4747 22.2102 31.1484 22.1786 30.8043 22.1452C30.4877 22.1145 30.156 22.0824 29.8029 22.0617L29.3715 22.0371C27.6694 21.9508 25.8441 23.4015 25.5406 25.462C25.2016 27.762 26.4871 29.1707 27.3232 30.0869C27.5298 30.3133 27.7089 30.5096 27.8293 30.6818C27.9065 30.7858 27.9962 30.9321 27.9962 31.0714C27.9962 31.2378 27.887 31.3694 27.7802 31.4819C26.0438 33.2444 25.4883 36.0449 26.1428 38.3787C26.2247 38.6698 26.3285 38.9485 26.4509 39.2149C27.9861 42.7562 32.7491 44.4055 37.4014 42.9055C40.662 41.8542 43.5428 39.3138 44.1294 35.8092C44.2691 34.896 44.0639 34.5434 43.7846 34.3732C43.489 34.1938 43.1349 34.2562 43.1349 34.2562C43.1349 34.2562 42.9734 33.1651 42.5163 32.1733C41.1597 33.2297 39.414 33.972 38.0848 34.3486C35.9551 34.9516 33.6547 35.1864 31.454 34.902C30.5614 34.7867 29.9616 34.7092 29.7046 35.5336C32.6399 36.5946 35.7469 36.1403 35.7469 36.1403C35.807 36.1342 35.8608 36.1773 35.867 36.2366ZM27.3979 15.6461C25.7926 16.4569 24 17.9006 22.5444 19.5615C22.4929 19.6208 22.5694 19.7024 22.6326 19.657C23.89 18.7538 25.6139 17.9145 27.8722 17.3709C30.4019 16.7618 32.8373 17.0175 34.3249 17.3539C34.3998 17.3709 34.4466 17.2438 34.3802 17.2069C33.3974 16.6625 31.8887 16.2929 30.8185 16.2852C30.7662 16.2844 30.7366 16.2244 30.7678 16.1828C30.9527 15.9372 31.2062 15.6946 31.4379 15.519C31.4893 15.479 31.4581 15.3966 31.3926 15.4005C30.0613 15.4812 27.0204 16.8677 27.0313 16.8173C27.1093 16.4477 27.355 15.9595 27.4822 15.7316C27.5126 15.6777 27.4533 15.6184 27.3979 15.6461Z" fill="currentColor"/>
</svg>
