<svg width="49" height="48" viewBox="0 0 49 48" fill="none" xmlns="http://www.w3.org/2000/svg">
<path fill-rule="evenodd" clip-rule="evenodd" d="M19.8576 3C16.562 3 13.8904 5.5868 13.8904 8.77777V12.7778H24.2182V13.8889H9.30022C6.00462 13.8889 3.33301 16.4757 3.33301 19.6667L3.33301 28.3333C3.33301 31.5243 6.00462 34.1111 9.30022 34.1111H12.7428V29.2222C12.7428 26.0312 15.4144 23.4444 18.71 23.4444H29.7264C32.515 23.4444 34.7756 21.2556 34.7756 18.5555V8.77777C34.7756 5.5868 32.104 3 28.8084 3H19.8576ZM18.4805 10.1111C19.6213 10.1111 20.5461 9.21568 20.5461 8.11111C20.5461 7.00654 19.6213 6.11111 18.4805 6.11111C17.3398 6.11111 16.415 7.00654 16.415 8.11111C16.415 9.21568 17.3398 10.1111 18.4805 10.1111Z" fill="url(#paint0_linear_8186_6960)"/>
<path fill-rule="evenodd" clip-rule="evenodd" d="M28.8087 44.9998C32.1042 44.9998 34.7759 42.413 34.7759 39.222V35.222L24.448 35.222L24.448 34.1109L39.366 34.1109C42.6616 34.1109 45.3332 31.5241 45.3332 28.3331V19.6664C45.3332 16.4755 42.6616 13.8887 39.366 13.8887L35.9234 13.8887V18.7776C35.9234 21.9685 33.2518 24.5553 29.9562 24.5553L18.9398 24.5553C16.1512 24.5553 13.8906 26.7442 13.8906 29.4442L13.8906 39.222C13.8906 42.413 16.5622 44.9998 19.8578 44.9998H28.8087ZM30.1857 37.8887C29.0449 37.8887 28.1201 38.7841 28.1201 39.8887C28.1201 40.9932 29.0449 41.8887 30.1857 41.8887C31.3265 41.8887 32.2513 40.9932 32.2513 39.8887C32.2513 38.7841 31.3265 37.8887 30.1857 37.8887Z" fill="url(#paint1_linear_8186_6960)"/>
<defs>
<linearGradient id="paint0_linear_8186_6960" x1="19.0543" y1="3" x2="19.0543" y2="34.1111" gradientUnits="userSpaceOnUse">
<stop stop-color="#327EBD"/>
<stop offset="1" stop-color="#1565A7"/>
</linearGradient>
<linearGradient id="paint1_linear_8186_6960" x1="29.6119" y1="13.8887" x2="29.6119" y2="44.9998" gradientUnits="userSpaceOnUse">
<stop stop-color="#FFDA4B"/>
<stop offset="1" stop-color="#F9C600"/>
</linearGradient>
</defs>
</svg>
