<svg width="32" height="32" viewBox="0 0 32 32" fill="none" xmlns="http://www.w3.org/2000/svg">
<path d="M16 17.7813C16.9838 17.7813 17.7813 16.9838 17.7813 16C17.7813 15.0162 16.9838 14.2188 16 14.2188C15.0162 14.2188 14.2188 15.0162 14.2188 16C14.2188 16.9838 15.0162 17.7813 16 17.7813Z" fill="#717784"/>
<path d="M22.7656 13.0625C22.4219 12.9375 22.0625 12.8125 21.6875 12.7031C21.7812 12.3281 21.8594 11.9531 21.9219 11.5938C22.25 9.53125 21.8906 8.07812 20.8906 7.51562C20.5937 7.34375 20.2656 7.26562 19.8906 7.26562C18.7969 7.26562 17.4062 8.07813 16 9.4375C14.5937 8.07813 13.2031 7.26562 12.1094 7.26562C11.7344 7.26562 11.4062 7.34375 11.1094 7.51562C10.1094 8.09375 9.75 9.54688 10.0781 11.5938C10.1406 11.9531 10.2187 12.3281 10.3125 12.7031C9.9375 12.8125 9.57812 12.9219 9.23438 13.0625C7.28125 13.8125 6.21875 14.8438 6.21875 16C6.21875 17.1563 7.29688 18.1875 9.23438 18.9375C9.57812 19.0625 9.9375 19.1875 10.3125 19.2969C10.2187 19.6719 10.1406 20.0469 10.0781 20.4063C9.75 22.4688 10.1094 23.9219 11.1094 24.4844C11.4062 24.6563 11.7344 24.7344 12.1094 24.7344C13.2187 24.7344 14.6094 23.9219 16 22.5625C17.4062 23.9219 18.7969 24.7344 19.8906 24.7344C20.2656 24.7344 20.5937 24.6563 20.8906 24.4844C21.8906 23.9063 22.25 22.4531 21.9219 20.4063C21.8594 20.0469 21.7812 19.6719 21.6875 19.2969C22.0625 19.1875 22.4219 19.0781 22.7656 18.9375C24.7187 18.1875 25.7812 17.1563 25.7812 16C25.7812 14.8438 24.7187 13.8125 22.7656 13.0625ZM20.4531 8.29688C21.0937 8.67188 21.3125 9.82813 21.0469 11.4688C21 11.7969 20.9219 12.1406 20.8281 12.5C20.0156 12.3125 19.1562 12.1875 18.25 12.1094C17.7187 11.3594 17.1719 10.6875 16.625 10.0781C17.7812 8.9375 18.9531 8.15625 19.9062 8.15625C20.1094 8.15625 20.2969 8.20312 20.4531 8.29688ZM18.7031 17.5625C18.4219 18.0625 18.0937 18.5625 17.75 19.0625C17.1719 19.1094 16.5937 19.125 16 19.125C15.3906 19.125 14.8125 19.1094 14.25 19.0625C13.9062 18.5625 13.5937 18.0625 13.3125 17.5625C13.0156 17.0469 12.7344 16.5156 12.4844 16C12.7344 15.4844 13.0156 14.9531 13.3125 14.4375C13.5937 13.9375 13.9219 13.4375 14.2656 12.9375C14.8437 12.8906 15.4219 12.875 16.0156 12.875C16.625 12.875 17.2031 12.8906 17.7656 12.9375C18.1094 13.4375 18.4219 13.9375 18.7031 14.4375C19 14.9531 19.2812 15.4844 19.5312 16C19.2656 16.5156 19 17.0313 18.7031 17.5625ZM20 17.0469C20.2344 17.5938 20.4219 18.125 20.5937 18.6563C20.0625 18.7813 19.5 18.875 18.9062 18.9531C19.0937 18.6563 19.2969 18.3438 19.4687 18.0156C19.6562 17.6875 19.8281 17.3594 20 17.0469ZM16 21.2813C15.625 20.875 15.2656 20.4375 14.9219 19.9844C15.2812 20 15.6406 20.0156 16 20.0156C16.3594 20.0156 16.7187 20 17.0781 19.9844C16.7344 20.4375 16.375 20.875 16 21.2813ZM13.0937 18.9375C12.5 18.8594 11.9375 18.7656 11.4062 18.6406C11.5781 18.125 11.7656 17.5781 12 17.0313C12.1719 17.3438 12.3437 17.6719 12.5312 17.9844C12.7187 18.3281 12.9062 18.625 13.0937 18.9375ZM12 14.9531C11.7656 14.4062 11.5781 13.875 11.4062 13.3438C11.9375 13.2188 12.5 13.125 13.0937 13.0469C12.9062 13.3438 12.7031 13.6563 12.5312 13.9844C12.3437 14.3125 12.1719 14.6406 12 14.9531ZM16 10.7188C16.375 11.125 16.7344 11.5625 17.0781 12.0156C16.7187 12 16.3594 11.9844 16 11.9844C15.6406 11.9844 15.2812 12 14.9219 12.0156C15.2656 11.5625 15.625 11.125 16 10.7188ZM19.4687 14L18.9062 13.0625C19.5 13.1406 20.0625 13.2344 20.5937 13.3594C20.4219 13.875 20.2344 14.4219 20 14.9688C19.8281 14.6406 19.6562 14.3125 19.4687 14ZM10.9531 11.4688C10.6875 9.82813 10.9062 8.67188 11.5469 8.29688C11.7031 8.20312 11.8906 8.15625 12.0937 8.15625C13.0312 8.15625 14.2031 8.92188 15.375 10.0781C14.8281 10.6719 14.2812 11.3594 13.75 12.1094C12.8437 12.1875 11.9844 12.3281 11.1719 12.5C11.0781 12.1406 11.0156 11.7969 10.9531 11.4688ZM7.09375 16C7.09375 15.2656 7.98438 14.4844 9.54687 13.9063C9.85937 13.7813 10.2031 13.6719 10.5469 13.5781C10.7969 14.3594 11.1094 15.1875 11.4844 16.0156C11.1094 16.8438 10.7812 17.6563 10.5469 18.4375C8.39062 17.8125 7.09375 16.875 7.09375 16ZM11.5469 23.7031C10.9062 23.3281 10.6875 22.1719 10.9531 20.5313C11 20.2031 11.0781 19.8594 11.1719 19.5C11.9844 19.6875 12.8437 19.8125 13.75 19.8906C14.2812 20.6406 14.8281 21.3125 15.375 21.9219C14.2187 23.0625 13.0469 23.8438 12.0937 23.8438C11.8906 23.8438 11.7031 23.7969 11.5469 23.7031ZM21.0469 20.5313C21.3125 22.1719 21.0937 23.3281 20.4531 23.7031C20.2969 23.7969 20.1094 23.8438 19.9062 23.8438C18.9687 23.8438 17.7969 23.0781 16.625 21.9219C17.1719 21.3281 17.7187 20.6406 18.25 19.8906C19.1562 19.8125 20.0156 19.6719 20.8281 19.5C20.9219 19.8594 20.9844 20.2031 21.0469 20.5313ZM22.4531 18.0938C22.1406 18.2188 21.7969 18.3281 21.4531 18.4219C21.2031 17.6406 20.8906 16.8125 20.5156 15.9844C20.8906 15.1563 21.2187 14.3438 21.4531 13.5625C23.6094 14.1875 24.9062 15.125 24.9062 16C24.9062 16.7344 24 17.5156 22.4531 18.0938Z" fill="#717784"/>
</svg>
