<svg width="48" height="48" viewBox="0 0 48 48" fill="none" xmlns="http://www.w3.org/2000/svg">
<path fill-rule="evenodd" clip-rule="evenodd" d="M19.7826 17.459C19.7603 17.459 19.7173 17.459 19.695 17.459C19.3256 17.4139 19.0215 17.0754 19.0215 16.6918C18.9992 16.3307 18.8033 7.89108 23.5642 5.97307C24.76 5.49914 25.8698 5.58935 26.8045 6.28902C27.9558 7.12393 28.7821 8.79375 29.2821 11.2309C29.6292 12.9459 29.6945 14.4351 29.6945 14.5029C29.7168 14.8639 29.4349 15.1348 29.064 15.067C28.6946 15.0219 28.3905 14.6835 28.3905 14.3223C28.3252 12.7879 27.8252 8.56816 26.174 7.34953C25.6517 6.96596 24.9989 6.92078 24.217 7.23673C20.1297 8.88396 20.3255 16.8046 20.3255 16.8948C20.3255 17.2108 20.109 17.459 19.7826 17.459Z" fill="#595961"/>
<path opacity="0.46" fill-rule="evenodd" clip-rule="evenodd" d="M26.5654 6.33479C25.696 5.70289 24.6752 5.61268 23.5655 6.04143C21.6308 6.83116 20.2615 8.9073 19.5879 12.0665C19.0879 14.3907 19.1532 16.4894 19.1532 16.5796C19.1532 16.6924 19.1962 16.8054 19.2838 16.8956C19.3698 16.9858 19.4573 17.0536 19.5657 17.0536C19.5879 17.0536 19.6102 17.0536 19.6309 17.0536C19.8268 17.0536 19.9796 16.8956 19.9796 16.6924C19.9796 16.6022 19.7838 8.54617 23.9795 6.85375C24.8266 6.51536 25.5654 6.56039 26.1752 7.01173C27.9347 8.29798 28.4569 12.6533 28.5222 14.2103C28.5222 14.4359 28.7181 14.6616 28.957 14.6841C29.175 14.7067 29.3486 14.5487 29.3486 14.3231C29.3263 14.0523 29.0875 8.18518 26.5654 6.33479Z" fill="#B2B2C2"/>
<path opacity="0.46" fill-rule="evenodd" clip-rule="evenodd" d="M19.5872 16.7827C19.565 16.7827 19.565 16.7827 19.5442 16.7827C19.4137 16.7602 19.3038 16.6248 19.2831 16.4894C19.2831 16.399 19.2178 14.3456 19.7178 12.0213C20.3691 8.92985 21.7399 6.8763 23.63 6.10901C24.6953 5.68026 25.6523 5.77062 26.4786 6.35735C28.9133 8.13997 29.1521 13.9169 29.1521 14.1651C29.1521 14.3005 29.0438 14.3907 28.9132 14.3682C28.7827 14.3456 28.6743 14.2328 28.6521 14.0749C28.6521 14.0071 28.4132 8.34312 26.2175 6.71833C25.5647 6.24455 24.7606 6.17678 23.8482 6.53776C19.5872 8.32053 19.7831 16.4894 19.7831 16.5796C19.8039 16.6924 19.7178 16.7827 19.5872 16.7827Z" fill="#B2B2C2"/>
<path opacity="0.62" fill-rule="evenodd" clip-rule="evenodd" d="M20.8686 11.7737C20.9992 11.4125 21.1297 11.029 21.2172 10.668C21.1742 10.8034 20.9561 12.0218 19.5645 12.0218C19.5645 12.0218 20.3686 12.1798 20.8686 11.7737Z" fill="#595961"/>
<path opacity="0.62" fill-rule="evenodd" clip-rule="evenodd" d="M21.3484 10.327C21.5219 9.98859 21.6955 9.65005 21.8483 9.28906C21.783 9.40186 21.3483 10.5753 20.0219 10.3948C19.9997 10.3948 20.8039 10.6429 21.3484 10.327Z" fill="#595961"/>
<path opacity="0.62" fill-rule="evenodd" clip-rule="evenodd" d="M21.9787 9.08712C22.2398 8.81635 22.4564 8.52298 22.6953 8.20703C22.6092 8.29724 21.8912 9.22251 20.6094 8.88397C20.6094 8.88397 21.3482 9.29028 21.9787 9.08712Z" fill="#595961"/>
<path opacity="0.62" fill-rule="evenodd" clip-rule="evenodd" d="M28.4982 8.86206C28.3246 8.45575 28.1287 8.07218 27.9328 7.66602C27.9981 7.8014 28.6509 9.08766 27.9121 10.0128C27.9121 10.0128 28.4774 9.56159 28.4982 8.86206Z" fill="#595961"/>
<path opacity="0.62" fill-rule="evenodd" clip-rule="evenodd" d="M22.7824 8.04914C23.0866 7.82354 23.3684 7.59779 23.6518 7.34961C23.5435 7.41738 22.6519 8.16193 21.4131 7.62038C21.4131 7.62038 22.1296 8.13934 22.7824 8.04914Z" fill="#595961"/>
<path opacity="0.62" fill-rule="evenodd" clip-rule="evenodd" d="M23.9564 7.30355C24.3259 7.19076 24.6745 7.05537 25.0217 6.91998C24.8911 6.96501 23.7828 7.37117 22.6953 6.51367C22.7176 6.51367 23.2829 7.19076 23.9564 7.30355Z" fill="#595961"/>
<path opacity="0.62" fill-rule="evenodd" clip-rule="evenodd" d="M27.3053 6.8299C26.9566 6.53654 26.6094 6.26576 26.2607 6.01758C26.3913 6.13038 27.544 6.96529 27.4788 8.2291C27.4565 8.2291 27.6524 7.4844 27.3053 6.8299Z" fill="#595961"/>
<path opacity="0.62" fill-rule="evenodd" clip-rule="evenodd" d="M26.2826 7.39339C26.4993 7.64172 26.7396 7.88991 26.9992 8.1155C26.9131 8.02529 26.1744 7.28059 26.3479 6.35547C26.3257 6.35547 26.0868 6.87443 26.2826 7.39339Z" fill="#595961"/>
<path opacity="0.62" fill-rule="evenodd" clip-rule="evenodd" d="M25.0211 6.89877C25.3252 6.94395 25.6294 6.96654 25.9335 6.98913C25.8252 6.96654 24.8682 6.89877 24.3252 5.99609C24.3252 5.99609 24.5434 6.60541 25.0211 6.89877Z" fill="#595961"/>
<path opacity="0.74" fill-rule="evenodd" clip-rule="evenodd" d="M28.9132 14.0508C28.9132 13.8025 28.6744 8.09334 26.3051 6.35589C25.8481 6.01735 25.3481 5.85938 24.8259 5.85938C24.4342 5.85938 24.0217 5.94958 23.587 6.13015C21.6954 6.87485 20.3691 8.88322 19.7178 11.9521C19.2178 14.2538 19.2831 16.3074 19.2831 16.3976C19.2831 16.4653 19.3484 16.533 19.4136 16.533H19.4344C19.4997 16.533 19.5442 16.4879 19.5442 16.4202C19.5442 16.33 19.3261 8.09334 23.6953 6.3333C24.6523 5.94958 25.4787 6.01735 26.1745 6.53631C28.434 8.18369 28.6744 13.938 28.6744 14.0056C28.6744 14.0734 28.7397 14.141 28.8049 14.141C28.8049 14.141 28.8049 14.141 28.8257 14.141C28.8702 14.1636 28.9132 14.1184 28.9132 14.0508Z" fill="url(#paint0_linear_8186_6807)"/>
<path fill-rule="evenodd" clip-rule="evenodd" d="M29.2818 11.2312C28.7818 8.79404 27.9555 7.14666 26.8042 6.28916C26.1736 5.83797 25.4986 5.63481 24.7598 5.67999C25.3473 5.72502 25.8903 5.92818 26.3903 6.28916C27.543 7.12422 28.3694 8.79404 28.8694 11.2312C29.2166 12.9462 29.2818 14.4354 29.2818 14.5032C29.2818 14.774 29.1512 14.9771 28.9332 15.0447C28.9777 15.0673 29.0207 15.0673 29.043 15.0673C29.4124 15.1125 29.6943 14.8642 29.6735 14.5032C29.6943 14.4354 29.6289 12.9688 29.2818 11.2312Z" fill="url(#paint1_linear_8186_6807)"/>
<path fill-rule="evenodd" clip-rule="evenodd" d="M23.8047 7.23753C19.7173 8.88477 19.9131 16.8054 19.9131 16.8956C19.9131 17.1664 19.7825 17.3696 19.5645 17.4372C19.609 17.4598 19.6298 17.4598 19.6743 17.4598C19.6951 17.4598 19.7395 17.4598 19.7603 17.4598C20.0867 17.4598 20.3033 17.2116 20.3033 16.8956C20.3033 16.8054 20.109 8.90736 24.1949 7.26012C24.4782 7.14732 24.7393 7.07956 24.9781 7.05697C24.6295 6.98935 24.2394 7.05697 23.8047 7.23753Z" fill="url(#paint2_linear_8186_6807)"/>
<path fill-rule="evenodd" clip-rule="evenodd" d="M29.9991 9.20012L11.5652 15.1123C11.5652 15.1123 10.7833 15.338 10.5875 15.5862C10.3916 15.8344 10.3486 16.5339 10.3486 16.5339L7.5 39.3255L28.8908 43.4776L30.5436 9.17753C30.3047 9.13236 30.0643 9.17753 29.9991 9.20012Z" fill="url(#paint3_linear_8186_6807)"/>
<path fill-rule="evenodd" clip-rule="evenodd" d="M22.3915 28.2462C22.0651 27.7949 21.6749 27.3887 21.2832 27.0276C20.8915 26.6666 20.4791 26.3732 20.0652 26.1024C19.7833 25.9219 19.5222 25.7413 19.3041 25.5608C19.0875 25.3803 18.9139 25.1998 18.7833 25.0418C18.6528 24.8612 18.5444 24.7032 18.4791 24.5228C18.4139 24.3423 18.3916 24.1617 18.3916 23.9811C18.3916 23.7329 18.4569 23.4848 18.5444 23.2816C18.6305 23.0786 18.7833 22.898 18.9346 22.7401C19.1097 22.5821 19.3041 22.4693 19.5444 22.3791C19.7833 22.2887 20.0651 22.2437 20.3693 22.2211C20.6956 22.1985 21.0221 22.2211 21.3262 22.2437C21.6304 22.2661 21.9137 22.3339 22.1956 22.4015C22.4567 22.4693 22.7178 22.5595 22.9344 22.6499C23.1525 22.7401 23.3691 22.8303 23.5219 22.9206L24.9566 18.4977C24.74 18.3849 24.4789 18.272 24.1956 18.2044C23.8914 18.114 23.565 18.0464 23.1956 18.0012C22.8262 17.9562 22.4345 17.9336 22.022 17.9336C21.6096 17.9336 21.1749 17.9562 20.718 18.0238C19.7403 18.1592 18.8694 18.43 18.0875 18.8361C17.3487 19.2198 16.6959 19.7162 16.1529 20.3255C15.6306 20.9123 15.2181 21.5892 14.914 22.3565C14.6306 23.1012 14.4571 23.9361 14.4141 24.8386C14.3918 25.3803 14.4348 25.8767 14.5654 26.328C14.6737 26.7794 14.8487 27.2081 15.0876 27.6143C15.3042 28.0205 15.5876 28.3816 15.8917 28.72C16.1958 29.0585 16.5653 29.3745 16.9347 29.6678C17.2388 29.8934 17.5 30.119 17.7181 30.3222C17.9347 30.5253 18.1097 30.7283 18.2388 30.9541C18.3694 31.1571 18.4569 31.3603 18.5222 31.5858C18.5874 31.789 18.6097 32.0146 18.5875 32.2403C18.5875 32.4659 18.5222 32.6915 18.4347 32.8721C18.3486 33.0527 18.2388 33.2332 18.0652 33.3686C17.9139 33.504 17.7181 33.5942 17.5 33.6394C17.2834 33.6844 17.0223 33.707 16.7389 33.662C16.414 33.6168 16.0875 33.5266 15.7834 33.3911C15.4793 33.2783 15.1737 33.1203 14.8918 32.9623C14.6099 32.8045 14.3488 32.6239 14.1307 32.4659C13.8919 32.308 13.696 32.1274 13.5447 31.992L12.5654 35.3544C12.7182 35.58 12.9349 35.7831 13.1738 35.9862C13.4141 36.1893 13.696 36.3923 14.0224 36.5955C14.3488 36.776 14.696 36.9564 15.0654 37.1144C15.4348 37.2724 15.8487 37.4078 16.2612 37.5207H16.2834H16.3042H16.3264H16.3487C17.2389 37.7237 18.0875 37.7689 18.8916 37.6561C19.718 37.5432 20.479 37.2498 21.1303 36.7986C21.8039 36.3247 22.3484 35.6928 22.7608 34.8579C23.1748 34.023 23.4136 33.0075 23.4566 31.8566C23.4789 31.1345 23.3914 30.5027 23.1956 29.916C22.9997 29.2391 22.7179 28.72 22.3915 28.2462Z" fill="url(#paint4_linear_8186_6807)"/>
<path opacity="0.226763" fill-rule="evenodd" clip-rule="evenodd" d="M12.7062 35.5372C12.6558 35.4774 12.6083 35.4163 12.5652 35.3536L13.5445 31.9912C13.5578 32.0037 13.5726 32.0167 13.5875 32.03C13.7329 32.1599 13.9139 32.3218 14.1305 32.4651C14.3486 32.6231 14.6097 32.8037 14.8916 32.9616C15.1735 33.1195 15.4791 33.2774 15.7832 33.3904C16.0873 33.5258 16.4138 33.616 16.7387 33.6612C17.0221 33.7062 17.2832 33.6838 17.4998 33.6386C17.7179 33.5934 17.9137 33.5032 18.065 33.3678C18.2386 33.2324 18.3484 33.0518 18.4345 32.8713C18.522 32.6907 18.5873 32.4651 18.5873 32.2395C18.6095 32.0138 18.5872 31.7882 18.522 31.585C18.4567 31.3594 18.3692 31.1563 18.2386 30.9533C18.1155 30.7388 17.9523 30.5447 17.749 30.3516C17.8558 30.4723 17.9464 30.5961 18.022 30.7275C18.1526 30.9307 18.2386 31.1337 18.3039 31.3594C18.3692 31.5624 18.3915 31.7882 18.3692 32.0138C18.3692 32.2395 18.3039 32.4651 18.2179 32.6457C18.1304 32.8263 18.022 33.0067 17.8484 33.1421C17.6956 33.2774 17.4998 33.3678 17.2832 33.4128C17.0651 33.458 16.804 33.4806 16.5221 33.4354C16.1957 33.3904 15.8693 33.3 15.5652 33.1646C15.261 33.0518 14.9569 32.8939 14.6735 32.7359C14.3916 32.5779 14.1305 32.3975 13.9139 32.2395C13.6958 32.0962 13.5148 31.9344 13.3694 31.8044C13.3546 31.7911 13.3412 31.7781 13.3263 31.7656L12.3486 35.1278C12.4451 35.2715 12.5682 35.406 12.7062 35.5372ZM15.9093 28.7397C15.8277 28.6589 15.7491 28.577 15.6735 28.4936C15.3693 28.155 15.0874 27.794 14.8693 27.3879C14.6305 26.9816 14.4569 26.5528 14.3486 26.1016C14.218 25.6503 14.1735 25.1538 14.1957 24.6122C14.2387 23.7095 14.4139 22.8746 14.6958 22.1299C14.9999 21.3628 15.4139 20.6858 15.9346 20.0991C16.4791 19.4898 17.1303 18.9933 17.8692 18.6097C18.6525 18.2036 19.5219 17.9328 20.4996 17.7974C20.9566 17.7296 21.3913 17.707 21.8038 17.707C22.2177 17.707 22.6094 17.7296 22.9788 17.7748C23.3482 17.82 23.6746 17.8876 23.9788 17.978C24.2606 18.0456 24.5218 18.1584 24.7399 18.2712L24.7057 18.3767C24.5485 18.3084 24.3764 18.2468 24.1954 18.2035C23.8912 18.1133 23.5648 18.0456 23.1954 18.0004C22.826 17.9554 22.4343 17.9328 22.0218 17.9328C21.6094 17.9328 21.1747 17.9554 20.7178 18.023C19.7401 18.1584 18.8692 18.4291 18.0873 18.8355C17.3485 19.219 16.6957 19.7154 16.1527 20.3247C15.6304 20.9114 15.2179 21.5884 14.9138 22.3557C14.6304 23.1004 14.4569 23.9353 14.4139 24.8378C14.3916 25.3795 14.4346 25.8759 14.5652 26.3272C14.6735 26.7786 14.8485 27.2073 15.0874 27.6135C15.304 28.0196 15.5874 28.3808 15.8915 28.7192C15.8974 28.726 15.9034 28.7329 15.9093 28.7397ZM18.8617 25.1334C18.9804 25.2676 19.1288 25.4138 19.3039 25.5599C19.522 25.7405 19.7831 25.9211 20.065 26.1016C20.4789 26.3724 20.8913 26.6658 21.283 27.0268C21.3972 27.1319 21.51 27.2407 21.6228 27.3535C21.4418 27.1589 21.2533 26.9748 21.0649 26.8012C20.6747 26.44 20.2608 26.1467 19.8484 25.8759C19.565 25.6953 19.3039 25.5149 19.0873 25.3343C19.0057 25.267 18.9315 25.1997 18.8617 25.1334Z" fill="black"/>
<path fill-rule="evenodd" clip-rule="evenodd" d="M15.63 13.8257C15.3259 14.5027 15.0217 15.0894 14.8036 15.4956C14.6093 15.8341 14.7176 16.1951 15.044 16.2853C15.3689 16.3982 15.8036 16.1951 15.9994 15.8566C16.0216 15.8115 16.6523 14.7058 17.2175 13.3066L15.63 13.8257Z" fill="url(#paint5_linear_8186_6807)"/>
<path fill-rule="evenodd" clip-rule="evenodd" d="M25.4347 10.6662C25.175 11.7267 24.8487 12.7196 24.6098 13.3289C24.457 13.69 24.6306 14.0284 24.957 14.0736C25.3057 14.1188 25.6958 13.8704 25.8264 13.5095C25.8487 13.4417 26.4346 11.975 26.8056 10.2374V10.2148L25.4347 10.6662Z" fill="url(#paint6_linear_8186_6807)"/>
<path fill-rule="evenodd" clip-rule="evenodd" d="M36.3708 12.1338C36.3708 12.1338 36.3485 11.9532 36.2402 11.8856C36.1526 11.8179 36.0443 11.8179 36.0443 11.8179L33.0222 11.5923L30.8057 9.31312C30.7181 9.24536 30.6306 9.20032 30.5223 9.17773L28.8711 43.4778L40.4566 40.8827L36.3708 12.1338Z" fill="url(#paint7_linear_8186_6807)"/>
<path opacity="0.41" fill-rule="evenodd" clip-rule="evenodd" d="M33.7598 37.0906L33.021 11.5912L32.8904 11.4558L33.2391 36.7295C33.2391 36.7295 30.174 41.5585 29.717 41.4231C29.0434 41.2201 31.0433 9.5602 31.0433 9.5602L30.8253 9.33461C30.7392 9.26684 30.6294 9.22181 30.5434 9.19922L28.9129 43.0253L28.8906 43.4993L29.4559 42.7546L33.7598 37.0906Z" fill="url(#paint8_linear_8186_6807)"/>
<path opacity="0.32" fill-rule="evenodd" clip-rule="evenodd" d="M28.8906 43.478L33.7598 37.0918L40.4999 40.8829L28.8906 43.478Z" fill="url(#paint9_linear_8186_6807)"/>
<path opacity="0.19" fill-rule="evenodd" clip-rule="evenodd" d="M28.8906 43.478L33.7168 37.0918L40.4999 40.8829L28.8906 43.478Z" fill="url(#paint10_linear_8186_6807)"/>
<path opacity="0.19" fill-rule="evenodd" clip-rule="evenodd" d="M28.8906 43.478L33.7168 37.0918L40.4999 40.8829L28.8906 43.478Z" fill="url(#paint11_linear_8186_6807)"/>
<path fill-rule="evenodd" clip-rule="evenodd" d="M36.2592 11.9087C36.369 11.9991 36.3691 12.1344 36.3691 12.1344L40.4119 40.8606L33.7593 37.0696L33.0205 11.5703L35.9996 11.7959C36.0204 11.8185 36.1509 11.8185 36.2592 11.9087Z" fill="url(#paint12_linear_8186_6807)"/>
<path fill-rule="evenodd" clip-rule="evenodd" d="M35.7827 11.9762C35.7827 11.9762 35.9133 11.9762 36.0216 12.089C36.1299 12.1794 36.1521 12.3148 36.1521 12.3148L40.1311 40.7251L40.4353 40.9057L36.391 12.1568C36.391 12.1568 36.3702 12.0214 36.2827 11.9312C36.1743 11.8408 36.0216 11.8408 36.0216 11.8408L33.0439 11.6152L35.7827 11.9762Z" fill="url(#paint13_linear_8186_6807)"/>
<path opacity="0.6" fill-rule="evenodd" clip-rule="evenodd" d="M24.1526 25.6045C26.6747 29.1473 28.3704 32.9835 29.2175 36.7069L30.5439 9.15403C30.3051 9.109 30.0647 9.15403 29.9994 9.17662L11.5656 15.1115C11.5656 15.1115 11.3919 15.1565 11.1738 15.2469C15.8487 16.9167 20.5222 20.5047 24.1526 25.6045Z" fill="url(#paint14_linear_8186_6807)"/>
<path fill-rule="evenodd" clip-rule="evenodd" d="M7.5 39.3244L28.8908 43.4766L29.9352 19.9629L10.1601 20.525L7.5 39.3244Z" fill="url(#paint15_linear_8186_6807)"/>
<path opacity="0.3" fill-rule="evenodd" clip-rule="evenodd" d="M14.5222 15.4406C14.3279 15.9891 14.5192 16.5653 14.9524 16.728C15.3842 16.8906 15.8916 16.5779 16.0874 16.0296C16.2818 15.4812 16.0889 14.9048 15.6572 14.7423C15.2255 14.5796 14.7166 14.8923 14.5222 15.4406Z" fill="white"/>
<path opacity="0.89" fill-rule="evenodd" clip-rule="evenodd" d="M14.4986 15.181C14.3042 15.7293 14.497 16.3057 14.9288 16.4683C15.3605 16.631 15.8694 16.3183 16.0638 15.7699C16.2581 15.2214 16.0668 14.6451 15.6335 14.4825C15.2018 14.3198 14.6944 14.6325 14.4986 15.181Z" fill="black"/>
<path fill-rule="evenodd" clip-rule="evenodd" d="M33.0433 11.5923L30.8253 9.31312C30.7392 9.24536 30.6294 9.20032 30.5434 9.17773L28.8906 43.4778L33.7821 37.069L33.0433 11.5923Z" fill="url(#paint16_linear_8186_6807)"/>
<path fill-rule="evenodd" clip-rule="evenodd" d="M29.9986 9.19985L11.5647 15.112C11.5647 15.112 10.7829 15.3378 10.587 15.5859C10.5648 15.6085 10.5647 15.6311 10.5439 15.6537L29.1292 10.3281C29.282 10.2829 29.6515 10.1476 29.6084 11.2533L28.4779 43.4321L28.8696 43.4999L30.5208 9.19985C30.3042 9.13209 30.0639 9.17726 29.9986 9.19985Z" fill="url(#paint17_linear_8186_6807)"/>
<path fill-rule="evenodd" clip-rule="evenodd" d="M29.9986 9.19985L11.5647 15.112C11.5647 15.112 10.7829 15.3378 10.587 15.5859C10.5648 15.6085 10.5647 15.6311 10.5439 15.6537L14.8479 14.4125L29.6515 9.65119C29.7167 9.6286 29.9556 9.58343 30.1945 9.62861L28.564 43.4321L28.8696 43.4999L30.5208 9.19985C30.3042 9.13209 30.0639 9.17726 29.9986 9.19985Z" fill="url(#paint18_linear_8186_6807)"/>
<path opacity="0.32" fill-rule="evenodd" clip-rule="evenodd" d="M34.7403 37.6325L33.761 37.0684L28.8711 43.477L29.1307 43.4093C29.1307 43.4093 33.4361 37.6551 33.8263 37.4745C34.1097 37.3617 34.7403 37.6325 34.7403 37.6325Z" fill="url(#paint19_linear_8186_6807)"/>
<path opacity="0.57" fill-rule="evenodd" clip-rule="evenodd" d="M28.8906 43.477L33.7821 37.0684C33.7598 37.0909 30.6739 40.5886 28.8906 43.477Z" fill="url(#paint20_linear_8186_6807)"/>
<path opacity="0.46" fill-rule="evenodd" clip-rule="evenodd" d="M40.5005 40.8829L33.7827 37.0918C33.7604 37.0918 34.5438 37.2272 40.5005 40.8829Z" fill="url(#paint21_linear_8186_6807)"/>
<path opacity="0.3" fill-rule="evenodd" clip-rule="evenodd" d="M24.4604 13.1906C24.2645 13.739 24.4574 14.3154 24.8891 14.4781C25.3224 14.6408 25.8298 14.3281 26.0241 13.7798C26.22 13.2313 26.0271 12.6549 25.5954 12.4922C25.1636 12.3297 24.6547 12.6422 24.4604 13.1906Z" fill="white"/>
<path opacity="0.89" fill-rule="evenodd" clip-rule="evenodd" d="M24.436 12.9328C24.2417 13.4813 24.4346 14.0577 24.8663 14.2204C25.2981 14.3829 25.8069 14.0704 26.0012 13.5219C26.1956 12.9735 26.0042 12.3972 25.5725 12.2345C25.1393 12.0718 24.6319 12.3845 24.436 12.9328Z" fill="black"/>
<path fill-rule="evenodd" clip-rule="evenodd" d="M15.282 16.2851C15.2598 16.2851 15.2167 16.2851 15.1944 16.2851C14.8473 16.2401 14.6085 15.9016 14.6515 15.518C14.6945 15.1569 15.9333 6.71725 21.0206 4.79924C22.3024 4.32531 23.3899 4.41552 24.2163 5.11519C25.2162 5.9501 25.7592 7.61993 25.8468 10.057C25.9121 11.772 25.7163 13.2613 25.7163 13.3291C25.6733 13.6901 25.3469 13.961 24.9982 13.8932C24.651 13.848 24.3899 13.5096 24.4552 13.1485C24.651 11.6141 24.8676 7.39433 23.4122 6.1757C22.9552 5.79213 22.3248 5.74695 21.4776 6.0629C17.1084 7.71014 15.9555 15.6308 15.9555 15.6984C15.868 16.037 15.6084 16.2851 15.282 16.2851Z" fill="#595961"/>
<path opacity="0.46" fill-rule="evenodd" clip-rule="evenodd" d="M23.9555 5.16083C23.1944 4.52907 22.1945 4.43886 20.9987 4.86761C18.9335 5.65735 17.1947 7.73333 15.9989 10.87C15.1087 13.1943 14.8031 15.2929 14.8031 15.3832C14.7823 15.496 14.8254 15.6088 14.8907 15.6992C14.956 15.7894 15.0434 15.8572 15.1517 15.8572C15.1725 15.8572 15.1948 15.8572 15.217 15.8572C15.4129 15.8572 15.5864 15.6992 15.6087 15.496C15.6294 15.4058 16.7823 7.34976 21.2821 5.65735C22.1945 5.3188 22.9333 5.36399 23.4555 5.81533C24.9985 7.10158 24.7819 11.4567 24.5861 13.0137C24.5638 13.2395 24.7166 13.4651 24.9332 13.4877C25.1513 13.5102 25.3679 13.3523 25.3902 13.1267C25.4124 12.8783 26.1735 7.01137 23.9555 5.16083Z" fill="#B2B2C2"/>
<path opacity="0.81" fill-rule="evenodd" clip-rule="evenodd" d="M15.1955 15.6089C15.1732 15.6089 15.1732 15.6089 15.1524 15.6089C15.0219 15.5863 14.9343 15.4509 14.9566 15.3156C14.9788 15.2252 15.2608 13.1718 16.1524 10.8475C17.3482 7.75602 19.0439 5.70248 21.0646 4.93518C22.2174 4.50643 23.1521 4.59679 23.8687 5.18352C25.9991 6.96614 25.2603 12.7431 25.2173 12.9912C25.195 13.1266 25.0868 13.2168 24.9339 13.1944C24.8049 13.1718 24.7173 13.059 24.7173 12.901C24.7173 12.8333 25.4562 7.16929 23.5438 5.5445C22.9785 5.11575 22.1952 5.07072 21.2398 5.4317C16.6524 7.16929 15.4566 15.3156 15.4566 15.4058C15.4344 15.5186 15.326 15.6089 15.1955 15.6089Z" fill="#B2B2C2"/>
<path opacity="0.42" fill-rule="evenodd" clip-rule="evenodd" d="M16.261 13.7351C16.3916 13.3289 16.4792 12.9228 16.5652 12.5391C16.5222 12.6744 16.3264 13.9607 15 14.2767C15.0223 14.2767 15.8041 14.2541 16.261 13.7351Z" fill="#595961"/>
<path opacity="0.42" fill-rule="evenodd" clip-rule="evenodd" d="M16.7611 12.0884C16.9347 11.7046 17.0653 11.3211 17.1958 10.9375C17.1305 11.0729 16.8917 12.314 15.457 12.4719C15.457 12.4493 16.2388 12.5397 16.7611 12.0884Z" fill="#595961"/>
<path opacity="0.42" fill-rule="evenodd" clip-rule="evenodd" d="M17.3254 10.5979C17.5213 10.2367 17.7171 9.85317 17.8684 9.49219C17.8031 9.62757 17.3684 10.8461 15.999 10.8461C15.999 10.8461 16.7602 11.004 17.3254 10.5979Z" fill="#595961"/>
<path opacity="0.42" fill-rule="evenodd" clip-rule="evenodd" d="M18.0644 9.15511C18.3033 8.81671 18.5213 8.47817 18.738 8.11719C18.6519 8.22999 18.0214 9.40344 16.7173 9.22288C16.695 9.22288 17.4561 9.47106 18.0644 9.15511Z" fill="#595961"/>
<path opacity="0.62" fill-rule="evenodd" clip-rule="evenodd" d="M25.4557 7.68823C25.3474 7.28192 25.239 6.89835 25.0862 6.49219C25.1292 6.62757 25.564 7.91383 24.6738 8.83895C24.6738 8.83895 25.3251 8.38775 25.4557 7.68823Z" fill="#595961"/>
<path opacity="0.62" fill-rule="evenodd" clip-rule="evenodd" d="M25.6735 9.76466C25.6512 9.35849 25.586 8.92975 25.5207 8.52344C25.5207 8.68141 25.7388 10.0128 24.6943 10.735C24.6943 10.735 25.4124 10.419 25.6735 9.76466Z" fill="#595961"/>
<path opacity="0.62" fill-rule="evenodd" clip-rule="evenodd" d="M25.7819 11.8856C25.8041 11.4794 25.8041 11.0507 25.7819 10.6445C25.7819 10.8025 25.8041 12.1339 24.6943 12.7431C24.6943 12.7207 25.4555 12.4949 25.7819 11.8856Z" fill="#595961"/>
<path opacity="0.42" fill-rule="evenodd" clip-rule="evenodd" d="M18.8921 7.91329C19.1962 7.64252 19.4795 7.34916 19.7406 7.0332C19.6309 7.12341 18.7615 8.04868 17.5449 7.71014C17.5657 7.71014 18.2393 8.11645 18.8921 7.91329Z" fill="#595961"/>
<path opacity="0.42" fill-rule="evenodd" clip-rule="evenodd" d="M19.8698 6.87531C20.2184 6.64971 20.5448 6.42397 20.8697 6.17578C20.7407 6.24355 19.7407 6.9881 18.5879 6.44655C18.5879 6.44655 19.1962 6.96552 19.8698 6.87531Z" fill="#595961"/>
<path opacity="0.62" fill-rule="evenodd" clip-rule="evenodd" d="M21.1959 6.12973C21.5876 6.01678 21.957 5.88139 22.3264 5.74601C22.1959 5.79118 21.0224 6.19735 20.0654 5.33984C20.0654 5.33984 20.5223 6.01678 21.1959 6.12973Z" fill="#595961"/>
<path opacity="0.62" fill-rule="evenodd" clip-rule="evenodd" d="M24.6093 5.65607C24.3051 5.36271 23.9995 5.09194 23.6953 4.84375C23.8051 4.95655 24.8259 5.79146 24.544 7.05512C24.5217 7.05512 24.8481 6.31042 24.6093 5.65607Z" fill="#595961"/>
<path opacity="0.62" fill-rule="evenodd" clip-rule="evenodd" d="M23.4788 6.22166C23.6747 6.46984 23.869 6.71803 24.0649 6.94377C23.9996 6.85342 23.3913 6.10886 23.6954 5.18359C23.7177 5.18359 23.3913 5.7027 23.4788 6.22166Z" fill="#595961"/>
<path opacity="0.62" fill-rule="evenodd" clip-rule="evenodd" d="M22.3038 5.72494C22.6094 5.77012 22.9136 5.79271 23.2177 5.8153C23.1094 5.79271 22.1747 5.72495 21.7607 4.82227C21.783 4.82227 21.8913 5.43158 22.3038 5.72494Z" fill="#595961"/>
<path fill-rule="evenodd" clip-rule="evenodd" d="M24.9779 12.8788C24.9986 12.6306 25.739 6.92146 23.6738 5.18387C23.2822 4.84548 22.8044 4.6875 22.2822 4.6875C21.8905 4.6875 21.4559 4.77771 20.9989 4.95827C18.999 5.70298 17.3254 7.71135 16.1519 10.7802C15.2602 13.082 14.9783 15.1355 14.9561 15.2257C14.9561 15.2933 14.9992 15.3611 15.0644 15.3611H15.0866C15.1519 15.3611 15.1949 15.3159 15.1949 15.2483C15.2172 15.1579 16.3907 6.92146 21.0641 5.16128C22.0641 4.77771 22.9127 4.84548 23.521 5.36444C25.4986 7.01167 24.7599 12.766 24.7391 12.8338C24.7391 12.9014 24.7821 12.9692 24.8474 12.9692C24.8474 12.9692 24.8474 12.9692 24.8681 12.9692C24.9334 12.9917 24.9779 12.9466 24.9779 12.8788Z" fill="url(#paint22_linear_8186_6807)"/>
<path fill-rule="evenodd" clip-rule="evenodd" d="M21.0446 6.06345C16.6754 7.71068 15.5226 15.6313 15.5226 15.7216C15.4796 15.9923 15.3045 16.1955 15.0879 16.2631C15.1309 16.2857 15.1532 16.2857 15.1962 16.2857C15.2184 16.2857 15.2615 16.2857 15.2838 16.2857C15.6102 16.2857 15.8698 16.0375 15.9143 15.7216C15.935 15.6313 17.0656 7.73327 21.4348 6.08589C21.7404 5.97309 22.0001 5.90547 22.2405 5.88288C21.9141 5.8377 21.5001 5.90547 21.0446 6.06345Z" fill="url(#paint23_linear_8186_6807)"/>
<path fill-rule="evenodd" clip-rule="evenodd" d="M25.8483 10.0573C25.7607 7.62022 25.2177 5.97284 24.2178 5.11534C23.6748 4.66414 23.022 4.46099 22.2832 4.50616C22.8485 4.5512 23.3692 4.75435 23.8054 5.11534C24.8053 5.9504 25.3483 7.62022 25.4343 10.0573C25.4996 11.7723 25.3053 13.2616 25.3053 13.3294C25.2608 13.6001 25.0872 13.8033 24.8691 13.8709C24.9136 13.8935 24.9344 13.8935 24.9789 13.8935C25.326 13.9387 25.6525 13.6903 25.6955 13.3294C25.7178 13.2616 25.9135 11.7949 25.8483 10.0573Z" fill="url(#paint24_linear_8186_6807)"/>
<defs>
<linearGradient id="paint0_linear_8186_6807" x1="20.4166" y1="5.91031" x2="19.7348" y2="15.1926" gradientUnits="userSpaceOnUse">
<stop stop-color="white" stop-opacity="0.65"/>
<stop offset="1" stop-color="white" stop-opacity="0.01"/>
</linearGradient>
<linearGradient id="paint1_linear_8186_6807" x1="25.3977" y1="11.2244" x2="30.1977" y2="15.4286" gradientUnits="userSpaceOnUse">
<stop stop-opacity="0.01"/>
<stop offset="1" stop-opacity="0.4"/>
</linearGradient>
<linearGradient id="paint2_linear_8186_6807" x1="23.4738" y1="16.0885" x2="28.5544" y2="11.3562" gradientUnits="userSpaceOnUse">
<stop stop-opacity="0.01"/>
<stop offset="1" stop-opacity="0.4"/>
</linearGradient>
<linearGradient id="paint3_linear_8186_6807" x1="17.007" y1="2.27795" x2="-2.72672" y2="25.0156" gradientUnits="userSpaceOnUse">
<stop stop-color="#B8D26E"/>
<stop offset="1" stop-color="#7FB525"/>
</linearGradient>
<linearGradient id="paint4_linear_8186_6807" x1="11.788" y1="23.1325" x2="2.90862" y2="44.7556" gradientUnits="userSpaceOnUse">
<stop stop-color="white"/>
<stop offset="1" stop-color="#CECEEB"/>
</linearGradient>
<linearGradient id="paint5_linear_8186_6807" x1="16.3704" y1="12.4251" x2="14.7303" y2="13.8345" gradientUnits="userSpaceOnUse">
<stop stop-opacity="0.01"/>
<stop offset="1" stop-opacity="0.4"/>
</linearGradient>
<linearGradient id="paint6_linear_8186_6807" x1="26.1528" y1="8.70034" x2="23.8197" y2="9.956" gradientUnits="userSpaceOnUse">
<stop stop-opacity="0.01"/>
<stop offset="1" stop-opacity="0.4"/>
</linearGradient>
<linearGradient id="paint7_linear_8186_6807" x1="44.0024" y1="7.97062" x2="33.1721" y2="8.17173" gradientUnits="userSpaceOnUse">
<stop stop-color="#B4E034"/>
<stop offset="1" stop-color="#60A927"/>
</linearGradient>
<linearGradient id="paint8_linear_8186_6807" x1="24.5184" y1="76.3818" x2="38.5815" y2="76.3534" gradientUnits="userSpaceOnUse">
<stop stop-color="#1D1D1B" stop-opacity="0.5"/>
<stop offset="0.038033" stop-color="#1D1D1B" stop-opacity="0.4837"/>
<stop offset="0.4243" stop-color="#1D1D1B" stop-opacity="0.3185"/>
<stop offset="1" stop-color="#1D1D1B" stop-opacity="0.01"/>
</linearGradient>
<linearGradient id="paint9_linear_8186_6807" x1="32.3682" y1="40.8998" x2="32.5343" y2="43.0885" gradientUnits="userSpaceOnUse">
<stop stop-opacity="0.01"/>
<stop offset="1" stop-opacity="0.4"/>
</linearGradient>
<linearGradient id="paint10_linear_8186_6807" x1="28.4915" y1="37.6955" x2="28.8765" y2="43.3862" gradientUnits="userSpaceOnUse">
<stop stop-color="white" stop-opacity="0.5"/>
<stop offset="0.0896271" stop-color="white" stop-opacity="0.4552"/>
<stop offset="1" stop-color="white" stop-opacity="0.01"/>
</linearGradient>
<linearGradient id="paint11_linear_8186_6807" x1="27.7512" y1="38.5806" x2="28.436" y2="44.6595" gradientUnits="userSpaceOnUse">
<stop stop-opacity="0.01"/>
<stop offset="1" stop-opacity="0.4"/>
</linearGradient>
<linearGradient id="paint12_linear_8186_6807" x1="28.4525" y1="56.6912" x2="43.9532" y2="56.7225" gradientUnits="userSpaceOnUse">
<stop stop-color="#1D1D1B" stop-opacity="0.5"/>
<stop offset="0.0896271" stop-color="#1D1D1B" stop-opacity="0.4552"/>
<stop offset="1" stop-color="#1D1D1B" stop-opacity="0.01"/>
</linearGradient>
<linearGradient id="paint13_linear_8186_6807" x1="39.554" y1="10.7601" x2="37.3521" y2="11.2996" gradientUnits="userSpaceOnUse">
<stop stop-color="white" stop-opacity="0.4"/>
<stop offset="1" stop-color="white" stop-opacity="0.01"/>
</linearGradient>
<linearGradient id="paint14_linear_8186_6807" x1="25.0649" y1="3.60508" x2="7.50308" y2="13.7622" gradientUnits="userSpaceOnUse">
<stop stop-color="white" stop-opacity="0.5"/>
<stop offset="1" stop-color="white" stop-opacity="0.01"/>
</linearGradient>
<linearGradient id="paint15_linear_8186_6807" x1="19.7977" y1="43.7277" x2="20.9427" y2="38.2075" gradientUnits="userSpaceOnUse">
<stop stop-color="#1D1D1B" stop-opacity="0.5"/>
<stop offset="0.0896271" stop-color="#1D1D1B" stop-opacity="0.4552"/>
<stop offset="1" stop-color="#1D1D1B" stop-opacity="0.01"/>
</linearGradient>
<linearGradient id="paint16_linear_8186_6807" x1="26.4174" y1="75.6803" x2="40.5311" y2="75.6925" gradientUnits="userSpaceOnUse">
<stop stop-color="#1D1D1B" stop-opacity="0.5"/>
<stop offset="1" stop-color="#1D1D1B" stop-opacity="0.01"/>
</linearGradient>
<linearGradient id="paint17_linear_8186_6807" x1="13.5201" y1="7.21127" x2="6.67502" y2="33.5098" gradientUnits="userSpaceOnUse">
<stop stop-color="white" stop-opacity="0.5"/>
<stop offset="1" stop-color="white" stop-opacity="0.01"/>
</linearGradient>
<linearGradient id="paint18_linear_8186_6807" x1="13.5201" y1="7.21127" x2="6.67502" y2="33.5098" gradientUnits="userSpaceOnUse">
<stop stop-color="white" stop-opacity="0.5"/>
<stop offset="1" stop-color="white" stop-opacity="0.01"/>
</linearGradient>
<linearGradient id="paint19_linear_8186_6807" x1="30.1336" y1="34.779" x2="24.7233" y2="42.2257" gradientUnits="userSpaceOnUse">
<stop stop-color="white" stop-opacity="0.5"/>
<stop offset="0.0896271" stop-color="white" stop-opacity="0.4552"/>
<stop offset="1" stop-color="white" stop-opacity="0.01"/>
</linearGradient>
<linearGradient id="paint20_linear_8186_6807" x1="31.7644" y1="36.4911" x2="31.2287" y2="37.6919" gradientUnits="userSpaceOnUse">
<stop stop-opacity="0.01"/>
<stop offset="1" stop-opacity="0.4"/>
</linearGradient>
<linearGradient id="paint21_linear_8186_6807" x1="37.0778" y1="38.0798" x2="37.0513" y2="38.4026" gradientUnits="userSpaceOnUse">
<stop stop-opacity="0.01"/>
<stop offset="1" stop-opacity="0.4"/>
</linearGradient>
<linearGradient id="paint22_linear_8186_6807" x1="17.5939" y1="3.92788" x2="15.255" y2="13.1679" gradientUnits="userSpaceOnUse">
<stop stop-color="white" stop-opacity="0.65"/>
<stop offset="1" stop-color="white" stop-opacity="0.01"/>
</linearGradient>
<linearGradient id="paint23_linear_8186_6807" x1="20.2287" y1="15.3491" x2="25.8502" y2="9.57575" gradientUnits="userSpaceOnUse">
<stop stop-opacity="0.01"/>
<stop offset="1" stop-opacity="0.4"/>
</linearGradient>
<linearGradient id="paint24_linear_8186_6807" x1="22.8292" y1="9.25727" x2="26.8979" y2="13.3938" gradientUnits="userSpaceOnUse">
<stop stop-opacity="0.01"/>
<stop offset="1" stop-opacity="0.4"/>
</linearGradient>
</defs>
</svg>
