<svg width="49" height="48" viewBox="0 0 49 48" fill="none" xmlns="http://www.w3.org/2000/svg">
<path d="M8.91667 25.5006C6.84578 25.5006 5.16699 27.1794 5.16699 29.2503C5.16699 31.3212 6.84594 33 8.91683 33C10.9879 33 12.667 31.3211 12.667 29.25V25.5006H8.91667ZM19.417 25.5006C17.3459 25.5006 15.667 27.1796 15.667 29.2506V39.75C15.667 41.8211 17.3459 43.5 19.417 43.5C21.4881 43.5 23.167 41.8211 23.167 39.75V29.2506C23.167 27.1796 21.4881 25.5006 19.417 25.5006Z" fill="#E01E5A"/>
<path d="M26.1676 39.7503C26.1676 41.8212 27.8464 43.5 29.9173 43.5C31.9882 43.5 33.667 41.8211 33.667 39.7502C33.667 37.6791 31.9881 36 29.917 36L26.1676 36L26.1676 39.7503ZM26.1676 29.25C26.1676 31.3211 27.8466 33 29.9176 33L40.417 33C42.4881 33 44.167 31.3211 44.167 29.25C44.167 27.1789 42.4881 25.5 40.417 25.5L29.9176 25.5C27.8466 25.5 26.1676 27.1789 26.1676 29.25Z" fill="#ECB22E"/>
<path d="M40.4173 22.4994C42.4882 22.4994 44.167 20.8206 44.167 18.7497C44.167 16.6788 42.488 15 40.4172 15C38.3461 15 36.667 16.6789 36.667 18.75V22.4994H40.4173ZM29.917 22.4994C31.9881 22.4994 33.667 20.8204 33.667 18.7494V8.25C33.667 6.17893 31.9881 4.5 29.917 4.5C27.8459 4.5 26.167 6.17893 26.167 8.25V18.7494C26.167 20.8204 27.8459 22.4994 29.917 22.4994Z" fill="#2EB67D"/>
<path d="M23.1664 8.24968C23.1664 6.17879 21.4876 4.5 19.4167 4.5C17.3458 4.5 15.667 6.17895 15.667 8.24984C15.667 10.3209 17.3459 12 19.417 12L23.1663 12L23.1664 8.24968ZM23.1663 18.75C23.1663 16.6789 21.4874 15 19.4163 15L8.91699 15C6.84593 15 5.16699 16.6789 5.16699 18.75C5.16699 20.8211 6.84592 22.5 8.91699 22.5L19.4163 22.5C21.4874 22.5 23.1663 20.8211 23.1663 18.75Z" fill="#36C5F0"/>
</svg>
