<svg width="32" height="32" viewBox="0 0 32 32" fill="none" xmlns="http://www.w3.org/2000/svg">
<g opacity="0.12">
<path d="M24.9111 25.9185C22.5495 28.0419 19.4254 29.334 15.9995 29.334C12.5736 29.334 9.44951 28.0419 7.08789 25.9185C7.89899 24.0076 9.79273 22.6673 11.9995 22.6673H19.9995C22.2063 22.6673 24.1 24.0076 24.9111 25.9185Z" fill="#151516"/>
<path d="M15.9993 18.0007C18.9449 18.0007 21.3327 15.6128 21.3327 12.6673C21.3327 9.7218 18.9449 7.33398 15.9993 7.33398C13.0538 7.33398 10.666 9.7218 10.666 12.6673C10.666 15.6128 13.0538 18.0007 15.9993 18.0007Z" fill="#151516"/>
</g>
<path d="M7.08774 25.9172C7.89884 24.0063 9.79258 22.666 11.9993 22.666H19.9993C22.2061 22.666 24.0998 24.0063 24.9109 25.9172M21.3327 12.666C21.3327 15.6115 18.9449 17.9993 15.9993 17.9993C13.0538 17.9993 10.666 15.6115 10.666 12.666C10.666 9.7205 13.0538 7.33268 15.9993 7.33268C18.9449 7.33268 21.3327 9.7205 21.3327 12.666ZM29.3327 15.9993C29.3327 23.3631 23.3631 29.3327 15.9993 29.3327C8.63555 29.3327 2.66602 23.3631 2.66602 15.9993C2.66602 8.63555 8.63555 2.66602 15.9993 2.66602C23.3631 2.66602 29.3327 8.63555 29.3327 15.9993Z" stroke="white" stroke-width="2" stroke-linecap="round" stroke-linejoin="round"/>
</svg>
