<svg width="48" height="48" viewBox="0 0 48 48" fill="none" xmlns="http://www.w3.org/2000/svg">
<path d="M30.9879 32.4288V25.8516H33.4543V34.8952H13.7227V25.8516H16.1891V32.4288" fill="currentColor"/>
<path d="M18.1619 25.9332L29.3103 27.5446L29.45 25.5879L18.5483 23.4914L18.1619 25.9332ZM19.6417 20.3426L29.5076 24.9467L30.4119 22.9735L20.5461 18.3694L19.6417 20.3426ZM22.4371 15.4919L30.823 22.4802L32.2207 20.8359L23.8347 13.8476L22.4371 15.4919ZM27.7811 10.3945L26.0545 11.71L32.5495 20.4248L34.2761 19.1093L27.7811 10.3945ZM17.833 30.7839H29.3431V28.3175H17.833V30.7839Z" fill="currentColor"/>
<path d="M3 17.4C3 12.3595 3 9.83929 3.98094 7.91409C4.8438 6.22063 6.22063 4.8438 7.91409 3.98094C9.83929 3 12.3595 3 17.4 3H30.6C35.6405 3 38.1607 3 40.0859 3.98094C41.7794 4.8438 43.1562 6.22063 44.0191 7.91409C45 9.83929 45 12.3595 45 17.4V30.6C45 35.6405 45 38.1607 44.0191 40.0859C43.1562 41.7794 41.7794 43.1562 40.0859 44.0191C38.1607 45 35.6405 45 30.6 45H17.4C12.3595 45 9.83929 45 7.91409 44.0191C6.22063 43.1562 4.8438 41.7794 3.98094 40.0859C3 38.1607 3 35.6405 3 30.6V17.4Z" fill="#4087FC"/>
<path d="M12.4 15C11.3507 15 10.5 15.9594 10.5 17.1429V27.5357C10.5 30.5536 12.6692 33 15.345 33L26.6 32.8929C27.6493 32.8929 28.5 31.9335 28.5 30.75V20.25C28.5 17.2322 25.9258 15 23.25 15L12.4 15Z" fill="currentColor"/>
<path d="M31.0683 19.0914C30.3893 19.7627 30 20.7317 30 21.75V26.099C30 27.1173 30.3893 28.0862 31.0683 28.7576L35.2932 32.4787C36.1529 33.3287 37.5 32.6402 37.5 31.3508V16.7027C37.5 15.4133 36.1529 14.7248 35.2932 15.5748L31.0683 19.0914Z" fill="currentColor"/>
</svg>
